<?xml version="1.0" encoding="UTF-8" ?>
<!DOCTYPE svg PUBLIC "-//W3C//DTD SVG 1.1//EN" "http://www.w3.org/Graphics/SVG/1.1/DTD/svg11.dtd">
<svg width="923pt" height="935pt" viewBox="0 0 923 935" version="1.1" xmlns="http://www.w3.org/2000/svg">
<g id="#f5f6f8ff">
</g>
<g id="#e6e7e9ff">
<path fill="#e6e7e9" opacity="1.00" d=" M 448.80 15.78 C 449.10 14.45 449.93 13.36 450.72 12.28 C 469.21 44.43 486.80 77.09 504.16 109.87 C 509.52 119.05 513.40 129.05 519.21 137.97 C 522.16 137.52 525.10 136.95 527.97 136.08 C 589.46 119.83 653.48 113.51 716.97 116.75 C 786.25 120.39 854.78 135.30 919.79 159.36 C 920.81 169.09 920.22 178.95 920.09 188.74 C 876.11 176.21 830.68 168.69 784.98 166.75 C 715.77 163.75 646.17 173.01 579.84 192.86 C 570.37 195.97 560.57 198.32 551.59 202.72 C 565.45 232.43 579.68 262.00 593.09 291.94 C 602.50 313.56 612.19 335.05 621.14 356.88 C 627.54 371.67 633.23 386.77 639.84 401.46 C 720.17 379.93 802.16 364.42 884.87 355.60 C 896.53 354.31 908.22 353.04 919.94 352.37 C 920.45 361.14 920.65 370.01 919.86 378.77 C 912.28 380.63 904.46 381.14 896.83 382.76 C 815.41 397.11 734.96 417.09 656.41 442.89 C 656.69 444.67 657.02 446.47 657.69 448.17 C 685.51 520.84 709.97 594.78 731.41 669.59 C 733.87 677.61 735.42 685.91 738.25 693.83 C 745.36 692.62 752.09 689.96 759.02 688.01 C 789.88 679.08 820.89 670.65 852.16 663.23 C 865.08 659.85 878.24 657.46 891.19 654.21 C 900.74 652.08 910.28 649.92 919.89 648.14 C 920.78 659.08 920.03 670.08 920.26 681.04 C 920.14 686.32 920.65 691.63 920.05 696.88 C 917.78 698.76 914.70 699.16 911.96 700.02 C 901.70 702.41 891.78 705.99 881.59 708.66 C 838.50 721.46 795.73 735.40 753.50 750.82 C 753.51 752.25 753.48 753.70 753.85 755.11 C 758.40 771.66 761.81 788.49 765.73 805.19 C 773.80 841.65 781.18 878.28 787.59 915.08 C 788.61 920.97 789.87 926.83 790.32 932.81 C 777.56 933.17 764.79 932.84 752.04 932.95 C 744.17 932.82 736.29 933.25 728.44 932.74 C 722.63 910.30 717.69 887.64 711.85 865.21 C 707.70 849.41 703.64 833.59 699.33 817.83 C 695.73 805.89 692.50 793.85 689.14 781.85 C 688.56 780.02 687.81 778.25 687.11 776.48 C 679.30 778.84 671.88 782.27 664.36 785.40 C 606.93 808.71 550.64 834.76 495.00 862.07 C 453.35 882.92 412.20 904.73 371.54 927.44 C 367.50 929.48 363.82 932.92 359.07 932.96 C 271.05 932.94 183.03 932.94 95.02 932.96 C 90.71 933.02 86.40 933.02 82.09 932.81 C 79.51 926.28 78.42 919.31 76.43 912.60 C 61.17 850.73 54.14 786.64 57.49 722.95 C 41.19 719.57 24.62 717.55 8.18 714.93 C 5.81 714.54 3.51 713.87 1.20 713.26 C 20.16 698.98 40.00 685.89 59.62 672.53 C 62.25 670.96 62.44 667.67 62.97 664.98 C 65.40 647.66 68.30 630.39 72.34 613.37 C 74.73 600.67 78.67 588.34 81.85 575.83 C 90.57 545.66 101.67 516.22 114.59 487.60 C 126.38 461.58 140.23 436.53 155.19 412.20 C 171.40 387.16 188.63 362.69 208.05 340.02 C 266.04 270.87 338.93 214.30 420.39 175.43 C 425.51 172.90 430.84 170.80 435.82 167.98 C 431.27 157.59 425.36 147.86 420.17 137.79 C 419.16 135.95 419.36 133.81 419.82 131.86 C 429.53 93.18 439.28 54.50 448.80 15.78 M 468.68 237.68 C 463.42 239.87 458.63 243.02 453.60 245.68 C 415.86 266.19 380.40 290.85 347.69 318.68 C 331.75 332.71 316.02 347.05 301.65 362.70 C 248.39 419.14 206.38 486.81 182.84 560.94 C 178.73 574.28 174.47 587.65 172.05 601.41 C 178.22 598.74 183.67 594.73 189.58 591.54 C 206.14 582.52 222.32 572.82 238.97 563.97 C 257.09 553.88 275.67 544.63 294.02 534.97 C 310.57 526.88 327.08 518.72 343.70 510.79 C 361.91 502.61 379.93 494.01 398.37 486.35 C 408.00 482.40 417.33 477.72 427.13 474.14 C 462.73 459.33 498.89 445.87 535.39 433.44 C 543.42 430.29 551.90 428.42 559.83 425.02 C 550.02 401.78 539.45 378.86 529.16 355.82 C 513.01 321.18 496.86 286.53 479.66 252.39 C 477.15 247.52 475.39 242.22 472.10 237.80 C 471.39 236.45 469.71 237.39 468.68 237.68 M 566.00 474.93 C 540.51 484.40 515.50 495.08 490.44 505.61 C 376.72 555.00 267.36 614.23 162.84 680.86 C 161.25 681.79 160.38 683.47 160.46 685.31 C 160.24 695.87 159.20 706.43 160.13 716.99 C 160.44 737.40 162.06 757.82 165.17 778.00 C 166.52 784.91 166.02 792.09 168.19 798.85 C 170.24 805.51 171.20 812.42 172.74 819.21 C 179.84 850.55 189.74 881.24 202.03 910.93 C 204.95 918.03 207.73 925.21 211.29 932.03 C 214.28 930.92 217.08 929.39 219.75 927.68 C 293.79 883.31 370.04 842.62 448.32 806.23 C 463.83 798.46 479.90 791.89 495.69 784.73 C 546.50 762.42 598.11 741.91 650.40 723.33 C 656.55 721.06 662.89 719.28 668.90 716.61 C 667.94 710.58 665.58 704.92 663.77 699.12 C 644.18 638.67 622.48 578.92 599.16 519.81 C 592.34 503.41 586.23 486.70 579.07 470.45 C 574.55 471.43 570.27 473.19 566.00 474.93 Z" />
</g>
</svg>
