<?xml version="1.0" encoding="UTF-8" ?>
<!DOCTYPE svg PUBLIC "-//W3C//DTD SVG 1.1//EN" "http://www.w3.org/Graphics/SVG/1.1/DTD/svg11.dtd">
<svg width="1192pt" height="1239pt" viewBox="0 0 1192 1239" version="1.1" xmlns="http://www.w3.org/2000/svg">
<g id="#cacacaff">
<path fill="#cacaca" opacity="1.00" d=" M 0.00 0.00 L 1192.00 0.00 L 1192.00 413.75 C 1188.13 412.43 1184.00 413.10 1180.02 413.00 C 1047.01 413.00 914.01 413.00 781.00 413.00 C 520.67 413.00 260.33 413.00 0.00 413.00 L 0.00 0.00 M 479.30 68.44 C 457.74 70.69 436.61 77.69 418.28 89.33 C 395.23 103.80 376.98 125.70 366.90 150.98 C 355.56 179.34 353.69 211.19 360.25 240.93 C 367.12 272.14 385.56 300.76 411.69 319.29 C 444.50 343.02 487.65 350.60 526.99 342.08 C 558.61 335.36 587.89 317.26 607.07 291.12 C 629.13 261.59 636.92 223.11 632.41 186.91 C 628.59 154.22 612.95 122.73 587.85 101.19 C 558.50 75.40 517.87 64.24 479.30 68.44 M 90.41 73.27 C 90.39 162.09 90.37 250.91 90.42 339.73 C 110.05 339.84 129.69 339.63 149.32 339.83 C 149.60 335.90 149.49 331.96 149.48 328.03 C 149.53 273.65 149.41 219.26 149.54 164.88 C 186.09 223.15 222.53 281.51 259.15 339.74 C 280.09 339.75 301.03 339.78 321.96 339.73 C 322.03 250.91 322.01 162.09 321.97 73.27 C 302.20 73.18 282.42 73.35 262.65 73.18 C 262.31 127.09 262.65 181.02 262.48 234.95 C 229.21 181.06 195.95 127.16 162.66 73.28 C 138.58 73.22 114.49 73.23 90.41 73.27 M 631.61 73.30 C 664.24 162.08 696.75 250.91 729.34 339.71 C 749.81 339.79 770.27 339.76 790.73 339.72 C 823.21 250.92 855.66 162.11 888.06 73.28 C 867.03 73.18 846.00 73.31 824.97 73.22 C 803.53 135.55 782.67 198.10 761.40 260.50 C 739.77 198.13 718.71 135.57 696.99 73.23 C 675.19 73.30 653.40 73.17 631.61 73.30 M 941.02 78.12 C 908.20 165.34 875.40 252.56 842.44 339.72 C 863.29 339.78 884.14 339.76 904.98 339.73 C 911.46 321.74 917.78 303.70 924.17 285.68 C 958.44 285.51 992.73 285.64 1027.01 285.61 C 1033.46 303.63 1039.77 321.70 1046.21 339.73 C 1067.79 339.77 1089.37 339.77 1110.95 339.73 C 1077.90 250.91 1044.84 162.09 1011.72 73.29 C 989.48 73.19 967.24 73.28 945.01 73.24 C 942.06 72.62 941.96 76.27 941.02 78.12 Z" />
<path fill="#cacaca" opacity="1.00" d=" M 481.49 126.71 C 499.67 123.62 518.97 126.77 534.96 136.06 C 547.88 143.46 558.30 155.06 564.36 168.66 C 571.65 184.99 573.22 203.45 570.86 221.05 C 568.47 238.97 560.18 256.42 546.31 268.27 C 521.01 290.32 481.38 292.60 453.06 275.02 C 440.94 267.61 431.22 256.43 425.53 243.42 C 418.72 227.99 417.11 210.65 418.94 194.00 C 420.73 177.66 427.14 161.58 438.41 149.47 C 449.63 137.25 465.21 129.45 481.49 126.71 Z" />
<path fill="#cacaca" opacity="1.00" d=" M 976.35 139.66 C 986.98 170.25 997.61 200.85 1008.20 231.46 C 986.72 231.56 965.25 231.52 943.78 231.48 C 954.58 200.85 965.49 170.27 976.35 139.66 Z" />
<path fill="#cacaca" opacity="1.00" d=" M 0.00 825.53 C 25.72 825.61 51.45 825.36 77.17 825.66 C 77.08 963.44 77.16 1101.22 77.13 1239.00 L 0.00 1239.00 L 0.00 825.53 Z" />
</g>
<g id="#ffffffff">
<path fill="#ffffff" opacity="1.00" d=" M 479.30 68.44 C 517.87 64.24 558.50 75.40 587.85 101.19 C 612.95 122.73 628.59 154.22 632.41 186.91 C 636.92 223.11 629.13 261.59 607.07 291.12 C 587.89 317.26 558.61 335.36 526.99 342.08 C 487.65 350.60 444.50 343.02 411.69 319.29 C 385.56 300.76 367.12 272.14 360.25 240.93 C 353.69 211.19 355.56 179.34 366.90 150.98 C 376.98 125.70 395.23 103.80 418.28 89.33 C 436.61 77.69 457.74 70.69 479.30 68.44 M 481.49 126.71 C 465.21 129.45 449.63 137.25 438.41 149.47 C 427.14 161.58 420.73 177.66 418.94 194.00 C 417.11 210.65 418.72 227.99 425.53 243.42 C 431.22 256.43 440.94 267.61 453.06 275.02 C 481.38 292.60 521.01 290.32 546.31 268.27 C 560.18 256.42 568.47 238.97 570.86 221.05 C 573.22 203.45 571.65 184.99 564.36 168.66 C 558.30 155.06 547.88 143.46 534.96 136.06 C 518.97 126.77 499.67 123.62 481.49 126.71 Z" />
<path fill="#ffffff" opacity="1.00" d=" M 90.41 73.27 C 114.49 73.23 138.58 73.22 162.66 73.28 C 195.95 127.16 229.21 181.06 262.48 234.95 C 262.65 181.02 262.31 127.09 262.65 73.18 C 282.42 73.35 302.20 73.18 321.97 73.27 C 322.01 162.09 322.03 250.91 321.96 339.73 C 301.03 339.78 280.09 339.75 259.15 339.74 C 222.53 281.51 186.09 223.15 149.54 164.88 C 149.41 219.26 149.53 273.65 149.48 328.03 C 149.49 331.96 149.60 335.90 149.32 339.83 C 129.69 339.63 110.05 339.84 90.42 339.73 C 90.37 250.91 90.39 162.09 90.41 73.27 Z" />
<path fill="#ffffff" opacity="1.00" d=" M 631.61 73.30 C 653.40 73.17 675.19 73.30 696.99 73.23 C 718.71 135.57 739.77 198.13 761.40 260.50 C 782.67 198.10 803.53 135.55 824.97 73.22 C 846.00 73.31 867.03 73.18 888.06 73.28 C 855.66 162.11 823.21 250.92 790.73 339.72 C 770.27 339.76 749.81 339.79 729.34 339.71 C 696.75 250.91 664.24 162.08 631.61 73.30 Z" />
<path fill="#ffffff" opacity="1.00" d=" M 941.02 78.12 C 941.96 76.27 942.06 72.62 945.01 73.24 C 967.24 73.28 989.48 73.19 1011.72 73.29 C 1044.84 162.09 1077.90 250.91 1110.95 339.73 C 1089.37 339.77 1067.79 339.77 1046.21 339.73 C 1039.77 321.70 1033.46 303.63 1027.01 285.61 C 992.73 285.64 958.44 285.51 924.17 285.68 C 917.78 303.70 911.46 321.74 904.98 339.73 C 884.14 339.76 863.29 339.78 842.44 339.72 C 875.40 252.56 908.20 165.34 941.02 78.12 M 976.35 139.66 C 965.49 170.27 954.58 200.85 943.78 231.48 C 965.25 231.52 986.72 231.56 1008.20 231.46 C 997.61 200.85 986.98 170.25 976.35 139.66 Z" />
<path fill="#ffffff" opacity="1.00" d=" M 781.00 413.00 C 914.01 413.00 1047.01 413.00 1180.02 413.00 C 1184.00 413.10 1188.13 412.43 1192.00 413.75 L 1192.00 1239.00 L 77.13 1239.00 C 77.16 1101.22 77.08 963.44 77.17 825.66 C 116.12 825.89 155.08 825.69 194.03 825.75 C 389.68 825.75 585.34 825.76 781.00 825.75 C 781.00 688.17 781.00 550.58 781.00 413.00 M 636.45 858.69 C 629.03 860.75 626.57 871.45 632.53 876.41 C 638.00 881.89 648.61 878.69 649.92 870.99 C 651.91 863.44 643.82 855.94 636.45 858.69 M 264.86 860.83 C 259.92 862.93 256.00 867.14 254.13 872.16 C 251.92 877.53 252.41 883.45 252.37 889.12 C 248.92 889.12 245.46 889.13 242.01 889.12 C 242.00 893.99 241.99 898.87 242.00 903.75 C 245.46 903.74 248.91 903.74 252.37 903.75 C 252.38 919.75 252.36 935.75 252.38 951.75 C 258.09 951.75 263.79 951.74 269.50 951.75 C 269.51 935.75 269.47 919.75 269.51 903.75 C 274.21 903.74 278.92 903.75 283.62 903.75 C 283.63 898.87 283.62 894.00 283.63 889.13 C 278.92 889.12 274.22 889.13 269.51 889.12 C 269.71 884.90 268.60 879.97 271.50 876.44 C 274.56 873.03 279.60 873.70 283.65 874.32 C 283.61 869.52 283.63 864.73 283.63 859.95 C 277.49 858.39 270.74 858.25 264.86 860.83 M 142.75 861.63 C 142.75 891.67 142.74 921.71 142.75 951.75 C 148.75 951.75 154.75 951.75 160.75 951.75 C 160.75 921.71 160.74 891.67 160.75 861.63 C 154.75 861.62 148.75 861.62 142.75 861.63 M 591.49 870.50 C 591.17 875.69 592.70 881.72 589.24 886.17 C 586.71 889.36 582.30 889.20 578.62 889.17 C 578.62 894.24 578.61 899.30 578.62 904.37 C 582.37 904.37 586.12 904.37 589.87 904.38 C 589.93 914.23 589.79 924.09 589.93 933.94 C 589.94 939.88 592.40 946.13 597.56 949.42 C 603.99 953.55 612.26 953.33 619.39 951.33 C 619.37 946.61 619.38 941.90 619.38 937.19 C 616.08 937.40 612.46 938.22 609.41 936.54 C 606.78 935.03 606.82 931.63 606.74 928.99 C 606.74 920.79 606.75 912.59 606.75 904.39 C 610.95 904.36 615.16 904.36 619.37 904.38 C 619.38 899.29 619.38 894.21 619.38 889.12 C 615.17 889.13 610.96 889.13 606.75 889.12 C 606.74 882.91 606.75 876.70 606.75 870.50 C 601.66 870.49 596.58 870.49 591.49 870.50 M 313.45 887.65 C 304.83 888.85 296.69 893.62 291.79 900.86 C 282.14 914.84 284.46 936.33 298.17 946.87 C 311.20 957.20 332.17 955.83 343.27 943.25 C 354.89 930.39 354.42 908.32 341.86 896.25 C 334.50 888.98 323.54 886.10 313.45 887.65 M 534.64 888.67 C 525.86 891.16 518.68 898.81 517.53 907.97 C 522.54 909.04 527.56 910.07 532.58 911.12 C 533.27 908.59 534.02 905.89 536.08 904.11 C 540.33 900.28 547.27 899.99 552.03 903.01 C 555.12 904.99 556.76 910.80 552.85 912.77 C 545.82 914.68 538.41 914.77 531.34 916.52 C 526.67 917.77 522.18 920.32 519.41 924.37 C 514.79 931.09 515.50 940.93 521.13 946.86 C 530.28 956.58 548.42 955.90 556.22 944.79 C 556.36 947.10 556.56 949.44 556.81 951.76 C 562.03 951.74 567.24 951.74 572.46 951.76 C 570.96 937.24 572.22 922.61 571.62 908.06 C 571.12 900.60 566.67 893.41 559.76 890.30 C 551.97 886.76 542.83 886.36 534.64 888.67 M 686.42 887.66 C 676.59 889.02 667.53 895.19 662.95 904.02 C 655.77 917.67 658.42 936.42 670.61 946.35 C 683.55 957.20 704.93 956.06 716.25 943.36 C 728.02 930.48 727.53 908.21 714.83 896.13 C 707.43 888.93 696.49 886.10 686.42 887.66 M 193.97 896.47 C 194.00 894.05 194.01 891.65 194.00 889.25 C 188.50 889.25 183.00 889.24 177.50 889.25 C 177.50 910.08 177.50 930.91 177.49 951.75 C 183.16 951.75 188.84 951.75 194.51 951.75 C 194.50 939.83 194.50 927.91 194.50 916.00 C 194.47 912.63 195.35 909.15 197.62 906.60 C 201.52 902.06 209.04 901.71 213.66 905.32 C 216.78 907.87 217.66 912.14 217.62 915.99 C 217.63 927.91 217.61 939.83 217.62 951.75 C 223.29 951.75 228.96 951.74 234.62 951.75 C 234.63 940.82 234.62 929.89 234.63 918.96 C 234.78 911.36 234.88 903.14 230.46 896.57 C 222.55 884.37 202.07 884.53 193.97 896.47 M 426.31 896.32 C 426.37 893.96 426.38 891.60 426.39 889.25 C 420.92 889.25 415.46 889.25 410.00 889.25 C 410.00 910.08 409.99 930.92 410.00 951.75 C 415.71 951.74 421.41 951.75 427.12 951.75 C 427.18 939.11 427.02 926.47 427.19 913.84 C 427.25 907.29 433.61 901.90 440.10 902.96 C 445.36 903.11 449.52 907.85 449.56 913.01 C 449.72 925.92 449.57 938.83 449.62 951.75 C 455.29 951.75 460.95 951.74 466.62 951.75 C 466.62 939.84 466.64 927.93 466.61 916.03 C 466.56 912.90 467.17 909.63 469.17 907.14 C 472.86 902.15 480.87 901.48 485.57 905.39 C 488.60 907.99 489.14 912.24 489.13 916.00 C 489.13 927.91 489.13 939.83 489.13 951.75 C 494.62 951.74 500.12 951.75 505.62 951.75 C 505.64 939.83 505.61 927.91 505.63 916.00 C 505.81 908.84 505.41 901.01 500.68 895.22 C 491.38 883.85 470.89 884.84 463.13 897.53 C 456.06 884.06 434.68 884.32 426.31 896.32 M 751.96 896.54 C 751.99 894.10 752.00 891.67 751.99 889.25 C 746.49 889.25 740.99 889.24 735.49 889.26 C 735.50 910.08 735.52 930.91 735.48 951.73 C 741.16 951.76 746.83 951.75 752.51 951.74 C 752.48 940.17 752.50 928.61 752.49 917.04 C 752.46 913.37 753.13 909.46 755.65 906.64 C 759.36 902.26 766.38 901.76 771.06 904.82 C 774.36 907.03 775.66 911.17 775.62 914.98 C 775.63 927.23 775.62 939.49 775.62 951.75 C 781.29 951.74 786.95 951.75 792.62 951.74 C 792.63 939.85 792.61 927.96 792.63 916.07 C 792.90 909.38 792.34 902.26 788.50 896.55 C 780.58 884.34 760.01 884.54 751.96 896.54 M 362.37 889.13 C 362.38 910.00 362.36 930.87 362.38 951.75 C 368.08 951.75 373.79 951.73 379.49 951.76 C 379.52 941.84 379.47 931.91 379.50 921.99 C 379.55 916.75 381.32 910.97 385.97 908.03 C 390.29 905.21 395.71 905.29 400.63 905.99 C 400.62 900.28 400.63 894.58 400.63 888.88 C 392.51 887.74 383.01 890.15 378.95 897.91 C 379.00 894.97 379.01 892.05 379.01 889.13 C 373.46 889.12 367.91 889.13 362.37 889.13 M 631.25 889.25 C 631.25 910.13 631.25 931.00 631.25 951.87 C 636.92 951.88 642.58 951.88 648.25 951.87 C 648.25 931.00 648.26 910.13 648.25 889.26 C 642.58 889.24 636.91 889.25 631.25 889.25 M 142.75 988.62 C 142.75 1018.71 142.75 1048.79 142.75 1078.87 C 148.37 1078.87 154.00 1078.86 159.63 1078.88 C 159.61 1058.02 159.65 1037.16 159.60 1016.30 C 168.19 1037.17 176.85 1058.01 185.45 1078.88 C 190.41 1078.82 195.38 1078.97 200.34 1078.76 C 208.71 1057.75 217.53 1036.92 226.00 1015.95 C 226.01 1036.92 225.99 1057.90 226.01 1078.88 C 231.79 1078.86 237.58 1078.86 243.37 1078.88 C 243.39 1048.79 243.38 1018.71 243.38 988.62 C 235.37 988.62 227.37 988.60 219.37 988.64 C 210.60 1010.22 201.87 1031.81 193.04 1053.37 C 183.83 1031.87 175.07 1010.18 166.00 988.62 C 158.25 988.62 150.50 988.61 142.75 988.62 M 860.13 997.62 C 859.76 1002.73 861.32 1008.59 858.08 1013.04 C 855.59 1016.36 851.10 1016.27 847.37 1016.31 C 847.37 1021.33 847.36 1026.35 847.38 1031.38 C 851.12 1031.37 854.87 1031.38 858.62 1031.38 C 858.63 1041.26 858.59 1051.15 858.62 1061.03 C 858.58 1067.05 861.20 1073.35 866.45 1076.62 C 872.88 1080.63 881.08 1080.42 888.14 1078.32 C 888.11 1073.61 888.12 1068.90 888.13 1064.20 C 883.85 1064.80 876.78 1065.67 875.76 1059.95 C 875.13 1050.46 875.67 1040.90 875.50 1031.39 C 879.70 1031.37 883.91 1031.37 888.12 1031.38 C 888.12 1026.33 888.12 1021.29 888.12 1016.25 C 883.91 1016.25 879.71 1016.24 875.51 1016.25 C 875.48 1010.03 875.50 1003.82 875.50 997.61 C 870.37 997.63 865.25 997.62 860.13 997.62 M 554.36 1015.57 C 543.97 1018.64 535.84 1027.64 533.34 1038.11 C 530.13 1050.95 533.71 1066.15 544.67 1074.29 C 554.44 1081.70 568.47 1082.84 579.42 1077.42 C 586.10 1074.12 590.97 1067.87 593.23 1060.85 C 588.50 1059.42 583.76 1058.02 579.03 1056.63 C 577.66 1059.27 576.24 1062.08 573.63 1063.71 C 566.86 1068.06 556.76 1066.55 551.91 1060.00 C 550.09 1057.72 549.42 1054.83 548.87 1052.05 C 563.84 1051.93 578.81 1052.05 593.78 1051.98 C 594.54 1043.02 593.49 1033.37 588.15 1025.85 C 580.84 1015.34 566.20 1012.18 554.36 1015.57 M 734.04 1015.12 C 722.60 1017.72 713.49 1027.57 711.12 1038.97 C 708.28 1051.61 711.93 1066.38 722.67 1074.31 C 732.23 1081.56 745.86 1082.75 756.70 1077.77 C 763.71 1074.54 768.88 1068.13 771.20 1060.84 C 766.47 1059.42 761.74 1058.03 757.02 1056.63 C 755.61 1059.49 753.94 1062.43 751.07 1064.06 C 744.49 1067.83 735.21 1066.49 730.34 1060.56 C 728.22 1058.19 727.38 1055.06 726.85 1052.02 C 741.82 1051.96 756.79 1052.03 771.76 1051.99 C 772.48 1043.27 771.54 1033.96 766.60 1026.52 C 759.80 1016.00 745.76 1012.46 734.04 1015.12 M 270.33 1017.32 C 263.38 1020.59 258.26 1027.36 257.21 1035.00 C 262.24 1036.08 267.27 1037.14 272.30 1038.20 C 273.00 1035.81 273.60 1033.25 275.45 1031.47 C 278.97 1027.86 284.67 1027.28 289.29 1028.80 C 292.36 1029.75 294.87 1032.60 294.85 1035.91 C 295.08 1038.06 293.29 1039.92 291.24 1040.22 C 284.89 1041.50 278.40 1041.97 272.05 1043.30 C 266.84 1044.47 261.76 1047.26 258.81 1051.84 C 254.49 1058.59 255.33 1068.23 260.94 1074.01 C 270.13 1083.60 288.25 1082.89 295.94 1071.73 C 296.06 1074.10 296.25 1076.48 296.49 1078.87 C 301.73 1078.87 306.97 1078.87 312.22 1078.87 C 310.50 1063.98 312.26 1048.93 311.18 1034.01 C 310.38 1025.93 304.62 1018.71 296.87 1016.26 C 288.32 1013.53 278.55 1013.43 270.33 1017.32 M 342.42 1023.67 C 342.50 1021.19 342.51 1018.71 342.52 1016.25 C 337.01 1016.25 331.50 1016.25 326.00 1016.25 C 326.01 1037.13 325.99 1058.00 326.00 1078.88 C 331.67 1078.86 337.34 1078.87 343.01 1078.87 C 342.98 1067.25 343.02 1055.63 342.98 1044.01 C 342.91 1040.67 343.46 1037.20 345.47 1034.46 C 349.54 1028.57 359.58 1028.35 363.82 1034.14 C 366.29 1037.55 366.14 1041.96 366.14 1045.97 C 366.10 1056.94 366.13 1067.91 366.12 1078.88 C 371.79 1078.86 377.46 1078.87 383.12 1078.87 C 383.12 1068.59 383.12 1058.32 383.12 1048.04 C 383.13 1040.08 383.82 1031.50 379.48 1024.42 C 372.01 1011.42 350.54 1011.24 342.42 1023.67 M 413.49 1015.35 C 404.17 1017.51 396.27 1025.36 395.09 1035.01 C 400.10 1036.06 405.10 1037.15 410.11 1038.18 C 410.74 1035.97 411.28 1033.61 412.89 1031.89 C 416.51 1027.75 422.88 1027.13 427.79 1029.05 C 431.31 1030.31 433.73 1034.60 432.19 1038.16 C 430.73 1040.62 427.47 1040.42 425.02 1040.95 C 416.56 1042.49 406.99 1042.14 400.05 1048.01 C 392.93 1053.79 391.97 1065.29 397.50 1072.47 C 406.06 1083.68 425.83 1083.46 433.81 1071.66 C 433.91 1074.05 434.10 1076.45 434.35 1078.86 C 439.57 1078.88 444.80 1078.86 450.03 1078.88 C 448.42 1064.32 449.73 1049.63 449.13 1035.03 C 448.64 1027.95 444.60 1021.07 438.20 1017.81 C 430.66 1013.94 421.65 1013.54 413.49 1015.35 M 468.17 1023.12 C 456.53 1034.47 455.97 1055.07 466.99 1067.03 C 473.81 1074.53 484.79 1077.57 494.59 1075.34 C 498.99 1074.37 502.89 1071.82 505.72 1068.34 C 505.56 1073.76 505.85 1079.79 502.40 1084.38 C 498.38 1089.69 490.79 1090.65 484.67 1089.31 C 479.28 1088.10 475.41 1083.38 474.32 1078.10 C 469.20 1079.47 464.07 1080.79 458.96 1082.20 C 460.16 1088.51 463.58 1094.39 468.76 1098.26 C 477.21 1104.87 488.76 1106.10 499.02 1103.92 C 506.00 1102.48 512.56 1098.54 516.58 1092.58 C 520.94 1086.33 522.41 1078.55 522.38 1071.05 C 522.39 1052.79 522.37 1034.52 522.39 1016.26 C 516.92 1016.23 511.46 1016.26 506.00 1016.25 C 505.99 1018.57 505.99 1020.90 506.05 1023.25 C 503.93 1020.20 500.99 1017.72 497.44 1016.55 C 487.48 1013.17 475.64 1015.60 468.17 1023.12 M 620.95 1023.51 C 620.99 1021.08 621.00 1018.66 621.00 1016.25 C 615.58 1016.25 610.16 1016.24 604.75 1016.25 C 604.75 1037.12 604.74 1058.00 604.75 1078.87 C 610.42 1078.87 616.09 1078.87 621.76 1078.87 C 621.82 1066.25 621.59 1053.62 621.86 1041.01 C 621.91 1034.69 627.76 1029.28 634.10 1029.98 C 639.61 1029.77 644.26 1034.57 644.30 1040.00 C 644.49 1052.95 644.32 1065.92 644.37 1078.87 C 649.99 1078.87 655.62 1078.86 661.25 1078.87 C 661.25 1067.24 661.25 1055.62 661.25 1043.99 C 661.18 1040.47 661.73 1036.74 664.06 1033.95 C 667.42 1029.67 673.94 1028.87 678.64 1031.27 C 682.13 1033.09 683.72 1037.17 683.73 1040.94 C 683.79 1053.58 683.72 1066.22 683.75 1078.87 C 689.29 1078.87 694.83 1078.87 700.38 1078.87 C 700.37 1067.25 700.37 1055.64 700.38 1044.02 C 700.50 1036.85 700.46 1029.03 696.00 1023.00 C 687.08 1010.88 665.82 1011.60 657.88 1024.52 C 650.75 1011.07 629.19 1011.35 620.95 1023.51 M 799.18 1023.69 C 799.24 1021.20 799.25 1018.72 799.26 1016.25 C 793.76 1016.24 788.25 1016.25 782.75 1016.26 C 782.75 1037.13 782.75 1058.00 782.75 1078.87 C 788.41 1078.86 794.08 1078.87 799.75 1078.87 C 799.76 1066.91 799.72 1054.94 799.76 1042.98 C 799.70 1038.56 801.52 1033.82 805.47 1031.51 C 809.31 1029.32 814.42 1029.41 818.17 1031.77 C 821.54 1033.93 822.88 1038.14 822.86 1041.98 C 822.90 1054.28 822.86 1066.57 822.87 1078.87 C 828.54 1078.86 834.20 1078.87 839.87 1078.87 C 839.89 1066.90 839.86 1054.94 839.89 1042.97 C 840.14 1036.23 839.55 1029.04 835.58 1023.34 C 827.52 1011.34 807.09 1011.65 799.18 1023.69 M 145.12 1126.10 C 139.21 1133.74 138.00 1144.74 142.27 1153.43 C 145.32 1159.62 151.20 1164.02 157.61 1166.28 C 164.51 1168.68 171.90 1169.13 178.87 1171.25 C 183.08 1172.59 186.92 1176.29 186.86 1180.97 C 187.02 1185.66 183.42 1189.76 179.03 1191.01 C 171.81 1193.16 163.03 1192.01 157.60 1186.43 C 154.56 1183.42 153.23 1179.21 152.56 1175.10 C 147.11 1176.58 141.64 1178.01 136.19 1179.51 C 137.16 1186.61 140.37 1193.45 145.66 1198.36 C 152.12 1204.58 161.16 1207.43 169.98 1207.73 C 178.62 1208.15 187.67 1206.14 194.52 1200.67 C 201.06 1195.55 205.15 1187.31 204.76 1178.97 C 204.67 1170.57 199.83 1162.59 192.70 1158.26 C 185.58 1153.61 176.91 1152.87 168.78 1151.21 C 165.31 1150.60 161.55 1149.60 159.26 1146.71 C 156.27 1143.04 156.81 1137.35 160.00 1133.99 C 165.10 1128.51 174.04 1128.17 180.36 1131.61 C 184.35 1133.74 186.61 1137.90 187.78 1142.12 C 193.06 1140.51 198.33 1138.89 203.61 1137.28 C 201.85 1129.12 196.76 1121.59 189.22 1117.78 C 174.96 1110.52 155.11 1112.84 145.12 1126.10 M 282.75 1113.75 C 282.74 1144.46 282.75 1175.16 282.75 1205.87 C 288.42 1205.87 294.08 1205.88 299.75 1205.87 C 299.75 1194.23 299.75 1182.60 299.74 1170.96 C 299.69 1167.13 300.57 1163.05 303.32 1160.24 C 306.91 1156.47 313.07 1156.06 317.55 1158.41 C 321.28 1160.41 322.93 1164.85 322.87 1168.91 C 322.90 1181.23 322.86 1193.55 322.88 1205.87 C 328.54 1205.88 334.21 1205.87 339.88 1205.88 C 339.88 1192.56 339.87 1179.24 339.88 1165.93 C 339.92 1160.26 338.48 1154.46 335.09 1149.86 C 326.93 1139.13 309.06 1138.89 299.71 1148.17 C 299.79 1136.70 299.73 1125.22 299.75 1113.75 C 294.08 1113.74 288.42 1113.74 282.75 1113.75 M 498.13 1113.75 C 498.12 1144.46 498.12 1175.16 498.13 1205.88 C 503.79 1205.87 509.46 1205.88 515.12 1205.87 C 515.12 1175.16 515.12 1144.46 515.12 1113.75 C 509.46 1113.74 503.79 1113.75 498.13 1113.75 M 222.46 1148.45 C 208.84 1159.33 206.75 1181.21 217.16 1194.95 C 226.86 1208.27 247.17 1211.75 260.95 1202.95 C 266.82 1199.24 270.96 1193.25 272.99 1186.66 C 268.00 1184.98 263.03 1183.24 258.02 1181.61 C 256.96 1183.89 255.94 1186.29 254.08 1188.07 C 248.66 1193.47 239.11 1193.42 233.39 1188.51 C 226.84 1182.75 226.05 1172.27 229.97 1164.81 C 233.87 1157.30 244.55 1154.79 251.54 1159.39 C 254.50 1161.28 256.11 1164.51 257.38 1167.67 C 262.45 1165.92 267.53 1164.24 272.60 1162.50 C 270.48 1154.96 265.35 1148.24 258.27 1144.75 C 246.93 1139.20 232.32 1140.38 222.46 1148.45 M 377.48 1141.71 C 369.34 1142.83 361.62 1147.08 356.63 1153.65 C 346.23 1167.18 347.77 1188.83 360.97 1200.02 C 373.75 1211.12 395.22 1210.26 406.76 1197.74 C 418.83 1184.95 418.44 1162.46 405.70 1150.27 C 398.36 1143.09 387.51 1140.23 377.48 1141.71 M 449.46 1141.68 C 441.53 1142.72 433.96 1146.74 428.91 1152.99 C 418.02 1166.36 419.31 1188.27 432.41 1199.73 C 445.01 1211.00 466.39 1210.40 478.14 1198.16 C 490.54 1185.48 490.35 1162.77 477.61 1150.39 C 470.32 1143.17 459.50 1140.27 449.46 1141.68 Z" />
<path fill="#ffffff" opacity="1.00" d=" M 571.27 497.22 C 587.61 492.15 605.13 492.01 621.91 494.74 C 638.24 497.45 654.21 504.24 666.30 515.74 C 678.05 526.80 685.75 541.84 688.62 557.67 C 672.42 562.24 656.23 566.81 640.03 571.38 C 638.54 563.41 634.74 555.76 628.54 550.43 C 620.27 543.10 608.78 540.60 597.98 541.00 C 587.72 541.24 577.05 545.45 570.92 553.97 C 564.86 561.97 565.08 574.41 572.29 581.63 C 576.80 586.22 583.10 588.49 589.28 589.77 C 601.58 592.16 613.91 594.43 626.22 596.84 C 644.25 600.60 661.93 608.60 674.69 622.18 C 684.92 632.93 691.32 647.16 692.67 661.93 C 694.25 677.32 690.48 693.15 682.34 706.29 C 674.20 719.63 661.77 730.13 647.60 736.61 C 629.39 745.04 608.77 746.91 588.98 744.93 C 570.01 743.08 551.15 736.76 536.05 724.90 C 518.42 711.18 506.53 690.22 504.25 667.96 C 520.79 663.94 537.35 659.99 553.88 655.96 C 555.05 668.54 560.90 681.08 571.43 688.46 C 582.19 696.19 595.98 698.32 608.95 697.48 C 617.54 696.80 626.56 694.09 632.52 687.54 C 639.17 680.39 640.27 668.53 634.47 660.55 C 629.45 653.59 621.08 650.04 612.92 648.36 C 600.82 646.05 588.69 643.95 576.60 641.58 C 557.23 637.53 538.31 627.84 526.31 611.72 C 508.72 588.46 509.15 554.24 525.33 530.37 C 536.02 514.25 552.90 502.81 571.27 497.22 Z" />
<path fill="#ffffff" opacity="1.00" d=" M 87.75 498.13 C 106.00 498.12 124.25 498.11 142.50 498.13 C 142.51 578.92 142.50 659.71 142.50 740.49 C 124.25 740.51 106.00 740.51 87.75 740.49 C 87.75 659.70 87.74 578.91 87.75 498.13 Z" />
<path fill="#ffffff" opacity="1.00" d=" M 194.63 498.13 C 218.16 498.12 241.70 498.12 265.24 498.12 C 287.44 552.62 309.62 607.12 331.80 661.63 C 352.85 607.13 373.89 552.63 394.93 498.13 C 419.70 498.11 444.47 498.12 469.25 498.13 C 469.26 578.91 469.25 659.70 469.25 740.49 C 451.54 740.52 433.83 740.49 416.13 740.50 C 416.05 687.33 416.25 634.15 416.03 580.97 C 394.70 634.00 374.11 687.34 353.06 740.49 C 338.43 740.52 323.79 740.50 309.15 740.50 C 288.13 687.78 267.16 635.04 246.09 582.34 C 246.13 635.08 246.22 687.82 246.04 740.56 C 228.90 740.41 211.76 740.56 194.63 740.49 C 194.63 659.70 194.62 578.91 194.63 498.13 Z" />
<path fill="#ffffff" opacity="1.00" d=" M 315.22 903.19 C 322.26 901.40 330.25 905.22 332.96 912.03 C 336.36 920.23 334.72 931.75 326.36 936.32 C 318.86 940.63 308.13 937.35 304.76 929.28 C 300.29 919.83 303.89 905.48 315.22 903.19 Z" />
<path fill="#ffffff" opacity="1.00" d=" M 687.36 903.45 C 694.59 901.12 703.19 904.88 706.04 912.00 C 709.24 919.83 708.04 930.50 700.64 935.58 C 693.56 940.60 682.49 938.20 678.45 930.42 C 673.32 921.22 676.21 906.51 687.36 903.45 Z" />
<path fill="#ffffff" opacity="1.00" d=" M 538.42 926.61 C 543.89 925.12 549.60 924.75 555.17 923.74 C 555.34 929.13 554.69 935.60 549.65 938.74 C 545.46 941.17 539.29 942.11 535.42 938.63 C 531.64 935.07 533.45 928.00 538.42 926.61 Z" />
<path fill="#ffffff" opacity="1.00" d=" M 558.06 1029.06 C 563.50 1027.16 570.43 1028.05 574.33 1032.59 C 576.25 1034.73 576.86 1037.61 577.41 1040.36 C 568.01 1040.38 558.62 1040.39 549.24 1040.35 C 550.06 1035.42 553.21 1030.74 558.06 1029.06 Z" />
<path fill="#ffffff" opacity="1.00" d=" M 730.23 1033.31 C 734.97 1027.12 744.88 1026.48 750.87 1031.18 C 753.71 1033.37 754.83 1036.94 755.37 1040.36 C 745.97 1040.37 736.56 1040.41 727.17 1040.33 C 727.89 1037.88 728.52 1035.29 730.23 1033.31 Z" />
<path fill="#ffffff" opacity="1.00" d=" M 488.18 1030.22 C 494.68 1028.83 501.91 1032.31 504.44 1038.54 C 506.90 1044.47 506.26 1051.98 501.92 1056.89 C 495.98 1063.62 483.63 1062.81 478.83 1055.13 C 473.02 1046.46 477.05 1031.92 488.18 1030.22 Z" />
<path fill="#ffffff" opacity="1.00" d=" M 279.91 1053.14 C 284.89 1052.22 289.93 1051.61 294.93 1050.81 C 294.85 1054.80 294.86 1059.10 292.59 1062.58 C 289.66 1067.19 283.47 1068.66 278.39 1067.54 C 275.07 1066.76 272.71 1063.39 273.13 1060.01 C 273.24 1056.38 276.48 1053.62 279.91 1053.14 Z" />
<path fill="#ffffff" opacity="1.00" d=" M 415.67 1053.75 C 421.18 1052.14 426.99 1051.87 432.63 1050.84 C 432.61 1054.05 432.78 1057.39 431.51 1060.43 C 429.14 1067.04 420.33 1069.70 414.30 1066.72 C 409.26 1063.93 410.18 1055.47 415.67 1053.75 Z" />
<path fill="#ffffff" opacity="1.00" d=" M 377.50 1157.69 C 384.62 1155.11 393.40 1158.42 396.54 1165.44 C 400.05 1173.11 399.10 1183.68 392.14 1189.15 C 385.57 1194.31 374.86 1192.91 370.14 1185.90 C 363.97 1176.93 366.31 1161.46 377.50 1157.69 Z" />
<path fill="#ffffff" opacity="1.00" d=" M 449.46 1157.63 C 455.89 1155.44 463.68 1157.83 467.32 1163.68 C 471.17 1169.92 471.27 1178.37 467.75 1184.78 C 463.92 1191.75 454.32 1194.25 447.37 1190.61 C 434.83 1184.28 435.75 1162.03 449.46 1157.63 Z" />
</g>
<g id="#646464ff">
<path fill="#646464" opacity="1.00" d=" M 0.00 413.00 C 260.33 413.00 520.67 413.00 781.00 413.00 C 781.00 550.58 781.00 688.17 781.00 825.75 C 585.34 825.76 389.68 825.75 194.03 825.75 C 155.08 825.69 116.12 825.89 77.17 825.66 C 51.45 825.36 25.72 825.61 0.00 825.53 L 0.00 413.00 M 571.27 497.22 C 552.90 502.81 536.02 514.25 525.33 530.37 C 509.15 554.24 508.72 588.46 526.31 611.72 C 538.31 627.84 557.23 637.53 576.60 641.58 C 588.69 643.95 600.82 646.05 612.92 648.36 C 621.08 650.04 629.45 653.59 634.47 660.55 C 640.27 668.53 639.17 680.39 632.52 687.54 C 626.56 694.09 617.54 696.80 608.95 697.48 C 595.98 698.32 582.19 696.19 571.43 688.46 C 560.90 681.08 555.05 668.54 553.88 655.96 C 537.35 659.99 520.79 663.94 504.25 667.96 C 506.53 690.22 518.42 711.18 536.05 724.90 C 551.15 736.76 570.01 743.08 588.98 744.93 C 608.77 746.91 629.39 745.04 647.60 736.61 C 661.77 730.13 674.20 719.63 682.34 706.29 C 690.48 693.15 694.25 677.32 692.67 661.93 C 691.32 647.16 684.92 632.93 674.69 622.18 C 661.93 608.60 644.25 600.60 626.22 596.84 C 613.91 594.43 601.58 592.16 589.28 589.77 C 583.10 588.49 576.80 586.22 572.29 581.63 C 565.08 574.41 564.86 561.97 570.92 553.97 C 577.05 545.45 587.72 541.24 597.98 541.00 C 608.78 540.60 620.27 543.10 628.54 550.43 C 634.74 555.76 638.54 563.41 640.03 571.38 C 656.23 566.81 672.42 562.24 688.62 557.67 C 685.75 541.84 678.05 526.80 666.30 515.74 C 654.21 504.24 638.24 497.45 621.91 494.74 C 605.13 492.01 587.61 492.15 571.27 497.22 M 87.75 498.13 C 87.74 578.91 87.75 659.70 87.75 740.49 C 106.00 740.51 124.25 740.51 142.50 740.49 C 142.50 659.71 142.51 578.92 142.50 498.13 C 124.25 498.11 106.00 498.12 87.75 498.13 M 194.63 498.13 C 194.62 578.91 194.63 659.70 194.63 740.49 C 211.76 740.56 228.90 740.41 246.04 740.56 C 246.22 687.82 246.13 635.08 246.09 582.34 C 267.16 635.04 288.13 687.78 309.15 740.50 C 323.79 740.50 338.43 740.52 353.06 740.49 C 374.11 687.34 394.70 634.00 416.03 580.97 C 416.25 634.15 416.05 687.33 416.13 740.50 C 433.83 740.49 451.54 740.52 469.25 740.49 C 469.25 659.70 469.26 578.91 469.25 498.13 C 444.47 498.12 419.70 498.11 394.93 498.13 C 373.89 552.63 352.85 607.13 331.80 661.63 C 309.62 607.12 287.44 552.62 265.24 498.12 C 241.70 498.12 218.16 498.12 194.63 498.13 Z" />
<path fill="#646464" opacity="1.00" d=" M 636.45 858.69 C 643.82 855.94 651.91 863.44 649.92 870.99 C 648.61 878.69 638.00 881.89 632.53 876.41 C 626.57 871.45 629.03 860.75 636.45 858.69 Z" />
<path fill="#646464" opacity="1.00" d=" M 264.86 860.83 C 270.74 858.25 277.49 858.39 283.63 859.95 C 283.63 864.73 283.61 869.52 283.65 874.32 C 279.60 873.70 274.56 873.03 271.50 876.44 C 268.60 879.97 269.71 884.90 269.51 889.12 C 274.22 889.13 278.92 889.12 283.63 889.13 C 283.62 894.00 283.63 898.87 283.62 903.75 C 278.92 903.75 274.21 903.74 269.51 903.75 C 269.47 919.75 269.51 935.75 269.50 951.75 C 263.79 951.74 258.09 951.75 252.38 951.75 C 252.36 935.75 252.38 919.75 252.37 903.75 C 248.91 903.74 245.46 903.74 242.00 903.75 C 241.99 898.87 242.00 893.99 242.01 889.12 C 245.46 889.13 248.92 889.12 252.37 889.12 C 252.41 883.45 251.92 877.53 254.13 872.16 C 256.00 867.14 259.92 862.93 264.86 860.83 Z" />
<path fill="#646464" opacity="1.00" d=" M 142.75 861.63 C 148.75 861.62 154.75 861.62 160.75 861.63 C 160.74 891.67 160.75 921.71 160.75 951.75 C 154.75 951.75 148.75 951.75 142.75 951.75 C 142.74 921.71 142.75 891.67 142.75 861.63 Z" />
<path fill="#646464" opacity="1.00" d=" M 591.49 870.50 C 596.58 870.49 601.66 870.49 606.75 870.50 C 606.75 876.70 606.74 882.91 606.75 889.12 C 610.96 889.13 615.17 889.13 619.38 889.12 C 619.38 894.21 619.38 899.29 619.37 904.38 C 615.16 904.36 610.95 904.36 606.75 904.39 C 606.75 912.59 606.74 920.79 606.74 928.99 C 606.82 931.63 606.78 935.03 609.41 936.54 C 612.46 938.22 616.08 937.40 619.38 937.19 C 619.38 941.90 619.37 946.61 619.39 951.33 C 612.26 953.33 603.99 953.55 597.56 949.42 C 592.40 946.13 589.94 939.88 589.93 933.94 C 589.79 924.09 589.93 914.23 589.87 904.38 C 586.12 904.37 582.37 904.37 578.62 904.37 C 578.61 899.30 578.62 894.24 578.62 889.17 C 582.30 889.20 586.71 889.36 589.24 886.17 C 592.70 881.72 591.17 875.69 591.49 870.50 Z" />
<path fill="#646464" opacity="1.00" d=" M 313.45 887.65 C 323.54 886.10 334.50 888.98 341.86 896.25 C 354.42 908.32 354.89 930.39 343.27 943.25 C 332.17 955.83 311.20 957.20 298.17 946.87 C 284.46 936.33 282.14 914.84 291.79 900.86 C 296.69 893.62 304.83 888.85 313.45 887.65 M 315.22 903.19 C 303.89 905.48 300.29 919.83 304.76 929.28 C 308.13 937.35 318.86 940.63 326.36 936.32 C 334.72 931.75 336.36 920.23 332.96 912.03 C 330.25 905.22 322.26 901.40 315.22 903.19 Z" />
<path fill="#646464" opacity="1.00" d=" M 534.64 888.67 C 542.83 886.36 551.97 886.76 559.76 890.30 C 566.67 893.41 571.12 900.60 571.62 908.06 C 572.22 922.61 570.96 937.24 572.46 951.76 C 567.24 951.74 562.03 951.74 556.81 951.76 C 556.56 949.44 556.36 947.10 556.22 944.79 C 548.42 955.90 530.28 956.58 521.13 946.86 C 515.50 940.93 514.79 931.09 519.41 924.37 C 522.18 920.32 526.67 917.77 531.34 916.52 C 538.41 914.77 545.82 914.68 552.85 912.77 C 556.76 910.80 555.12 904.99 552.03 903.01 C 547.27 899.99 540.33 900.28 536.08 904.11 C 534.02 905.89 533.27 908.59 532.58 911.12 C 527.56 910.07 522.54 909.04 517.53 907.97 C 518.68 898.81 525.86 891.16 534.64 888.67 M 538.42 926.61 C 533.45 928.00 531.64 935.07 535.42 938.63 C 539.29 942.11 545.46 941.17 549.65 938.74 C 554.69 935.60 555.34 929.13 555.17 923.74 C 549.60 924.75 543.89 925.12 538.42 926.61 Z" />
<path fill="#646464" opacity="1.00" d=" M 686.42 887.66 C 696.49 886.10 707.43 888.93 714.83 896.13 C 727.53 908.21 728.02 930.48 716.25 943.36 C 704.93 956.06 683.55 957.20 670.61 946.35 C 658.42 936.42 655.77 917.67 662.95 904.02 C 667.53 895.19 676.59 889.02 686.42 887.66 M 687.36 903.45 C 676.21 906.51 673.32 921.22 678.45 930.42 C 682.49 938.20 693.56 940.60 700.64 935.58 C 708.04 930.50 709.24 919.83 706.04 912.00 C 703.19 904.88 694.59 901.12 687.36 903.45 Z" />
<path fill="#646464" opacity="1.00" d=" M 193.97 896.47 C 202.07 884.53 222.55 884.37 230.46 896.57 C 234.88 903.14 234.78 911.36 234.63 918.96 C 234.62 929.89 234.63 940.82 234.62 951.75 C 228.96 951.74 223.29 951.75 217.62 951.75 C 217.61 939.83 217.63 927.91 217.62 915.99 C 217.66 912.14 216.78 907.87 213.66 905.32 C 209.04 901.71 201.52 902.06 197.62 906.60 C 195.35 909.15 194.47 912.63 194.50 916.00 C 194.50 927.91 194.50 939.83 194.51 951.75 C 188.84 951.75 183.16 951.75 177.49 951.75 C 177.50 930.91 177.50 910.08 177.50 889.25 C 183.00 889.24 188.50 889.25 194.00 889.25 C 194.01 891.65 194.00 894.05 193.97 896.47 Z" />
<path fill="#646464" opacity="1.00" d=" M 426.31 896.32 C 434.68 884.32 456.06 884.06 463.13 897.53 C 470.89 884.84 491.38 883.85 500.68 895.22 C 505.41 901.01 505.81 908.84 505.63 916.00 C 505.61 927.91 505.64 939.83 505.62 951.75 C 500.12 951.75 494.62 951.74 489.13 951.75 C 489.13 939.83 489.13 927.91 489.13 916.00 C 489.14 912.24 488.60 907.99 485.57 905.39 C 480.87 901.48 472.86 902.15 469.17 907.14 C 467.17 909.63 466.56 912.90 466.61 916.03 C 466.64 927.93 466.62 939.84 466.62 951.75 C 460.95 951.74 455.29 951.75 449.62 951.75 C 449.57 938.83 449.72 925.92 449.56 913.01 C 449.52 907.85 445.36 903.11 440.10 902.96 C 433.61 901.90 427.25 907.29 427.19 913.84 C 427.02 926.47 427.18 939.11 427.12 951.75 C 421.41 951.75 415.71 951.74 410.00 951.75 C 409.99 930.92 410.00 910.08 410.00 889.25 C 415.46 889.25 420.92 889.25 426.39 889.25 C 426.38 891.60 426.37 893.96 426.31 896.32 Z" />
<path fill="#646464" opacity="1.00" d=" M 751.96 896.54 C 760.01 884.54 780.58 884.34 788.50 896.55 C 792.34 902.26 792.90 909.38 792.63 916.07 C 792.61 927.96 792.63 939.85 792.62 951.74 C 786.95 951.75 781.29 951.74 775.62 951.75 C 775.62 939.49 775.63 927.23 775.62 914.98 C 775.66 911.17 774.36 907.03 771.06 904.82 C 766.38 901.76 759.36 902.26 755.65 906.64 C 753.13 909.46 752.46 913.37 752.49 917.04 C 752.50 928.61 752.48 940.17 752.51 951.74 C 746.83 951.75 741.16 951.76 735.48 951.73 C 735.52 930.91 735.50 910.08 735.49 889.26 C 740.99 889.24 746.49 889.25 751.99 889.25 C 752.00 891.67 751.99 894.10 751.96 896.54 Z" />
<path fill="#646464" opacity="1.00" d=" M 362.37 889.13 C 367.91 889.13 373.46 889.12 379.01 889.13 C 379.01 892.05 379.00 894.97 378.95 897.91 C 383.01 890.15 392.51 887.74 400.63 888.88 C 400.63 894.58 400.62 900.28 400.63 905.99 C 395.71 905.29 390.29 905.21 385.97 908.03 C 381.32 910.97 379.55 916.75 379.50 921.99 C 379.47 931.91 379.52 941.84 379.49 951.76 C 373.79 951.73 368.08 951.75 362.38 951.75 C 362.36 930.87 362.38 910.00 362.37 889.13 Z" />
<path fill="#646464" opacity="1.00" d=" M 631.25 889.25 C 636.91 889.25 642.58 889.24 648.25 889.26 C 648.26 910.13 648.25 931.00 648.25 951.87 C 642.58 951.88 636.92 951.88 631.25 951.87 C 631.25 931.00 631.25 910.13 631.25 889.25 Z" />
<path fill="#646464" opacity="1.00" d=" M 142.75 988.62 C 150.50 988.61 158.25 988.62 166.00 988.62 C 175.07 1010.18 183.83 1031.87 193.04 1053.37 C 201.87 1031.81 210.60 1010.22 219.37 988.64 C 227.37 988.60 235.37 988.62 243.38 988.62 C 243.38 1018.71 243.39 1048.79 243.37 1078.88 C 237.58 1078.86 231.79 1078.86 226.01 1078.88 C 225.99 1057.90 226.01 1036.92 226.00 1015.95 C 217.53 1036.92 208.71 1057.75 200.34 1078.76 C 195.38 1078.97 190.41 1078.82 185.45 1078.88 C 176.85 1058.01 168.19 1037.17 159.60 1016.30 C 159.65 1037.16 159.61 1058.02 159.63 1078.88 C 154.00 1078.86 148.37 1078.87 142.75 1078.87 C 142.75 1048.79 142.75 1018.71 142.75 988.62 Z" />
<path fill="#646464" opacity="1.00" d=" M 860.13 997.62 C 865.25 997.62 870.37 997.63 875.50 997.61 C 875.50 1003.82 875.48 1010.03 875.51 1016.25 C 879.71 1016.24 883.91 1016.25 888.12 1016.25 C 888.12 1021.29 888.12 1026.33 888.12 1031.38 C 883.91 1031.37 879.70 1031.37 875.50 1031.39 C 875.67 1040.90 875.13 1050.46 875.76 1059.95 C 876.78 1065.67 883.85 1064.80 888.13 1064.20 C 888.12 1068.90 888.11 1073.61 888.14 1078.32 C 881.08 1080.42 872.88 1080.63 866.45 1076.62 C 861.20 1073.35 858.58 1067.05 858.62 1061.03 C 858.59 1051.15 858.63 1041.26 858.62 1031.38 C 854.87 1031.38 851.12 1031.37 847.38 1031.38 C 847.36 1026.35 847.37 1021.33 847.37 1016.31 C 851.10 1016.27 855.59 1016.36 858.08 1013.04 C 861.32 1008.59 859.76 1002.73 860.13 997.62 Z" />
<path fill="#646464" opacity="1.00" d=" M 554.36 1015.57 C 566.20 1012.18 580.84 1015.34 588.15 1025.85 C 593.49 1033.37 594.54 1043.02 593.78 1051.98 C 578.81 1052.05 563.84 1051.93 548.87 1052.05 C 549.42 1054.83 550.09 1057.72 551.91 1060.00 C 556.76 1066.55 566.86 1068.06 573.63 1063.71 C 576.24 1062.08 577.66 1059.27 579.03 1056.63 C 583.76 1058.02 588.50 1059.42 593.23 1060.85 C 590.97 1067.87 586.10 1074.12 579.42 1077.42 C 568.47 1082.84 554.44 1081.70 544.67 1074.29 C 533.71 1066.15 530.13 1050.95 533.34 1038.11 C 535.84 1027.64 543.97 1018.64 554.36 1015.57 M 558.06 1029.06 C 553.21 1030.74 550.06 1035.42 549.24 1040.35 C 558.62 1040.39 568.01 1040.38 577.41 1040.36 C 576.86 1037.61 576.25 1034.73 574.33 1032.59 C 570.43 1028.05 563.50 1027.16 558.06 1029.06 Z" />
<path fill="#646464" opacity="1.00" d=" M 734.04 1015.12 C 745.76 1012.46 759.80 1016.00 766.60 1026.52 C 771.54 1033.96 772.48 1043.27 771.76 1051.99 C 756.79 1052.03 741.82 1051.96 726.85 1052.02 C 727.38 1055.06 728.22 1058.19 730.34 1060.56 C 735.21 1066.49 744.49 1067.83 751.07 1064.06 C 753.94 1062.43 755.61 1059.49 757.02 1056.63 C 761.74 1058.03 766.47 1059.42 771.20 1060.84 C 768.88 1068.13 763.71 1074.54 756.70 1077.77 C 745.86 1082.75 732.23 1081.56 722.67 1074.31 C 711.93 1066.38 708.28 1051.61 711.12 1038.97 C 713.49 1027.57 722.60 1017.72 734.04 1015.12 M 730.23 1033.31 C 728.52 1035.29 727.89 1037.88 727.17 1040.33 C 736.56 1040.41 745.97 1040.37 755.37 1040.36 C 754.83 1036.94 753.71 1033.37 750.87 1031.18 C 744.88 1026.48 734.97 1027.12 730.23 1033.31 Z" />
<path fill="#646464" opacity="1.00" d=" M 270.33 1017.32 C 278.55 1013.43 288.32 1013.53 296.87 1016.26 C 304.62 1018.71 310.38 1025.93 311.18 1034.01 C 312.26 1048.93 310.50 1063.98 312.22 1078.87 C 306.97 1078.87 301.73 1078.87 296.49 1078.87 C 296.25 1076.48 296.06 1074.10 295.94 1071.73 C 288.25 1082.89 270.13 1083.60 260.94 1074.01 C 255.33 1068.23 254.49 1058.59 258.81 1051.84 C 261.76 1047.26 266.84 1044.47 272.05 1043.30 C 278.40 1041.97 284.89 1041.50 291.24 1040.22 C 293.29 1039.92 295.08 1038.06 294.85 1035.91 C 294.87 1032.60 292.36 1029.75 289.29 1028.80 C 284.67 1027.28 278.97 1027.86 275.45 1031.47 C 273.60 1033.25 273.00 1035.81 272.30 1038.20 C 267.27 1037.14 262.24 1036.08 257.21 1035.00 C 258.26 1027.36 263.38 1020.59 270.33 1017.32 M 279.91 1053.14 C 276.48 1053.62 273.24 1056.38 273.13 1060.01 C 272.71 1063.39 275.07 1066.76 278.39 1067.54 C 283.47 1068.66 289.66 1067.19 292.59 1062.58 C 294.86 1059.10 294.85 1054.80 294.93 1050.81 C 289.93 1051.61 284.89 1052.22 279.91 1053.14 Z" />
<path fill="#646464" opacity="1.00" d=" M 342.42 1023.67 C 350.54 1011.24 372.01 1011.42 379.48 1024.42 C 383.82 1031.50 383.13 1040.08 383.12 1048.04 C 383.12 1058.32 383.12 1068.59 383.12 1078.87 C 377.46 1078.87 371.79 1078.86 366.12 1078.88 C 366.13 1067.91 366.10 1056.94 366.14 1045.97 C 366.14 1041.96 366.29 1037.55 363.82 1034.14 C 359.58 1028.35 349.54 1028.57 345.47 1034.46 C 343.46 1037.20 342.91 1040.67 342.98 1044.01 C 343.02 1055.63 342.98 1067.25 343.01 1078.87 C 337.34 1078.87 331.67 1078.86 326.00 1078.88 C 325.99 1058.00 326.01 1037.13 326.00 1016.25 C 331.50 1016.25 337.01 1016.25 342.52 1016.25 C 342.51 1018.71 342.50 1021.19 342.42 1023.67 Z" />
<path fill="#646464" opacity="1.00" d=" M 413.49 1015.35 C 421.65 1013.54 430.66 1013.94 438.20 1017.81 C 444.60 1021.07 448.64 1027.95 449.13 1035.03 C 449.73 1049.63 448.42 1064.32 450.03 1078.88 C 444.80 1078.86 439.57 1078.88 434.35 1078.86 C 434.10 1076.45 433.91 1074.05 433.81 1071.66 C 425.83 1083.46 406.06 1083.68 397.50 1072.47 C 391.97 1065.29 392.93 1053.79 400.05 1048.01 C 406.99 1042.14 416.56 1042.49 425.02 1040.95 C 427.47 1040.42 430.73 1040.62 432.19 1038.16 C 433.73 1034.60 431.31 1030.31 427.79 1029.05 C 422.88 1027.13 416.51 1027.75 412.89 1031.89 C 411.28 1033.61 410.74 1035.97 410.11 1038.18 C 405.10 1037.15 400.10 1036.06 395.09 1035.01 C 396.27 1025.36 404.17 1017.51 413.49 1015.35 M 415.67 1053.75 C 410.18 1055.47 409.26 1063.93 414.30 1066.72 C 420.33 1069.70 429.14 1067.04 431.51 1060.43 C 432.78 1057.39 432.61 1054.05 432.63 1050.84 C 426.99 1051.87 421.18 1052.14 415.67 1053.75 Z" />
<path fill="#646464" opacity="1.00" d=" M 468.17 1023.12 C 475.64 1015.60 487.48 1013.17 497.44 1016.55 C 500.99 1017.72 503.93 1020.20 506.05 1023.25 C 505.99 1020.90 505.99 1018.57 506.00 1016.25 C 511.46 1016.26 516.92 1016.23 522.39 1016.26 C 522.37 1034.52 522.39 1052.79 522.38 1071.05 C 522.41 1078.55 520.94 1086.33 516.58 1092.58 C 512.56 1098.54 506.00 1102.48 499.02 1103.92 C 488.76 1106.10 477.21 1104.87 468.76 1098.26 C 463.58 1094.39 460.16 1088.51 458.96 1082.20 C 464.07 1080.79 469.20 1079.47 474.32 1078.10 C 475.41 1083.38 479.28 1088.10 484.67 1089.31 C 490.79 1090.65 498.38 1089.69 502.40 1084.38 C 505.85 1079.79 505.56 1073.76 505.72 1068.34 C 502.89 1071.82 498.99 1074.37 494.59 1075.34 C 484.79 1077.57 473.81 1074.53 466.99 1067.03 C 455.97 1055.07 456.53 1034.47 468.17 1023.12 M 488.18 1030.22 C 477.05 1031.92 473.02 1046.46 478.83 1055.13 C 483.63 1062.81 495.98 1063.62 501.92 1056.89 C 506.26 1051.98 506.90 1044.47 504.44 1038.54 C 501.91 1032.31 494.68 1028.83 488.18 1030.22 Z" />
<path fill="#646464" opacity="1.00" d=" M 620.95 1023.51 C 629.19 1011.35 650.75 1011.07 657.88 1024.52 C 665.82 1011.60 687.08 1010.88 696.00 1023.00 C 700.46 1029.03 700.50 1036.85 700.38 1044.02 C 700.37 1055.64 700.37 1067.25 700.38 1078.87 C 694.83 1078.87 689.29 1078.87 683.75 1078.87 C 683.72 1066.22 683.79 1053.58 683.73 1040.94 C 683.72 1037.17 682.13 1033.09 678.64 1031.27 C 673.94 1028.87 667.42 1029.67 664.06 1033.95 C 661.73 1036.74 661.18 1040.47 661.25 1043.99 C 661.25 1055.62 661.25 1067.24 661.25 1078.87 C 655.62 1078.86 649.99 1078.87 644.37 1078.87 C 644.32 1065.92 644.49 1052.95 644.30 1040.00 C 644.26 1034.57 639.61 1029.77 634.10 1029.98 C 627.76 1029.28 621.91 1034.69 621.86 1041.01 C 621.59 1053.62 621.82 1066.25 621.76 1078.87 C 616.09 1078.87 610.42 1078.87 604.75 1078.87 C 604.74 1058.00 604.75 1037.12 604.75 1016.25 C 610.16 1016.24 615.58 1016.25 621.00 1016.25 C 621.00 1018.66 620.99 1021.08 620.95 1023.51 Z" />
<path fill="#646464" opacity="1.00" d=" M 799.18 1023.69 C 807.09 1011.65 827.52 1011.34 835.58 1023.34 C 839.55 1029.04 840.14 1036.23 839.89 1042.97 C 839.86 1054.94 839.89 1066.90 839.87 1078.87 C 834.20 1078.87 828.54 1078.86 822.87 1078.87 C 822.86 1066.57 822.90 1054.28 822.86 1041.98 C 822.88 1038.14 821.54 1033.93 818.17 1031.77 C 814.42 1029.41 809.31 1029.32 805.47 1031.51 C 801.52 1033.82 799.70 1038.56 799.76 1042.98 C 799.72 1054.94 799.76 1066.91 799.75 1078.87 C 794.08 1078.87 788.41 1078.86 782.75 1078.87 C 782.75 1058.00 782.75 1037.13 782.75 1016.26 C 788.25 1016.25 793.76 1016.24 799.26 1016.25 C 799.25 1018.72 799.24 1021.20 799.18 1023.69 Z" />
<path fill="#646464" opacity="1.00" d=" M 145.12 1126.10 C 155.11 1112.84 174.96 1110.52 189.22 1117.78 C 196.76 1121.59 201.85 1129.12 203.61 1137.28 C 198.33 1138.89 193.06 1140.51 187.78 1142.12 C 186.61 1137.90 184.35 1133.74 180.36 1131.61 C 174.04 1128.17 165.10 1128.51 160.00 1133.99 C 156.81 1137.35 156.27 1143.04 159.26 1146.71 C 161.55 1149.60 165.31 1150.60 168.78 1151.21 C 176.91 1152.87 185.58 1153.61 192.70 1158.26 C 199.83 1162.59 204.67 1170.57 204.76 1178.97 C 205.15 1187.31 201.06 1195.55 194.52 1200.67 C 187.67 1206.14 178.62 1208.15 169.98 1207.73 C 161.16 1207.43 152.12 1204.58 145.66 1198.36 C 140.37 1193.45 137.16 1186.61 136.19 1179.51 C 141.64 1178.01 147.11 1176.58 152.56 1175.10 C 153.23 1179.21 154.56 1183.42 157.60 1186.43 C 163.03 1192.01 171.81 1193.16 179.03 1191.01 C 183.42 1189.76 187.02 1185.66 186.86 1180.97 C 186.92 1176.29 183.08 1172.59 178.87 1171.25 C 171.90 1169.13 164.51 1168.68 157.61 1166.28 C 151.20 1164.02 145.32 1159.62 142.27 1153.43 C 138.00 1144.74 139.21 1133.74 145.12 1126.10 Z" />
<path fill="#646464" opacity="1.00" d=" M 282.75 1113.75 C 288.42 1113.74 294.08 1113.74 299.75 1113.75 C 299.73 1125.22 299.79 1136.70 299.71 1148.17 C 309.06 1138.89 326.93 1139.13 335.09 1149.86 C 338.48 1154.46 339.92 1160.26 339.88 1165.93 C 339.87 1179.24 339.88 1192.56 339.88 1205.88 C 334.21 1205.87 328.54 1205.88 322.88 1205.87 C 322.86 1193.55 322.90 1181.23 322.87 1168.91 C 322.93 1164.85 321.28 1160.41 317.55 1158.41 C 313.07 1156.06 306.91 1156.47 303.32 1160.24 C 300.57 1163.05 299.69 1167.13 299.74 1170.96 C 299.75 1182.60 299.75 1194.23 299.75 1205.87 C 294.08 1205.88 288.42 1205.87 282.75 1205.87 C 282.75 1175.16 282.74 1144.46 282.75 1113.75 Z" />
<path fill="#646464" opacity="1.00" d=" M 498.13 1113.75 C 503.79 1113.75 509.46 1113.74 515.12 1113.75 C 515.12 1144.46 515.12 1175.16 515.12 1205.87 C 509.46 1205.88 503.79 1205.87 498.13 1205.88 C 498.12 1175.16 498.12 1144.46 498.13 1113.75 Z" />
<path fill="#646464" opacity="1.00" d=" M 222.46 1148.45 C 232.32 1140.38 246.93 1139.20 258.27 1144.75 C 265.35 1148.24 270.48 1154.96 272.60 1162.50 C 267.53 1164.24 262.45 1165.92 257.38 1167.67 C 256.11 1164.51 254.50 1161.28 251.54 1159.39 C 244.55 1154.79 233.87 1157.30 229.97 1164.81 C 226.05 1172.27 226.84 1182.75 233.39 1188.51 C 239.11 1193.42 248.66 1193.47 254.08 1188.07 C 255.94 1186.29 256.96 1183.89 258.02 1181.61 C 263.03 1183.24 268.00 1184.98 272.99 1186.66 C 270.96 1193.25 266.82 1199.24 260.95 1202.95 C 247.17 1211.75 226.86 1208.27 217.16 1194.95 C 206.75 1181.21 208.84 1159.33 222.46 1148.45 Z" />
<path fill="#646464" opacity="1.00" d=" M 377.48 1141.71 C 387.51 1140.23 398.36 1143.09 405.70 1150.27 C 418.44 1162.46 418.83 1184.95 406.76 1197.74 C 395.22 1210.26 373.75 1211.12 360.97 1200.02 C 347.77 1188.83 346.23 1167.18 356.63 1153.65 C 361.62 1147.08 369.34 1142.83 377.48 1141.71 M 377.50 1157.69 C 366.31 1161.46 363.97 1176.93 370.14 1185.90 C 374.86 1192.91 385.57 1194.31 392.14 1189.15 C 399.10 1183.68 400.05 1173.11 396.54 1165.44 C 393.40 1158.42 384.62 1155.11 377.50 1157.69 Z" />
<path fill="#646464" opacity="1.00" d=" M 449.46 1141.68 C 459.50 1140.27 470.32 1143.17 477.61 1150.39 C 490.35 1162.77 490.54 1185.48 478.14 1198.16 C 466.39 1210.40 445.01 1211.00 432.41 1199.73 C 419.31 1188.27 418.02 1166.36 428.91 1152.99 C 433.96 1146.74 441.53 1142.72 449.46 1141.68 M 449.46 1157.63 C 435.75 1162.03 434.83 1184.28 447.37 1190.61 C 454.32 1194.25 463.92 1191.75 467.75 1184.78 C 471.27 1178.37 471.17 1169.92 467.32 1163.68 C 463.68 1157.83 455.89 1155.44 449.46 1157.63 Z" />
</g>
</svg>
