<?xml version="1.0" encoding="UTF-8" ?>
<!DOCTYPE svg PUBLIC "-//W3C//DTD SVG 1.1//EN" "http://www.w3.org/Graphics/SVG/1.1/DTD/svg11.dtd">
<svg width="2085pt" height="461pt" viewBox="0 0 2085 461" version="1.1" xmlns="http://www.w3.org/2000/svg">
<g id="#ffffffff">
<path fill="#ffffff" opacity="1.00" d=" M 137.17 111.75 C 145.10 110.72 152.98 107.47 161.06 108.99 C 168.02 110.03 175.10 109.74 182.08 110.55 C 189.44 111.50 195.85 115.49 202.35 118.76 C 207.45 121.37 212.70 124.61 215.17 130.05 C 216.26 132.71 218.93 135.42 217.53 138.45 C 216.81 140.83 214.06 141.17 212.18 142.26 C 207.45 144.85 202.83 147.70 197.74 149.56 C 192.08 151.56 186.02 151.57 180.17 152.68 C 176.04 153.50 171.51 152.49 168.32 149.68 C 163.28 145.44 157.58 141.47 154.65 135.36 C 152.91 132.01 149.19 128.09 152.52 124.47 C 158.68 125.40 163.79 119.88 170.08 121.13 C 177.45 122.95 184.88 124.73 192.02 127.37 C 194.86 131.10 191.74 135.39 188.59 137.65 C 184.77 140.64 179.89 143.43 174.89 141.88 C 170.10 140.80 168.14 135.84 165.67 132.17 C 164.42 129.48 161.17 129.14 158.59 128.77 C 159.44 131.17 160.01 133.66 160.78 136.09 C 164.09 138.82 167.84 141.04 171.33 143.57 C 171.36 143.59 171.43 143.64 171.47 143.66 C 174.51 145.40 177.99 147.05 181.59 146.35 C 185.92 145.49 189.95 143.62 194.05 142.04 C 198.89 140.38 204.00 139.58 208.76 137.70 C 209.79 136.58 210.40 134.22 208.84 133.28 C 204.77 130.69 201.89 126.58 197.56 124.36 C 192.11 121.51 186.58 118.54 180.51 117.28 C 172.40 116.01 164.17 116.79 156.01 116.38 C 148.23 116.65 141.29 120.75 133.72 122.16 C 133.32 118.30 135.68 115.09 137.17 111.75 Z" />
<path fill="#ffffff" opacity="1.00" d=" M 289.11 270.65 L 289.33 270.75 L 289.52 270.91 C 289.42 270.85 289.21 270.71 289.11 270.65 Z" />
</g>
<g id="#263997ff">
<path fill="#263997" opacity="1.00" d=" M 674.25 10.49 C 695.40 10.52 716.56 10.54 737.71 10.49 C 737.85 39.34 737.73 68.19 737.77 97.05 C 737.69 109.36 738.14 121.79 736.13 133.99 C 734.08 146.88 727.70 159.22 717.55 167.57 C 712.49 172.12 706.53 175.44 700.55 178.58 L 700.36 179.09 L 700.02 179.64 C 700.10 181.06 698.83 180.30 698.09 180.00 C 697.71 180.07 696.94 180.22 696.55 180.30 C 673.68 189.59 648.58 191.72 624.10 191.21 C 604.59 190.43 584.83 187.77 566.67 180.28 C 566.68 180.70 566.71 181.54 566.72 181.96 C 566.64 181.54 566.47 180.72 566.38 180.30 C 557.22 176.16 548.40 170.92 541.46 163.53 C 535.39 157.25 530.99 149.41 528.70 140.99 C 526.01 131.56 525.70 121.69 525.51 111.96 C 525.51 78.15 525.55 44.33 525.50 10.52 C 546.68 10.53 567.86 10.47 589.05 10.54 C 589.02 40.70 589.03 70.86 589.03 101.03 C 588.91 112.77 588.94 125.37 595.20 135.75 C 600.86 144.99 611.69 149.34 622.07 150.43 C 633.96 151.55 646.66 151.25 657.47 145.58 C 664.04 142.22 668.90 136.01 671.17 129.05 C 674.23 120.40 674.33 111.09 674.22 102.03 C 674.25 71.51 674.18 41.00 674.25 10.49 Z" />
<path fill="#263997" opacity="1.00" d=" M 409.80 11.69 C 410.60 11.73 412.22 11.83 413.02 11.88 C 430.28 13.54 447.51 15.45 464.77 17.04 C 464.75 58.69 464.18 100.33 464.25 141.99 C 463.58 157.32 464.59 172.65 464.77 187.99 C 465.30 211.69 465.85 235.39 466.38 259.09 C 466.89 296.45 469.66 333.74 471.32 371.06 C 471.42 376.32 472.40 381.61 471.48 386.85 C 469.06 405.38 466.61 423.91 464.22 442.44 C 443.17 444.01 422.12 445.39 401.07 446.92 C 397.92 447.07 394.78 446.72 391.65 446.52 C 394.96 446.58 398.26 446.59 401.57 446.60 C 401.57 445.71 401.55 443.93 401.54 443.04 C 399.21 438.69 400.47 433.65 400.39 428.96 C 400.45 421.64 400.66 414.34 401.55 407.07 C 401.31 397.35 402.70 387.70 402.49 377.98 C 403.99 367.88 403.21 357.63 404.13 347.48 C 404.46 343.67 404.57 339.85 404.52 336.03 C 404.37 330.31 405.82 324.69 405.50 318.97 C 405.72 312.66 405.61 306.32 406.09 300.03 C 407.94 292.83 410.78 285.86 411.91 278.48 C 408.83 278.67 405.73 278.83 402.65 278.97 C 402.77 277.68 402.90 276.40 403.03 275.11 L 401.68 276.88 C 401.18 275.62 400.69 274.37 400.20 273.12 C 400.87 275.28 401.94 277.47 401.33 279.79 C 395.31 278.35 389.11 278.82 382.99 278.84 C 373.36 279.10 363.71 278.43 354.11 279.41 C 347.07 279.77 340.02 279.49 332.98 279.68 C 329.04 279.65 324.87 280.23 321.23 278.37 C 327.70 285.36 335.61 290.82 342.24 297.61 C 342.17 310.06 342.28 322.53 342.25 334.98 C 342.27 339.00 341.02 343.14 342.53 347.04 C 345.17 358.99 347.46 371.06 350.33 382.95 C 350.48 397.94 350.31 412.94 350.29 427.94 C 350.19 433.43 351.22 439.33 348.11 444.25 C 297.74 441.93 247.38 439.27 197.01 437.08 C 138.86 439.44 80.70 441.91 22.56 444.54 C 21.32 423.00 19.87 401.47 18.57 379.93 C 18.29 376.32 18.14 372.70 18.30 369.08 C 20.94 316.07 23.74 263.08 26.26 210.07 C 25.09 172.71 23.78 135.36 22.53 98.01 C 22.44 71.63 22.29 45.26 21.97 18.89 C 83.00 20.04 144.03 20.67 205.06 21.78 C 220.00 21.21 234.91 19.89 249.85 19.28 C 234.78 25.67 219.69 32.01 204.62 38.40 C 214.91 47.42 225.26 56.38 235.55 65.40 C 238.35 67.97 242.07 70.04 243.20 73.92 C 251.57 97.84 259.97 121.75 268.25 145.69 C 269.40 148.93 272.08 151.22 273.77 154.14 C 275.49 157.10 276.70 160.42 279.12 162.93 C 282.70 166.70 286.07 170.67 289.92 174.18 C 291.57 173.65 293.24 173.13 294.90 172.61 C 299.50 174.99 303.79 178.02 308.60 179.97 C 315.66 180.83 322.82 180.42 329.92 180.85 C 335.52 181.41 340.84 179.34 346.26 178.34 C 357.33 176.42 367.59 171.68 378.22 168.26 C 382.26 166.54 386.77 165.90 390.57 163.68 C 397.10 157.80 402.03 150.20 409.38 145.22 C 415.57 140.42 421.84 135.71 428.00 130.88 C 431.55 115.27 434.65 99.57 438.11 83.94 C 439.17 80.47 437.49 77.10 436.46 73.85 C 432.25 61.85 428.45 49.72 424.12 37.77 C 419.66 28.91 414.41 20.47 409.80 11.69 M 137.17 111.75 C 135.68 115.09 133.32 118.30 133.72 122.16 C 141.29 120.75 148.23 116.65 156.01 116.38 C 164.17 116.79 172.40 116.01 180.51 117.28 C 186.58 118.54 192.11 121.51 197.56 124.36 C 201.89 126.58 204.77 130.69 208.84 133.28 C 210.40 134.22 209.79 136.58 208.76 137.70 C 204.00 139.58 198.89 140.38 194.05 142.04 C 189.95 143.62 185.92 145.49 181.59 146.35 C 177.99 147.05 174.51 145.40 171.47 143.66 C 171.43 143.64 171.36 143.59 171.33 143.57 C 167.84 141.04 164.09 138.82 160.78 136.09 C 160.01 133.66 159.44 131.17 158.59 128.77 C 161.17 129.14 164.42 129.48 165.67 132.17 C 168.14 135.84 170.10 140.80 174.89 141.88 C 179.89 143.43 184.77 140.64 188.59 137.65 C 191.74 135.39 194.86 131.10 192.02 127.37 C 184.88 124.73 177.45 122.95 170.08 121.13 C 163.79 119.88 158.68 125.40 152.52 124.47 C 149.19 128.09 152.91 132.01 154.65 135.36 C 157.58 141.47 163.28 145.44 168.32 149.68 C 171.51 152.49 176.04 153.50 180.17 152.68 C 186.02 151.57 192.08 151.56 197.74 149.56 C 202.83 147.70 207.45 144.85 212.18 142.26 C 214.06 141.17 216.81 140.83 217.53 138.45 C 218.93 135.42 216.26 132.71 215.17 130.05 C 212.70 124.61 207.45 121.37 202.35 118.76 C 195.85 115.49 189.44 111.50 182.08 110.55 C 175.10 109.74 168.02 110.03 161.06 108.99 C 152.98 107.47 145.10 110.72 137.17 111.75 M 134.58 146.35 C 134.75 152.85 132.42 159.01 131.52 165.38 C 129.54 172.86 128.81 180.58 127.00 188.10 C 126.06 191.38 126.27 194.83 125.46 198.12 C 123.06 206.21 122.18 214.64 120.27 222.84 C 119.80 227.98 117.80 232.82 117.37 237.97 C 116.55 245.06 113.98 251.82 113.56 258.95 C 111.69 266.82 110.61 274.85 109.28 282.83 C 109.02 281.93 108.76 281.04 108.52 280.15 C 108.87 285.51 107.55 290.71 106.38 295.88 C 106.01 305.13 107.11 314.42 106.51 323.67 C 104.98 325.96 102.62 327.57 100.72 329.55 C 98.55 331.50 97.17 334.19 94.83 335.97 C 90.60 339.08 87.98 344.14 83.12 346.43 C 76.94 345.59 70.68 345.16 64.65 343.40 C 59.48 338.38 53.08 334.82 47.51 330.26 C 47.81 335.56 47.87 341.01 50.01 345.96 C 50.06 351.82 52.18 357.35 52.64 363.17 C 53.49 363.74 54.36 364.31 55.22 364.89 C 55.26 365.48 55.34 366.66 55.38 367.25 C 64.07 374.63 72.77 382.00 81.07 389.80 C 82.81 391.43 85.35 392.50 87.68 391.45 C 92.20 389.56 97.04 388.74 101.87 388.08 C 110.45 384.97 119.52 383.56 128.27 381.06 C 129.88 380.50 131.57 380.37 133.25 380.42 C 135.72 377.05 137.51 373.28 139.42 369.59 C 143.58 363.37 145.67 356.09 149.40 349.63 C 151.42 345.06 154.13 340.82 156.17 336.27 C 157.46 327.98 159.37 319.80 160.35 311.47 C 162.17 306.62 161.11 301.33 162.67 296.44 C 163.95 292.04 164.13 287.45 164.77 282.95 C 165.92 276.31 167.56 269.76 168.08 263.03 C 170.06 257.27 175.20 253.51 179.02 249.02 C 181.65 246.54 183.51 243.36 186.30 241.05 C 186.33 239.66 186.16 238.23 186.71 236.92 C 193.17 219.12 199.24 201.19 205.52 183.33 C 206.60 179.08 209.28 175.16 208.52 170.59 C 194.44 168.44 180.42 165.89 166.35 163.71 C 162.05 162.03 156.69 163.33 153.26 159.69 C 147.49 155.67 142.29 150.94 136.97 146.37 C 136.38 146.36 135.18 146.35 134.58 146.35 M 380.18 234.75 C 376.95 231.74 373.92 228.54 370.91 225.31 C 367.10 228.41 363.41 231.67 359.78 234.98 C 358.77 235.85 357.44 237.25 356.02 236.15 C 350.27 233.79 344.25 232.10 338.63 229.44 C 336.59 232.55 334.55 235.67 332.58 238.83 C 331.34 238.70 330.03 238.72 329.00 237.94 C 323.22 234.58 317.70 230.70 311.64 227.87 C 310.48 232.85 309.64 237.88 308.76 242.92 C 304.82 242.74 301.43 240.31 297.58 239.95 L 297.51 239.15 L 296.65 238.80 C 296.48 239.14 296.15 239.81 295.98 240.15 C 293.15 242.18 292.60 247.03 289.05 247.83 C 283.19 246.85 277.57 244.63 271.71 243.55 C 273.06 247.59 273.94 251.83 275.96 255.62 C 275.41 255.73 274.29 255.97 273.74 256.09 C 273.36 254.61 272.46 254.32 271.02 255.20 L 270.52 254.53 C 268.18 253.96 265.84 253.39 263.48 252.97 C 264.46 253.83 265.46 254.66 266.50 255.47 C 266.53 255.49 266.59 255.53 266.62 255.54 L 268.38 256.42 C 268.48 256.48 268.67 256.61 268.77 256.67 C 269.40 257.16 270.67 258.15 271.30 258.64 C 271.35 258.68 271.45 258.74 271.50 258.78 C 277.50 262.53 282.95 267.16 289.11 270.65 C 289.21 270.71 289.42 270.85 289.52 270.91 C 291.00 272.22 292.58 273.42 294.22 274.54 C 309.52 262.13 327.18 251.63 346.99 248.87 C 365.20 246.35 383.71 247.03 401.87 249.63 C 401.52 242.73 401.70 235.79 400.72 228.94 C 400.28 222.04 400.37 215.11 399.69 208.22 C 393.02 216.94 386.97 226.12 380.18 234.75 Z" />
<path fill="#263997" opacity="1.00" d=" M 274.21 17.63 C 299.49 15.97 324.78 14.45 350.06 12.83 C 353.48 12.56 356.93 12.60 360.33 13.17 C 360.45 16.62 361.64 19.87 362.70 23.12 C 369.19 44.08 375.46 65.11 381.97 86.07 C 384.94 94.42 383.03 103.38 382.37 111.96 C 381.94 114.76 382.31 117.97 380.31 120.25 C 377.55 123.87 374.74 127.47 371.96 131.08 C 369.71 134.19 365.67 134.83 362.42 136.42 C 352.45 141.14 341.70 143.77 331.31 147.34 C 322.41 135.71 313.61 124.00 304.49 112.55 C 303.21 110.88 301.96 109.10 301.66 106.97 C 300.14 98.96 298.75 90.92 297.16 82.92 C 294.11 71.55 285.60 62.07 284.50 50.11 C 282.70 39.29 280.99 28.45 279.04 17.65 C 277.43 17.70 275.82 17.65 274.21 17.63 Z" />
<path fill="#263997" opacity="1.00" d=" M 1462.38 45.34 C 1471.73 37.75 1484.40 34.86 1496.22 36.63 C 1503.41 37.79 1510.17 40.62 1517.02 42.99 C 1520.32 44.20 1524.70 43.69 1526.76 40.53 C 1527.46 39.10 1527.87 37.54 1528.37 36.01 C 1529.99 36.01 1531.62 36.02 1533.29 36.02 C 1534.58 51.88 1536.44 67.70 1538.06 83.53 C 1536.11 83.51 1534.18 83.51 1532.26 83.51 C 1529.03 68.71 1519.85 54.28 1505.47 48.29 C 1497.10 44.87 1487.00 43.99 1478.91 48.61 C 1472.71 51.94 1468.69 58.89 1469.01 65.94 C 1468.79 72.01 1471.96 77.60 1475.89 82.00 C 1482.33 88.89 1490.63 93.60 1498.65 98.38 C 1512.07 106.44 1526.63 113.99 1535.99 126.99 C 1541.90 135.01 1543.88 145.45 1542.33 155.19 C 1540.43 166.41 1533.24 176.55 1523.38 182.19 C 1514.89 187.31 1504.81 189.17 1495.00 189.07 C 1486.04 188.93 1477.37 186.33 1469.05 183.20 C 1465.70 182.15 1461.83 180.42 1458.49 182.38 C 1456.11 183.69 1455.28 186.33 1454.77 188.79 C 1453.11 188.77 1451.47 188.76 1449.85 188.74 C 1447.81 173.03 1445.27 157.40 1443.35 141.68 C 1445.09 141.72 1446.84 141.75 1448.61 141.76 C 1452.61 151.58 1457.43 161.39 1465.10 168.88 C 1474.73 178.83 1489.71 183.12 1503.13 179.60 L 1503.45 180.85 C 1503.41 180.47 1503.32 179.69 1503.27 179.31 C 1511.96 176.87 1518.75 168.93 1519.95 160.00 C 1520.76 154.27 1520.19 148.06 1517.07 143.06 C 1513.06 136.18 1506.24 131.69 1499.90 127.18 C 1486.63 117.69 1470.88 111.56 1459.45 99.62 C 1445.31 85.00 1446.45 58.24 1462.38 45.34 Z" />
<path fill="#263997" opacity="1.00" d=" M 1821.84 36.58 C 1823.39 36.53 1824.96 36.49 1826.56 36.45 C 1843.94 76.03 1861.26 115.63 1878.63 155.22 C 1882.16 162.57 1884.53 170.72 1889.98 176.98 C 1892.82 180.28 1897.35 181.15 1901.49 181.49 C 1901.46 182.98 1901.44 184.48 1901.46 185.98 C 1882.62 186.07 1863.78 185.97 1844.94 186.03 C 1844.94 184.52 1844.97 183.01 1845.03 181.51 C 1849.56 181.32 1854.85 181.83 1858.52 178.59 C 1861.80 175.09 1860.14 170.06 1858.83 166.07 C 1856.29 159.17 1853.20 152.49 1850.38 145.71 C 1847.88 143.88 1848.82 140.72 1847.31 138.30 C 1828.01 138.15 1808.72 138.37 1789.43 138.17 C 1786.07 146.87 1782.61 155.54 1779.18 164.21 C 1777.73 168.29 1776.41 173.14 1778.82 177.12 C 1781.94 181.32 1787.73 181.33 1792.47 181.52 C 1792.48 182.96 1792.52 184.40 1792.58 185.85 C 1777.88 186.21 1763.16 185.96 1748.45 185.97 C 1748.45 184.49 1748.47 183.02 1748.52 181.55 C 1754.53 181.50 1759.89 177.87 1762.69 172.64 C 1772.00 156.46 1778.32 138.81 1785.85 121.78 C 1797.81 93.36 1809.95 65.02 1821.84 36.58 M 1793.41 128.78 C 1810.25 128.70 1827.11 128.74 1843.96 128.77 C 1835.40 108.78 1827.08 88.70 1818.54 68.71 C 1810.01 88.67 1801.66 108.71 1793.41 128.78 Z" />
<path fill="#263997" opacity="1.00" d=" M 761.04 39.21 C 773.03 39.24 785.02 39.25 797.01 39.23 C 800.07 38.74 801.18 42.20 802.91 44.03 C 829.87 78.01 857.00 111.87 883.96 145.86 C 883.98 122.25 883.97 98.64 883.97 75.04 C 884.03 68.87 883.96 62.64 882.68 56.58 C 881.81 52.92 880.23 49.07 876.96 46.95 C 872.73 44.25 867.53 44.10 862.70 43.73 C 862.72 42.22 862.74 40.71 862.78 39.21 C 880.18 39.28 897.58 39.27 914.97 39.19 C 915.00 40.69 915.03 42.19 915.08 43.69 C 909.50 44.40 903.16 44.68 898.95 48.92 C 894.67 54.26 894.38 61.48 894.06 68.02 C 893.99 108.08 894.07 148.14 894.03 188.20 C 892.63 188.23 891.24 188.26 889.87 188.30 C 857.46 147.89 825.06 107.47 792.57 67.12 C 792.44 97.40 792.53 127.69 792.53 157.97 C 792.90 164.48 793.13 171.99 798.04 176.91 C 802.00 180.92 807.98 181.00 813.21 181.63 C 813.22 183.09 813.25 184.55 813.29 186.02 C 795.82 185.97 778.35 186.10 760.88 185.97 C 760.94 184.46 761.03 182.95 761.14 181.45 C 767.36 180.92 775.02 180.61 778.79 174.75 C 782.19 169.17 782.08 162.32 782.45 156.00 C 782.57 122.63 782.40 89.27 782.52 55.91 C 779.35 52.25 776.28 48.30 772.05 45.81 C 768.69 43.92 764.73 43.63 760.96 43.74 C 760.96 42.23 760.99 40.72 761.04 39.21 Z" />
<path fill="#263997" opacity="1.00" d=" M 921.97 39.22 C 943.98 39.24 966.00 39.27 988.01 39.22 C 988.00 40.71 987.99 42.21 988.00 43.70 C 983.41 43.88 978.75 44.08 974.34 45.44 C 971.11 46.49 968.61 49.22 967.59 52.41 C 966.01 57.81 966.21 63.49 966.24 69.04 C 966.25 98.37 966.24 127.69 966.25 157.01 C 966.22 162.04 966.06 167.17 967.43 172.07 C 968.25 175.02 970.11 177.79 972.97 179.09 C 977.62 181.28 982.91 181.16 987.94 181.46 C 987.98 182.98 988.02 184.50 988.08 186.03 C 966.02 186.03 943.97 185.99 921.91 186.05 C 921.94 184.53 921.99 183.02 922.05 181.51 C 927.95 181.02 934.72 181.53 939.54 177.43 C 943.36 173.68 943.31 167.91 943.49 162.94 C 943.50 132.30 943.50 101.65 943.49 71.01 C 943.43 65.38 943.77 59.69 942.80 54.11 C 942.21 51.03 940.59 47.88 937.66 46.47 C 932.80 44.15 927.28 43.99 922.01 43.69 C 921.98 42.20 921.97 40.71 921.97 39.22 Z" />
<path fill="#263997" opacity="1.00" d=" M 995.25 39.26 C 1014.92 39.28 1034.59 39.15 1054.27 39.30 C 1054.27 40.74 1054.29 42.19 1054.33 43.63 C 1049.00 44.49 1041.44 42.87 1038.20 48.31 C 1036.63 53.35 1039.62 58.23 1041.31 62.84 C 1052.91 89.42 1064.95 115.81 1076.69 142.33 C 1077.70 144.72 1078.61 147.20 1080.23 149.27 C 1090.46 123.78 1100.64 98.28 1110.83 72.77 C 1113.32 65.72 1117.36 58.54 1116.31 50.84 C 1114.47 44.08 1106.16 43.97 1100.49 43.68 C 1100.48 42.20 1100.47 40.73 1100.49 39.25 C 1115.62 39.21 1130.76 39.27 1145.90 39.20 C 1145.93 40.68 1145.98 42.15 1146.05 43.63 C 1142.46 44.00 1138.61 44.43 1135.71 46.77 C 1131.71 50.01 1129.76 54.94 1127.67 59.49 C 1122.99 71.21 1118.17 82.90 1113.81 94.73 C 1114.00 95.00 1114.37 95.52 1114.56 95.79 C 1114.25 95.63 1113.61 95.32 1113.30 95.16 C 1101.50 126.32 1088.75 157.12 1076.74 188.20 C 1075.47 188.20 1074.22 188.19 1072.97 188.19 C 1056.12 150.60 1039.26 113.02 1022.45 75.42 C 1018.86 67.76 1015.80 59.81 1011.25 52.65 C 1008.03 46.90 1001.82 43.43 995.25 43.58 C 995.23 42.14 995.23 40.70 995.25 39.26 Z" />
<path fill="#263997" opacity="1.00" d=" M 1154.02 39.27 C 1193.27 39.16 1232.52 39.29 1271.78 39.23 C 1271.72 49.84 1272.42 60.45 1272.23 71.07 C 1270.42 70.81 1268.07 71.58 1266.61 70.60 C 1265.27 65.06 1264.37 58.98 1260.40 54.60 C 1256.37 49.94 1249.91 48.75 1244.07 48.28 C 1232.05 47.48 1220.01 47.87 1207.97 47.74 C 1204.32 47.76 1200.53 47.56 1197.12 49.06 C 1196.57 51.01 1196.00 52.99 1196.04 55.04 C 1196.02 71.44 1196.01 87.85 1196.05 104.25 C 1208.35 104.23 1220.66 104.29 1232.97 104.24 C 1238.16 103.95 1243.92 103.53 1248.09 100.04 C 1252.63 95.67 1252.99 88.99 1254.29 83.18 C 1256.03 83.23 1257.78 83.28 1259.55 83.33 C 1259.45 100.42 1259.42 117.53 1259.57 134.62 C 1257.78 134.70 1256.01 134.76 1254.26 134.84 C 1252.97 127.98 1252.09 119.12 1244.89 115.85 C 1236.27 112.80 1226.93 114.09 1217.97 113.71 C 1210.68 113.28 1203.38 113.71 1196.09 113.36 C 1196.02 132.59 1195.92 151.82 1196.14 171.04 C 1195.73 174.46 1199.22 176.16 1202.09 176.49 C 1212.01 177.64 1222.02 177.13 1231.99 177.23 C 1242.86 177.00 1254.73 175.76 1263.41 168.52 C 1269.82 163.27 1273.93 155.80 1277.18 148.30 C 1279.34 148.25 1281.51 148.20 1283.69 148.15 C 1280.54 160.81 1276.89 173.35 1273.70 186.01 C 1233.75 186.04 1193.80 185.99 1153.84 186.04 C 1153.93 184.52 1154.03 183.00 1154.16 181.49 C 1159.06 180.90 1164.58 181.04 1168.62 177.76 C 1172.82 174.17 1172.99 168.15 1173.23 163.05 C 1173.24 129.38 1173.25 95.70 1173.23 62.02 C 1172.97 56.93 1172.85 50.88 1168.63 47.30 C 1164.43 44.20 1158.91 44.16 1153.92 43.71 C 1153.93 42.23 1153.96 40.75 1154.02 39.27 Z" />
<path fill="#263997" opacity="1.00" d=" M 1290.32 39.25 C 1305.88 39.20 1321.44 39.27 1337.01 39.23 C 1347.75 39.36 1358.57 38.68 1369.21 40.56 C 1380.00 42.35 1391.10 46.02 1398.89 54.08 C 1408.15 63.64 1409.53 78.39 1405.86 90.69 C 1405.43 90.64 1404.56 90.52 1404.12 90.47 C 1404.50 90.60 1405.26 90.87 1405.63 91.00 C 1402.47 99.35 1395.63 105.81 1387.58 109.43 C 1381.37 112.41 1374.64 114.02 1367.92 115.29 C 1381.29 131.93 1394.89 148.41 1408.29 165.03 C 1412.11 169.45 1415.34 174.57 1420.37 177.77 C 1423.89 180.29 1428.26 181.03 1432.47 181.62 C 1432.49 183.03 1432.52 184.44 1432.58 185.86 C 1420.71 186.14 1408.80 186.08 1396.94 185.90 C 1392.50 181.37 1389.10 175.87 1385.05 170.99 C 1371.24 153.22 1357.67 135.27 1343.70 117.62 C 1339.75 118.13 1335.76 118.07 1331.80 118.29 C 1331.68 133.19 1331.75 148.10 1331.77 163.00 C 1332.05 168.09 1331.86 174.28 1336.27 177.79 C 1340.68 181.07 1346.47 180.98 1351.70 181.50 C 1351.72 183.00 1351.75 184.51 1351.81 186.02 C 1331.27 185.99 1310.73 186.10 1290.20 185.96 C 1290.20 184.47 1290.23 182.98 1290.27 181.49 C 1295.36 180.82 1301.25 180.98 1305.27 177.26 C 1309.03 173.56 1308.73 167.85 1308.95 162.98 C 1308.95 128.98 1308.97 94.98 1308.94 60.98 C 1308.77 56.25 1308.65 50.59 1304.62 47.37 C 1300.45 44.35 1295.04 44.45 1290.18 43.62 C 1290.20 42.16 1290.25 40.71 1290.32 39.25 M 1337.44 48.14 C 1333.94 48.35 1331.43 51.51 1331.77 54.94 C 1331.77 73.22 1331.63 91.51 1331.84 109.79 C 1340.95 109.74 1350.16 109.32 1359.04 107.11 C 1366.20 105.32 1373.37 101.89 1377.85 95.81 C 1383.55 88.40 1384.18 78.32 1382.45 69.44 C 1380.72 60.61 1373.63 53.48 1365.24 50.64 C 1356.37 47.50 1346.71 47.21 1337.44 48.14 Z" />
<path fill="#263997" opacity="1.00" d=" M 1561.02 39.22 C 1583.00 39.26 1604.98 39.28 1626.96 39.18 C 1626.96 40.67 1626.97 42.17 1627.00 43.66 C 1620.90 44.18 1613.79 43.64 1608.96 48.10 C 1605.83 51.98 1605.30 57.16 1605.24 61.97 C 1605.26 95.30 1605.29 128.64 1605.22 161.97 C 1605.36 167.35 1605.40 173.56 1609.58 177.57 C 1614.40 181.47 1621.11 181.09 1626.97 181.52 C 1626.99 183.02 1627.01 184.53 1627.07 186.04 C 1605.03 185.95 1582.99 186.10 1560.95 185.98 C 1560.95 184.48 1560.98 182.99 1561.04 181.50 C 1566.70 181.03 1573.04 181.42 1577.90 177.96 C 1582.56 174.05 1582.11 167.43 1582.48 161.94 C 1582.51 129.61 1582.48 97.28 1582.50 64.95 C 1582.36 60.94 1582.41 56.87 1581.43 52.96 C 1580.61 49.33 1577.64 46.34 1574.07 45.37 C 1569.81 44.16 1565.37 43.87 1560.97 43.71 C 1560.96 42.21 1560.97 40.72 1561.02 39.22 Z" />
<path fill="#263997" opacity="1.00" d=" M 1635.53 39.44 C 1677.24 38.98 1718.98 39.33 1760.70 39.27 C 1761.23 51.88 1761.40 64.51 1762.13 77.11 C 1760.17 77.04 1758.24 76.96 1756.32 76.86 C 1754.97 69.67 1753.40 62.07 1748.73 56.22 C 1744.52 50.95 1737.42 49.64 1731.08 49.10 C 1723.89 48.54 1716.68 48.86 1709.49 48.74 C 1709.51 86.52 1709.46 124.29 1709.51 162.07 C 1709.76 167.47 1709.48 174.14 1714.29 177.78 C 1718.99 181.23 1725.20 180.89 1730.75 181.56 C 1730.72 183.02 1730.72 184.49 1730.74 185.96 C 1709.12 186.03 1687.50 186.11 1665.88 185.92 C 1665.92 184.44 1665.99 182.97 1666.08 181.50 C 1671.86 180.93 1678.39 181.04 1683.11 177.11 C 1686.34 173.60 1686.56 168.55 1686.75 164.03 C 1686.75 125.59 1686.71 87.16 1686.77 48.72 C 1675.54 49.24 1663.62 47.31 1653.06 52.06 C 1643.98 56.79 1641.89 67.93 1639.91 77.05 C 1638.02 77.06 1636.13 77.05 1634.29 77.06 C 1634.73 64.52 1635.27 51.99 1635.53 39.44 Z" />
<path fill="#263997" opacity="1.00" d=" M 1885.44 39.29 C 1927.13 39.20 1968.81 39.22 2010.50 39.27 C 2010.90 51.83 2011.34 64.39 2011.82 76.95 C 2009.95 77.01 2008.11 77.07 2006.29 77.12 C 2004.19 67.90 2002.34 56.50 1992.93 51.85 C 1982.29 47.45 1970.46 49.08 1959.25 48.80 C 1959.25 86.20 1959.25 123.60 1959.25 161.00 C 1959.53 166.39 1959.00 172.69 1963.04 176.91 C 1967.69 181.29 1974.58 180.87 1980.50 181.55 C 1980.49 183.00 1980.51 184.45 1980.57 185.90 C 1958.97 186.14 1937.35 186.01 1915.75 185.96 C 1915.74 184.47 1915.75 182.99 1915.78 181.51 C 1921.79 180.90 1928.86 181.19 1933.36 176.43 C 1937.01 171.83 1936.37 165.51 1936.52 159.99 C 1936.48 122.92 1936.54 85.85 1936.49 48.78 C 1925.56 49.11 1914.06 47.51 1903.66 51.63 C 1893.89 55.94 1891.74 67.69 1889.68 77.04 C 1887.79 77.04 1885.91 77.04 1884.06 77.04 C 1884.61 64.46 1884.85 51.87 1885.44 39.29 Z" />
<path fill="#263997" opacity="1.00" d=" M 1675.22 262.00 C 1695.65 262.03 1716.10 261.86 1736.54 262.09 C 1736.51 318.71 1736.49 375.34 1736.55 431.96 C 1736.31 432.95 1737.11 435.45 1735.20 435.01 C 1715.20 435.04 1695.20 435.10 1675.20 434.98 C 1675.25 377.32 1675.22 319.66 1675.22 262.00 Z" />
<path fill="#263997" opacity="1.00" d=" M 833.46 263.30 C 854.81 263.17 876.16 263.27 897.51 263.26 C 897.50 298.17 897.51 333.08 897.51 367.98 C 897.38 378.04 898.31 388.35 895.22 398.10 C 891.78 410.61 883.33 421.54 872.28 428.29 C 855.01 439.12 833.99 441.74 813.98 441.53 C 791.17 441.56 767.85 433.02 752.37 415.88 C 764.75 406.72 777.16 397.60 789.42 388.29 C 797.48 395.27 806.53 404.07 818.08 402.92 C 824.90 402.94 831.03 397.67 832.38 391.05 C 834.07 383.16 833.36 375.01 833.52 367.00 C 833.48 332.44 833.59 297.87 833.46 263.30 Z" />
<path fill="#263997" opacity="1.00" d=" M 970.41 286.54 C 972.02 286.53 973.64 286.53 975.27 286.53 C 994.22 329.64 1013.05 372.81 1032.06 415.90 C 1034.01 420.07 1036.02 424.39 1039.36 427.67 C 1042.21 430.58 1046.50 430.93 1050.31 431.49 C 1050.26 432.91 1050.23 434.33 1050.22 435.76 C 1031.33 435.75 1012.44 435.74 993.54 435.76 C 993.51 434.35 993.50 432.96 993.50 431.57 C 998.32 430.92 1004.54 432.12 1007.84 427.61 C 1010.12 423.99 1008.57 419.45 1007.37 415.71 C 1003.85 406.35 999.67 397.24 995.76 388.04 C 976.54 388.00 957.32 388.05 938.11 388.02 C 934.55 397.20 930.80 406.32 927.35 415.54 C 926.12 419.45 925.12 424.43 928.13 427.79 C 931.48 431.43 936.79 431.05 941.29 431.57 C 941.25 432.98 941.23 434.40 941.22 435.82 C 926.59 435.71 911.95 435.70 897.32 435.82 C 897.26 434.33 897.21 432.84 897.18 431.35 C 903.30 431.55 908.58 427.57 911.45 422.40 C 919.17 409.14 924.55 394.71 930.67 380.69 C 943.88 349.29 957.41 318.02 970.41 286.54 M 941.91 378.81 C 958.82 378.69 975.73 378.70 992.63 378.80 C 984.22 358.76 975.67 338.77 967.34 318.69 C 958.45 338.54 950.44 358.79 941.91 378.81 Z" />
<path fill="#263997" opacity="1.00" d=" M 1157.08 290.47 C 1174.30 290.54 1191.52 290.56 1208.75 290.46 C 1208.73 291.96 1208.73 293.46 1208.76 294.97 C 1202.77 295.86 1195.61 296.17 1191.67 301.48 C 1188.47 306.30 1188.28 312.37 1188.03 317.97 C 1188.03 337.63 1188.00 357.29 1188.03 376.95 C 1187.96 389.47 1187.89 402.57 1182.40 414.11 C 1178.02 423.90 1169.58 431.67 1159.61 435.51 C 1147.04 440.44 1133.18 441.12 1119.88 439.79 C 1107.59 438.49 1095.07 433.70 1087.02 423.97 C 1078.61 414.05 1075.74 400.70 1075.50 388.00 C 1075.45 362.68 1075.53 337.36 1075.46 312.04 C 1075.14 307.45 1075.13 301.93 1071.24 298.75 C 1066.75 295.38 1060.81 295.68 1055.50 294.96 C 1055.47 293.46 1055.46 291.97 1055.45 290.48 C 1076.46 290.50 1097.47 290.56 1118.48 290.46 C 1118.47 291.97 1118.48 293.48 1118.50 294.99 C 1112.95 295.59 1106.82 295.68 1102.21 299.22 C 1098.26 303.01 1098.54 308.98 1098.25 314.03 C 1098.27 339.01 1098.19 363.99 1098.29 388.97 C 1098.48 399.65 1099.96 411.26 1107.36 419.55 C 1115.12 428.42 1127.69 430.77 1138.96 430.38 C 1150.42 429.95 1162.29 425.89 1169.88 416.93 C 1176.05 410.27 1177.10 400.77 1177.68 392.10 C 1178.28 375.75 1177.84 359.38 1177.98 343.01 C 1177.80 332.52 1178.48 321.98 1177.26 311.54 C 1176.54 306.61 1175.06 301.06 1170.62 298.20 C 1166.54 295.59 1161.55 295.48 1156.89 294.97 C 1156.93 293.46 1157.00 291.96 1157.08 290.47 Z" />
<path fill="#263997" opacity="1.00" d=" M 1215.97 290.51 C 1230.64 290.49 1245.32 290.50 1259.99 290.53 C 1277.08 327.56 1293.95 364.68 1310.91 401.77 C 1319.05 384.39 1326.36 366.60 1334.24 349.08 C 1342.69 329.52 1351.31 310.03 1359.84 290.50 C 1374.58 290.52 1389.33 290.52 1404.08 290.51 C 1404.04 292.00 1404.01 293.49 1404.00 294.99 C 1398.72 295.71 1392.49 295.40 1388.55 299.60 C 1384.78 303.73 1385.12 309.75 1384.78 314.96 C 1384.75 347.65 1384.75 380.33 1384.78 413.02 C 1385.04 418.44 1384.93 424.73 1389.04 428.86 C 1393.18 432.35 1398.92 432.36 1404.04 432.86 C 1404.02 434.31 1404.02 435.77 1404.03 437.23 C 1383.38 437.29 1362.74 437.18 1342.09 437.30 C 1342.00 435.81 1341.93 434.32 1341.87 432.84 C 1346.86 432.49 1352.19 432.34 1356.62 429.74 C 1361.68 426.29 1361.74 419.53 1361.96 414.05 C 1361.95 379.77 1362.03 345.48 1361.91 311.20 C 1343.26 353.24 1324.29 395.15 1305.77 437.25 C 1304.55 437.22 1303.36 437.20 1302.19 437.18 C 1283.89 396.88 1265.54 356.60 1247.09 316.38 C 1246.94 346.25 1247.07 376.13 1247.02 406.00 C 1247.21 412.81 1247.17 420.15 1250.82 426.16 C 1254.39 431.76 1261.67 432.67 1267.74 432.76 C 1267.76 434.23 1267.78 435.70 1267.83 437.19 C 1250.38 437.37 1232.92 437.11 1215.48 437.32 C 1215.48 435.82 1215.49 434.32 1215.53 432.82 C 1221.35 432.31 1228.18 432.16 1232.38 427.46 C 1236.35 422.64 1236.57 416.01 1236.93 410.05 C 1237.00 377.71 1236.92 345.37 1236.96 313.04 C 1236.90 307.98 1236.49 302.11 1232.39 298.56 C 1227.57 295.34 1221.51 295.51 1215.97 294.99 C 1215.96 293.49 1215.96 292.00 1215.97 290.51 Z" />
<path fill="#263997" opacity="1.00" d=" M 1411.45 290.44 C 1450.71 290.60 1489.96 290.44 1529.22 290.52 C 1529.24 301.17 1529.78 311.81 1529.77 322.47 C 1527.88 322.47 1526.01 322.48 1524.15 322.51 C 1522.67 315.81 1521.54 308.01 1515.56 303.71 C 1508.94 299.41 1500.65 299.45 1493.04 299.25 C 1482.01 299.27 1470.98 299.26 1459.95 299.23 C 1457.92 299.23 1455.39 299.35 1454.36 301.44 C 1453.48 303.52 1453.51 305.82 1453.47 308.04 C 1453.52 323.85 1453.45 339.66 1453.51 355.47 C 1466.29 355.56 1479.08 355.54 1491.87 355.44 C 1496.72 355.08 1502.31 354.73 1505.88 350.95 C 1510.20 346.66 1510.71 340.22 1511.68 334.54 C 1513.45 334.52 1515.25 334.53 1517.06 334.52 C 1517.02 351.78 1517.01 369.03 1517.07 386.28 C 1515.27 386.25 1513.49 386.23 1511.74 386.23 C 1510.59 380.18 1509.99 373.19 1505.11 368.85 C 1498.40 364.13 1489.70 365.64 1482.00 365.09 C 1472.49 365.21 1463.01 364.61 1453.51 364.80 C 1453.48 381.55 1453.49 398.30 1453.49 415.05 C 1453.64 418.54 1452.91 422.32 1454.49 425.58 C 1457.86 428.52 1462.78 428.08 1466.96 428.46 C 1482.47 428.29 1498.76 430.43 1513.51 424.41 C 1524.03 420.01 1530.33 409.78 1534.69 399.75 C 1536.82 399.74 1538.98 399.75 1541.15 399.80 C 1537.81 412.29 1534.61 424.82 1531.13 437.27 C 1491.25 437.23 1451.37 437.26 1411.49 437.25 C 1411.47 435.76 1411.47 434.28 1411.50 432.81 C 1417.05 432.34 1423.86 432.40 1427.64 427.57 C 1431.08 422.43 1430.66 415.88 1430.75 409.97 C 1430.71 377.64 1430.78 345.31 1430.72 312.98 C 1430.46 307.80 1430.15 301.64 1425.57 298.28 C 1421.48 295.53 1416.29 295.53 1411.56 295.08 C 1411.50 293.53 1411.47 291.98 1411.45 290.44 Z" />
<path fill="#263997" opacity="1.00" d=" M 1565.78 359.35 C 1575.51 348.99 1585.83 339.21 1595.79 329.06 C 1605.98 338.99 1616.04 349.08 1625.96 359.28 C 1615.90 369.20 1605.97 379.26 1595.98 389.24 C 1585.74 379.45 1576.02 369.13 1565.78 359.35 Z" />
</g>
<g id="#88d3e6ff">
<path fill="#88d3e6" opacity="1.00" d=" M 364.94 12.13 C 380.94 10.86 397.03 9.90 413.02 11.88 C 412.22 11.83 410.60 11.73 409.80 11.69 C 414.41 20.47 419.66 28.91 424.12 37.77 C 428.45 49.72 432.25 61.85 436.46 73.85 C 437.49 77.10 439.17 80.47 438.11 83.94 C 434.65 99.57 431.55 115.27 428.00 130.88 C 421.84 135.71 415.57 140.42 409.38 145.22 C 402.03 150.20 397.10 157.80 390.57 163.68 C 386.77 165.90 382.26 166.54 378.22 168.26 C 367.59 171.68 357.33 176.42 346.26 178.34 C 340.84 179.34 335.52 181.41 329.92 180.85 C 322.82 180.42 315.66 180.83 308.60 179.97 C 303.79 178.02 299.50 174.99 294.90 172.61 C 293.24 173.13 291.57 173.65 289.92 174.18 C 286.07 170.67 282.70 166.70 279.12 162.93 C 276.70 160.42 275.49 157.10 273.77 154.14 C 272.08 151.22 269.40 148.93 268.25 145.69 C 259.97 121.75 251.57 97.84 243.20 73.92 C 242.07 70.04 238.35 67.97 235.55 65.40 C 225.26 56.38 214.91 47.42 204.62 38.40 C 219.69 32.01 234.78 25.67 249.85 19.28 C 257.89 18.21 266.12 18.46 274.21 17.63 C 275.82 17.65 277.43 17.70 279.04 17.65 C 280.99 28.45 282.70 39.29 284.50 50.11 C 285.60 62.07 294.11 71.55 297.16 82.92 C 298.75 90.92 300.14 98.96 301.66 106.97 C 301.96 109.10 303.21 110.88 304.49 112.55 C 313.61 124.00 322.41 135.71 331.31 147.34 C 341.70 143.77 352.45 141.14 362.42 136.42 C 365.67 134.83 369.71 134.19 371.96 131.08 C 374.74 127.47 377.55 123.87 380.31 120.25 C 382.31 117.97 381.94 114.76 382.37 111.96 C 383.03 103.38 384.94 94.42 381.97 86.07 C 375.46 65.11 369.19 44.08 362.70 23.12 C 361.64 19.87 360.45 16.62 360.33 13.17 C 356.93 12.60 353.48 12.56 350.06 12.83 C 354.99 12.11 359.96 12.00 364.94 12.13 Z" />
<path fill="#88d3e6" opacity="1.00" d=" M 295.98 240.15 C 296.15 239.81 296.48 239.14 296.65 238.80 L 297.51 239.15 L 297.58 239.95 C 297.18 240.00 296.38 240.10 295.98 240.15 Z" />
<path fill="#88d3e6" opacity="1.00" d=" M 271.02 255.20 C 272.46 254.32 273.36 254.61 273.74 256.09 C 272.59 256.46 271.68 256.17 271.02 255.20 Z" />
<path fill="#88d3e6" opacity="1.00" d=" M 268.38 256.42 L 268.59 256.52 L 268.77 256.67 C 268.67 256.61 268.48 256.48 268.38 256.42 Z" />
<path fill="#88d3e6" opacity="1.00" d=" M 271.30 258.64 C 271.35 258.68 271.45 258.74 271.50 258.78 C 271.45 258.74 271.35 258.68 271.30 258.64 Z" />
</g>
<g id="#00ab67ff">
<path fill="#00ab67" opacity="1.00" d=" M 171.33 143.57 C 171.36 143.59 171.43 143.64 171.47 143.66 C 171.43 143.64 171.36 143.59 171.33 143.57 Z" />
<path fill="#00ab67" opacity="1.00" d=" M 134.58 146.35 C 135.18 146.35 136.38 146.36 136.97 146.37 C 142.29 150.94 147.49 155.67 153.26 159.69 C 156.69 163.33 162.05 162.03 166.35 163.71 C 180.42 165.89 194.44 168.44 208.52 170.59 C 209.28 175.16 206.60 179.08 205.52 183.33 C 199.24 201.19 193.17 219.12 186.71 236.92 C 186.16 238.23 186.33 239.66 186.30 241.05 C 183.51 243.36 181.65 246.54 179.02 249.02 C 175.20 253.51 170.06 257.27 168.08 263.03 C 167.56 269.76 165.92 276.31 164.77 282.95 C 164.13 287.45 163.95 292.04 162.67 296.44 C 161.11 301.33 162.17 306.62 160.35 311.47 C 159.37 319.80 157.46 327.98 156.17 336.27 C 154.13 340.82 151.42 345.06 149.40 349.63 C 145.67 356.09 143.58 363.37 139.42 369.59 C 137.51 373.28 135.72 377.05 133.25 380.42 C 131.57 380.37 129.88 380.50 128.27 381.06 C 119.52 383.56 110.45 384.97 101.87 388.08 C 97.04 388.74 92.20 389.56 87.68 391.45 C 85.35 392.50 82.81 391.43 81.07 389.80 C 72.77 382.00 64.07 374.63 55.38 367.25 C 55.34 366.66 55.26 365.48 55.22 364.89 C 54.36 364.31 53.49 363.74 52.64 363.17 C 52.18 357.35 50.06 351.82 50.01 345.96 C 47.87 341.01 47.81 335.56 47.51 330.26 C 53.08 334.82 59.48 338.38 64.65 343.40 C 70.68 345.16 76.94 345.59 83.12 346.43 C 87.98 344.14 90.60 339.08 94.83 335.97 C 97.17 334.19 98.55 331.50 100.72 329.55 C 102.62 327.57 104.98 325.96 106.51 323.67 C 107.11 314.42 106.01 305.13 106.38 295.88 C 107.55 290.71 108.87 285.51 108.52 280.15 C 108.76 281.04 109.02 281.93 109.28 282.83 C 110.61 274.85 111.69 266.82 113.56 258.95 C 113.98 251.82 116.55 245.06 117.37 237.97 C 117.80 232.82 119.80 227.98 120.27 222.84 C 122.18 214.64 123.06 206.21 125.46 198.12 C 126.27 194.83 126.06 191.38 127.00 188.10 C 128.81 180.58 129.54 172.86 131.52 165.38 C 132.42 159.01 134.75 152.85 134.58 146.35 Z" />
</g>
<g id="#fbf205ff">
<path fill="#fbf205" opacity="1.00" d=" M 380.18 234.75 C 386.97 226.12 393.02 216.94 399.69 208.22 C 400.37 215.11 400.28 222.04 400.72 228.94 C 401.70 235.79 401.52 242.73 401.87 249.63 C 383.71 247.03 365.20 246.35 346.99 248.87 C 327.18 251.63 309.52 262.13 294.22 274.54 C 292.58 273.42 291.00 272.22 289.52 270.91 L 289.33 270.75 L 289.11 270.65 C 282.95 267.16 277.50 262.53 271.50 258.78 C 271.45 258.74 271.35 258.68 271.30 258.64 C 270.67 258.15 269.40 257.16 268.77 256.67 L 268.59 256.52 L 268.38 256.42 L 266.62 255.54 C 266.59 255.53 266.53 255.49 266.50 255.47 C 265.46 254.66 264.46 253.83 263.48 252.97 C 265.84 253.39 268.18 253.96 270.52 254.53 L 271.02 255.20 C 271.68 256.17 272.59 256.46 273.74 256.09 C 274.29 255.97 275.41 255.73 275.96 255.62 C 273.94 251.83 273.06 247.59 271.71 243.55 C 277.57 244.63 283.19 246.85 289.05 247.83 C 292.60 247.03 293.15 242.18 295.98 240.15 C 296.38 240.10 297.18 240.00 297.58 239.95 C 301.43 240.31 304.82 242.74 308.76 242.92 C 309.64 237.88 310.48 232.85 311.64 227.87 C 317.70 230.70 323.22 234.58 329.00 237.94 C 330.03 238.72 331.34 238.70 332.58 238.83 C 334.55 235.67 336.59 232.55 338.63 229.44 C 344.25 232.10 350.27 233.79 356.02 236.15 C 357.44 237.25 358.77 235.85 359.78 234.98 C 363.41 231.67 367.10 228.41 370.91 225.31 C 373.92 228.54 376.95 231.74 380.18 234.75 Z" />
</g>
<g id="#ee1b2cff">
<path fill="#ee1b2c" opacity="1.00" d=" M 266.50 255.47 C 266.53 255.49 266.59 255.53 266.62 255.54 C 266.59 255.53 266.53 255.49 266.50 255.47 Z" />
<path fill="#ee1b2c" opacity="1.00" d=" M 400.20 273.12 C 400.69 274.37 401.18 275.62 401.68 276.88 L 403.03 275.11 C 402.90 276.40 402.77 277.68 402.65 278.97 C 405.73 278.83 408.83 278.67 411.91 278.48 C 410.78 285.86 407.94 292.83 406.09 300.03 C 405.61 306.32 405.72 312.66 405.50 318.97 C 405.82 324.69 404.37 330.31 404.52 336.03 C 404.57 339.85 404.46 343.67 404.13 347.48 C 403.21 357.63 403.99 367.88 402.49 377.98 C 402.70 387.70 401.31 397.35 401.55 407.07 C 400.66 414.34 400.45 421.64 400.39 428.96 C 400.47 433.65 399.21 438.69 401.54 443.04 C 401.55 443.93 401.57 445.71 401.57 446.60 C 398.26 446.59 394.96 446.58 391.65 446.52 C 377.13 445.98 362.62 445.03 348.11 444.25 C 351.22 439.33 350.19 433.43 350.29 427.94 C 350.31 412.94 350.48 397.94 350.33 382.95 C 347.46 371.06 345.17 358.99 342.53 347.04 C 341.02 343.14 342.27 339.00 342.25 334.98 C 342.28 322.53 342.17 310.06 342.24 297.61 C 335.61 290.82 327.70 285.36 321.23 278.37 C 324.87 280.23 329.04 279.65 332.98 279.68 C 340.02 279.49 347.07 279.77 354.11 279.41 C 363.71 278.43 373.36 279.10 382.99 278.84 C 389.11 278.82 395.31 278.35 401.33 279.79 C 401.94 277.47 400.87 275.28 400.20 273.12 Z" />
</g>
</svg>
