<?xml version="1.0" encoding="UTF-8" ?>
<!DOCTYPE svg PUBLIC "-//W3C//DTD SVG 1.1//EN" "http://www.w3.org/Graphics/SVG/1.1/DTD/svg11.dtd">
<svg width="2085pt" height="461pt" viewBox="0 0 2085 461" version="1.1" xmlns="http://www.w3.org/2000/svg">
<g id="#ffffffff">
<path fill="#ffffff" opacity="1.00" d=" M 0.00 0.00 L 2085.00 0.00 L 2085.00 461.00 L 0.00 461.00 L 0.00 0.00 M 359.47 12.25 C 333.73 13.88 308.00 15.48 282.26 17.07 C 271.47 17.67 260.61 18.37 249.85 19.22 C 232.30 19.85 214.78 22.06 197.20 21.65 C 138.81 20.60 80.41 19.99 22.01 18.89 C 22.19 44.92 22.49 70.94 22.50 96.97 C 23.68 132.32 24.89 167.67 26.05 203.02 C 26.69 212.98 25.46 222.92 25.18 232.87 C 22.87 278.24 20.60 323.60 18.29 368.97 C 18.08 373.04 18.32 377.11 18.65 381.17 C 19.92 402.30 21.33 423.42 22.55 444.56 C 78.05 441.96 133.58 439.79 189.09 437.34 C 192.44 437.30 195.79 436.94 199.15 437.11 C 248.14 439.41 297.12 441.89 346.10 444.12 C 360.35 445.44 374.67 445.75 388.95 446.57 C 391.94 446.55 395.25 447.99 398.06 446.77 C 398.60 446.91 399.69 447.19 400.23 447.33 L 401.06 446.74 C 402.43 447.24 403.90 447.18 405.50 446.56 C 425.07 445.29 444.64 443.87 464.21 442.44 C 466.66 423.91 469.01 405.37 471.52 386.85 C 472.41 381.57 471.42 376.24 471.32 370.94 C 469.87 340.62 468.02 310.31 466.83 279.98 C 465.96 237.99 464.91 196.00 463.99 154.01 C 464.41 137.02 464.23 120.03 464.24 103.03 C 464.78 87.02 464.38 70.98 464.51 54.96 C 465.01 42.34 464.63 29.71 464.80 17.08 C 447.56 15.38 430.34 13.60 413.11 11.88 C 395.30 9.54 377.32 11.44 359.47 12.25 M 674.20 10.48 C 674.24 41.00 674.22 71.51 674.22 102.02 C 674.33 111.07 674.21 120.34 671.20 128.98 C 668.87 136.17 663.78 142.53 656.93 145.86 C 646.03 151.29 633.35 151.61 621.47 150.32 C 611.29 149.22 600.76 144.79 595.21 135.76 C 589.30 125.97 588.94 114.10 589.03 102.98 C 589.02 72.17 589.02 41.35 589.04 10.54 C 567.85 10.46 546.67 10.49 525.48 10.52 C 525.56 44.34 525.49 78.16 525.52 111.98 C 525.73 124.58 526.28 137.63 531.71 149.24 C 537.96 163.00 550.40 173.04 563.96 179.11 C 582.17 187.23 602.22 190.18 622.00 191.14 C 644.53 191.86 667.44 190.16 688.98 183.15 C 703.46 178.23 717.67 170.35 726.68 157.64 C 732.90 149.00 735.94 138.49 736.98 127.99 C 738.13 115.36 737.71 102.67 737.78 90.01 C 737.75 63.50 737.86 36.99 737.72 10.48 C 716.55 10.50 695.37 10.51 674.20 10.48 M 1455.70 52.65 C 1449.44 62.05 1448.35 74.20 1451.07 84.98 C 1453.92 95.75 1462.54 103.67 1471.54 109.59 C 1485.53 118.82 1501.14 125.98 1513.18 137.87 C 1522.99 147.43 1522.67 165.22 1512.31 174.24 C 1505.33 180.68 1495.03 181.82 1486.04 180.10 C 1478.60 178.68 1471.61 175.10 1466.15 169.85 C 1457.86 162.29 1452.81 151.99 1448.63 141.75 C 1446.84 141.74 1445.06 141.69 1443.32 141.65 C 1445.32 157.38 1447.74 173.06 1449.88 188.78 C 1451.50 188.78 1453.13 188.79 1454.78 188.80 C 1455.31 186.58 1455.83 184.12 1457.90 182.79 C 1461.25 180.23 1465.51 182.08 1469.05 183.20 C 1477.35 186.33 1486.02 188.92 1494.96 189.08 C 1504.99 189.20 1515.29 187.23 1523.90 181.90 C 1533.86 175.97 1541.01 165.46 1542.52 153.94 C 1543.40 146.47 1542.43 138.67 1538.99 131.93 C 1535.41 124.82 1529.60 119.17 1523.49 114.22 C 1510.94 104.52 1496.32 97.99 1483.50 88.70 C 1477.27 84.16 1471.40 78.24 1469.49 70.56 C 1468.12 64.39 1469.44 57.46 1473.77 52.73 C 1478.05 47.92 1484.61 45.51 1490.97 45.46 C 1500.80 45.29 1510.50 49.43 1517.53 56.25 C 1525.07 63.54 1530.02 73.28 1532.22 83.49 C 1534.15 83.51 1536.10 83.53 1538.07 83.56 C 1536.45 67.69 1534.62 51.84 1533.26 35.95 C 1531.60 35.96 1529.98 35.98 1528.36 36.01 C 1527.82 40.06 1524.88 43.93 1520.44 43.61 C 1514.06 42.72 1508.34 39.34 1502.07 37.92 C 1485.65 32.99 1465.63 38.12 1455.70 52.65 M 1821.80 36.59 C 1809.88 65.28 1797.58 93.81 1785.56 122.45 C 1778.11 139.27 1771.88 156.71 1762.66 172.67 C 1759.88 177.89 1754.49 181.52 1748.49 181.52 C 1748.46 183.02 1748.45 184.51 1748.47 186.02 C 1762.70 185.99 1776.92 186.04 1791.15 185.98 C 1793.59 186.17 1792.13 182.96 1792.51 181.51 C 1787.73 181.38 1781.93 181.25 1778.78 177.07 C 1776.11 172.35 1778.17 166.76 1780.01 162.12 C 1783.22 154.17 1786.29 146.16 1789.44 138.18 C 1808.68 138.34 1827.93 138.17 1847.18 138.26 C 1851.01 147.27 1854.98 156.22 1858.57 165.33 C 1859.95 169.51 1861.97 174.88 1858.49 178.59 C 1854.83 181.84 1849.53 181.32 1844.99 181.54 C 1844.97 183.04 1844.96 184.54 1845.00 186.04 C 1863.82 185.98 1882.64 185.99 1901.46 186.04 C 1901.44 184.52 1901.45 182.99 1901.49 181.47 C 1896.82 181.21 1891.73 179.85 1888.98 175.77 C 1883.64 168.61 1881.04 159.89 1877.17 151.93 C 1860.34 113.41 1843.42 74.93 1826.56 36.42 C 1824.95 36.47 1823.36 36.52 1821.80 36.59 M 761.03 39.23 C 760.98 40.73 760.95 42.23 760.94 43.73 C 764.95 43.61 769.22 43.95 772.68 46.21 C 776.58 48.74 779.54 52.41 782.50 55.93 C 782.43 85.96 782.53 115.99 782.48 146.02 C 782.47 153.06 782.67 160.15 781.50 167.11 C 780.78 171.18 779.30 175.47 775.75 177.93 C 771.54 180.88 766.17 180.74 761.30 181.54 C 760.61 182.87 761.06 184.52 760.91 185.98 C 778.38 186.04 795.85 186.03 813.33 185.97 C 813.25 184.51 813.22 183.05 813.21 181.59 C 807.77 181.06 801.52 180.80 797.58 176.45 C 793.13 171.47 792.92 164.31 792.53 158.00 C 792.51 127.68 792.46 97.37 792.57 67.06 C 824.98 107.48 857.47 147.84 889.84 188.29 C 891.22 188.27 892.62 188.26 894.02 188.24 C 894.02 148.82 894.02 109.40 894.03 69.98 C 894.23 63.01 894.38 55.41 898.50 49.46 C 902.58 44.77 909.31 44.33 915.09 43.69 C 915.04 42.19 915.00 40.69 914.97 39.18 C 897.56 39.31 880.14 39.22 862.73 39.21 C 862.72 40.72 862.72 42.23 862.71 43.74 C 868.20 44.18 874.49 44.32 878.70 48.38 C 883.39 53.70 883.52 61.28 883.93 67.98 C 884.03 93.92 883.96 119.86 883.97 145.80 C 855.74 110.41 827.56 74.97 799.34 39.58 C 798.01 38.95 796.44 39.32 795.04 39.21 C 783.71 39.28 772.37 39.21 761.03 39.23 M 921.96 39.21 C 921.95 40.72 921.97 42.23 922.00 43.73 C 927.91 44.03 934.44 44.05 939.44 47.65 C 943.35 51.29 943.21 57.10 943.48 62.02 C 943.51 95.68 943.51 129.33 943.48 162.98 C 943.25 167.92 943.38 173.70 939.55 177.41 C 934.70 181.49 927.94 181.04 922.02 181.54 C 921.97 183.04 921.94 184.54 921.94 186.04 C 943.98 185.99 966.02 185.98 988.07 186.05 C 988.01 184.52 987.98 182.99 987.95 181.47 C 982.49 181.13 976.55 181.34 971.73 178.36 C 967.10 175.26 966.61 169.17 966.28 164.10 C 966.21 131.41 966.30 98.72 966.24 66.03 C 966.37 59.96 965.87 52.87 970.22 48.01 C 974.97 43.63 982.00 44.17 988.00 43.71 C 988.01 42.22 988.02 40.72 988.06 39.23 C 966.02 39.23 943.99 39.26 921.96 39.21 M 995.24 39.25 C 995.22 40.69 995.22 42.14 995.23 43.59 C 999.21 43.86 1003.41 44.54 1006.56 47.19 C 1011.22 51.25 1013.82 57.02 1016.54 62.43 C 1035.46 104.30 1054.10 146.28 1072.97 188.17 C 1074.19 188.21 1075.42 188.25 1076.68 188.30 C 1091.62 150.39 1106.66 112.52 1121.64 74.63 C 1124.87 66.65 1127.56 58.38 1131.99 50.97 C 1134.72 46.39 1140.48 42.80 1145.84 44.57 C 1145.96 42.78 1145.97 40.99 1145.96 39.20 C 1130.80 39.29 1115.63 39.18 1100.47 39.26 C 1100.46 40.74 1100.47 42.22 1100.49 43.70 C 1105.96 44.05 1113.69 43.97 1116.06 50.08 C 1117.62 55.92 1114.86 61.73 1113.04 67.17 C 1102.16 94.57 1091.17 121.92 1080.22 149.29 C 1077.08 144.53 1075.51 138.94 1072.95 133.86 C 1062.57 110.62 1052.09 87.42 1041.85 64.11 C 1040.06 59.29 1037.00 54.38 1038.00 49.06 C 1038.48 46.39 1041.24 45.42 1043.41 44.47 C 1043.66 44.74 1044.16 45.29 1044.41 45.57 L 1044.17 44.35 C 1047.55 44.12 1050.95 43.85 1054.35 43.66 C 1054.29 42.18 1054.24 40.69 1054.20 39.21 C 1034.54 39.27 1014.89 39.21 995.24 39.25 M 1154.00 39.24 C 1153.97 40.74 1153.96 42.24 1153.98 43.75 C 1158.96 44.11 1164.41 44.27 1168.64 47.30 C 1172.82 50.89 1173.00 56.89 1173.22 61.97 C 1173.24 93.64 1173.21 125.32 1173.23 156.99 C 1173.17 163.20 1173.74 169.92 1170.61 175.55 C 1167.04 180.96 1159.85 180.87 1154.12 181.50 C 1154.02 183.01 1153.93 184.52 1153.87 186.03 C 1193.81 185.98 1233.76 186.01 1273.70 186.01 C 1276.92 173.35 1280.55 160.81 1283.69 148.14 C 1281.49 148.19 1279.31 148.24 1277.14 148.31 C 1273.38 157.30 1267.99 166.21 1259.45 171.36 C 1250.52 176.38 1240.01 177.15 1229.98 177.24 C 1220.48 177.06 1210.93 177.72 1201.51 176.33 C 1198.70 176.06 1195.85 174.10 1196.11 171.00 C 1195.93 151.80 1196.05 132.60 1196.05 113.40 C 1203.69 113.71 1211.33 113.30 1218.97 113.75 C 1227.62 114.05 1236.67 112.86 1244.97 115.89 C 1252.09 119.18 1253.00 128.00 1254.24 134.81 C 1255.96 134.80 1257.68 134.78 1259.43 134.79 C 1259.62 117.61 1259.40 100.42 1259.54 83.24 C 1257.75 83.23 1255.99 83.23 1254.24 83.24 C 1253.11 88.86 1252.63 95.19 1248.53 99.59 C 1244.41 103.49 1238.35 103.95 1232.97 104.22 C 1220.66 104.30 1208.35 104.19 1196.04 104.26 C 1196.00 88.16 1196.06 72.07 1196.01 55.98 C 1195.89 53.62 1196.45 51.32 1197.15 49.08 C 1200.21 47.66 1203.65 47.76 1206.97 47.74 C 1219.33 47.86 1231.71 47.49 1244.06 48.27 C 1249.90 48.75 1256.37 49.95 1260.42 54.59 C 1264.35 59.10 1265.54 65.21 1266.53 70.93 C 1268.41 71.00 1270.32 71.04 1272.24 71.07 C 1272.41 60.45 1271.72 49.85 1271.79 39.23 C 1232.53 39.25 1193.27 39.22 1154.00 39.24 M 1290.32 39.24 C 1290.24 40.70 1290.19 42.15 1290.15 43.61 C 1295.02 44.41 1300.39 44.38 1304.57 47.34 C 1308.62 50.56 1308.76 56.22 1308.94 60.97 C 1308.99 92.65 1308.94 124.32 1308.96 156.00 C 1308.78 162.32 1309.66 169.05 1307.01 174.99 C 1303.71 180.86 1296.10 180.82 1290.25 181.51 C 1290.21 182.99 1290.18 184.48 1290.19 185.96 C 1310.73 186.06 1331.27 185.97 1351.82 186.01 C 1351.76 184.51 1351.74 183.01 1351.73 181.51 C 1346.48 180.98 1340.65 181.07 1336.24 177.76 C 1332.13 174.50 1332.08 168.76 1331.81 163.99 C 1331.68 148.79 1331.83 133.59 1331.74 118.39 C 1335.63 118.07 1339.54 117.93 1343.46 117.79 C 1344.45 118.14 1344.94 119.23 1345.67 119.97 C 1358.91 137.18 1372.22 154.34 1385.47 171.55 C 1389.36 176.26 1392.67 181.51 1396.91 185.91 C 1408.78 186.10 1420.68 186.07 1432.57 185.89 C 1432.51 184.46 1432.49 183.04 1432.48 181.62 C 1428.52 181.06 1424.44 180.39 1421.03 178.19 C 1415.62 174.96 1412.19 169.54 1408.18 164.88 C 1394.79 148.31 1381.27 131.86 1367.90 115.28 C 1380.46 113.02 1394.12 108.85 1401.88 97.96 C 1411.49 83.87 1409.49 62.10 1395.83 51.27 C 1387.70 44.64 1377.26 41.70 1367.06 40.23 C 1357.74 38.81 1348.31 39.31 1338.93 39.24 C 1322.72 39.24 1306.52 39.22 1290.32 39.24 M 1561.01 39.24 C 1560.98 40.73 1560.99 42.23 1561.04 43.73 C 1566.45 44.02 1572.30 44.02 1577.15 46.79 C 1582.50 50.30 1582.16 57.44 1582.44 63.07 C 1582.53 96.03 1582.49 129.00 1582.46 161.96 C 1582.07 167.21 1582.62 173.44 1578.48 177.42 C 1573.70 181.48 1566.89 181.00 1561.02 181.51 C 1560.98 183.00 1560.96 184.49 1560.98 185.98 C 1583.00 186.07 1605.02 185.94 1627.04 186.03 C 1626.99 184.52 1626.97 183.02 1626.94 181.52 C 1620.88 181.04 1613.68 181.55 1609.02 176.96 C 1604.76 172.06 1605.31 165.03 1605.25 158.97 C 1605.28 127.67 1605.28 96.36 1605.25 65.05 C 1605.21 59.41 1605.16 53.22 1608.66 48.45 C 1611.77 45.06 1616.62 44.43 1620.97 44.01 C 1622.77 43.97 1624.94 43.30 1626.48 44.67 C 1627.36 42.98 1626.86 40.99 1626.97 39.17 C 1604.98 39.32 1582.99 39.18 1561.01 39.24 M 1635.53 39.44 C 1635.29 51.99 1634.74 64.53 1634.25 77.06 C 1636.11 77.05 1638.00 77.05 1639.90 77.03 C 1641.94 67.92 1643.97 56.78 1653.09 52.04 C 1663.64 47.36 1675.52 49.22 1686.73 48.71 C 1686.76 85.79 1686.69 122.87 1686.76 159.96 C 1686.63 165.72 1687.18 172.37 1683.16 177.06 C 1678.43 181.02 1671.85 180.95 1666.04 181.50 C 1665.99 183.02 1665.98 184.54 1666.02 186.07 C 1687.59 185.97 1709.16 185.98 1730.73 186.05 C 1730.73 184.55 1730.74 183.05 1730.77 181.55 C 1725.22 180.95 1719.05 181.21 1714.33 177.81 C 1709.73 174.41 1709.79 168.10 1709.55 162.96 C 1709.48 124.90 1709.53 86.83 1709.52 48.77 C 1720.95 49.18 1733.11 47.32 1743.85 52.20 C 1752.53 57.08 1754.42 67.82 1756.38 76.72 C 1758.13 77.48 1760.21 76.84 1762.11 76.97 C 1761.46 64.41 1761.21 51.83 1760.70 39.26 C 1718.98 39.34 1677.24 38.98 1635.53 39.44 M 1885.45 39.27 C 1884.80 51.85 1884.69 64.46 1884.01 77.04 C 1885.88 77.04 1887.77 77.03 1889.68 77.02 C 1891.78 67.47 1894.07 55.35 1904.33 51.33 C 1914.61 47.68 1925.77 49.04 1936.47 48.79 C 1936.51 85.86 1936.46 122.93 1936.50 160.00 C 1936.34 165.53 1937.00 171.84 1933.36 176.47 C 1928.81 181.13 1921.75 180.91 1915.75 181.55 C 1915.73 183.03 1915.73 184.50 1915.75 185.98 C 1937.35 186.00 1958.96 186.08 1980.56 185.93 C 1980.51 184.47 1980.51 183.00 1980.51 181.54 C 1974.76 180.98 1968.28 181.22 1963.55 177.38 C 1959.22 173.54 1959.54 167.28 1959.28 161.99 C 1959.22 124.28 1959.31 86.57 1959.24 48.85 C 1970.26 48.99 1981.79 47.61 1992.33 51.57 C 2002.19 55.95 2004.18 67.72 2006.29 77.12 C 2008.11 77.07 2009.94 77.01 2011.81 76.96 C 2011.37 64.39 2010.88 51.82 2010.49 39.25 C 1968.81 39.25 1927.13 39.20 1885.45 39.27 M 1675.21 262.00 C 1675.21 319.66 1675.24 377.32 1675.19 434.97 C 1695.64 435.01 1716.10 435.14 1736.55 434.91 C 1736.49 378.26 1736.48 321.60 1736.55 264.94 C 1736.32 263.95 1737.13 261.52 1735.22 262.00 C 1715.21 261.99 1695.21 261.99 1675.21 262.00 M 833.47 263.25 C 833.54 300.85 833.47 338.44 833.51 376.04 C 833.39 381.93 833.68 388.07 831.51 393.66 C 828.33 402.47 817.17 404.86 809.14 401.91 C 801.60 399.07 795.34 393.75 789.56 388.27 C 777.16 397.48 764.78 406.72 752.36 415.90 C 756.90 420.98 762.34 425.18 768.03 428.92 C 783.44 438.61 802.01 442.17 820.02 441.53 C 840.13 441.08 861.33 437.25 877.56 424.59 C 890.22 414.79 897.33 398.91 897.52 383.03 C 897.50 343.10 897.51 303.17 897.52 263.24 C 876.17 263.24 854.82 263.21 833.47 263.25 M 970.40 286.53 C 957.42 318.01 943.87 349.26 930.68 380.66 C 924.75 394.27 919.48 408.22 912.17 421.18 C 909.29 426.83 903.86 431.59 897.19 431.37 C 897.21 432.86 897.24 434.35 897.29 435.85 C 911.94 435.71 926.60 435.72 941.25 435.85 C 941.24 434.41 941.24 432.97 941.25 431.55 C 936.76 431.06 931.47 431.41 928.13 427.79 C 925.08 424.35 926.15 419.33 927.43 415.36 C 930.83 406.18 934.60 397.14 938.12 388.00 C 957.33 388.04 976.53 388.05 995.73 387.99 C 999.62 397.21 1003.83 406.30 1007.35 415.68 C 1008.57 419.42 1010.10 423.93 1007.88 427.60 C 1004.54 432.10 998.34 430.89 993.50 431.54 C 993.49 432.95 993.48 434.36 993.49 435.77 C 1012.43 435.71 1031.37 435.88 1050.31 435.68 C 1050.31 434.63 1050.29 432.51 1050.28 431.45 C 1046.45 430.92 1042.18 430.54 1039.31 427.64 C 1035.37 423.59 1033.18 418.27 1030.84 413.22 C 1012.34 370.98 993.77 328.77 975.30 286.52 C 973.65 286.51 972.02 286.52 970.40 286.53 M 1055.48 290.46 C 1055.46 291.94 1055.45 293.41 1055.46 294.89 C 1060.12 295.61 1065.06 295.50 1069.40 297.57 C 1071.90 298.77 1073.74 301.10 1074.40 303.79 C 1075.77 309.07 1075.45 314.57 1075.48 319.97 C 1075.50 342.64 1075.46 365.31 1075.50 387.97 C 1075.69 400.93 1078.73 414.54 1087.47 424.52 C 1095.79 434.16 1108.48 438.76 1120.88 439.91 C 1134.38 441.12 1148.45 440.28 1161.05 434.92 C 1170.16 431.03 1177.85 423.81 1182.08 414.83 C 1187.29 404.38 1187.86 392.44 1188.02 380.99 C 1187.99 361.65 1188.00 342.30 1188.02 322.96 C 1188.04 315.98 1187.78 308.45 1191.24 302.14 C 1194.93 296.26 1202.58 295.87 1208.77 295.00 C 1208.75 293.48 1208.75 291.96 1208.77 290.45 C 1191.54 290.53 1174.31 290.51 1157.08 290.45 C 1156.99 291.95 1156.93 293.45 1156.90 294.96 C 1162.60 295.54 1169.33 295.76 1173.29 300.58 C 1177.57 306.42 1177.58 314.03 1177.94 320.96 C 1178.04 336.64 1177.95 352.32 1177.98 368.00 C 1177.93 378.02 1178.26 388.08 1177.17 398.06 C 1176.39 404.80 1174.66 411.81 1169.89 416.90 C 1160.75 427.72 1145.63 431.35 1132.00 430.22 C 1122.50 429.62 1112.53 426.26 1106.51 418.51 C 1099.58 410.01 1098.45 398.57 1098.27 388.01 C 1098.23 363.34 1098.27 338.67 1098.25 313.99 C 1098.51 309.15 1098.35 303.64 1101.66 299.71 C 1106.25 295.65 1112.81 295.74 1118.55 294.93 C 1118.49 293.43 1118.46 291.94 1118.44 290.45 C 1097.45 290.54 1076.46 290.50 1055.48 290.46 M 1216.05 290.48 C 1215.99 291.98 1215.94 293.49 1215.92 295.00 C 1221.48 295.53 1227.55 295.36 1232.40 298.58 C 1236.23 301.84 1236.81 307.28 1236.95 311.99 C 1236.96 344.34 1236.94 376.69 1236.96 409.04 C 1236.67 415.12 1236.47 421.73 1232.86 426.90 C 1228.75 432.09 1221.57 432.32 1215.52 432.82 C 1215.48 434.32 1215.47 435.82 1215.48 437.32 C 1232.92 437.15 1250.37 437.34 1267.82 437.23 C 1267.78 435.72 1267.77 434.23 1267.77 432.74 C 1261.41 432.73 1253.67 431.59 1250.37 425.39 C 1246.50 417.90 1247.20 409.15 1247.03 400.98 C 1247.02 372.69 1247.06 344.39 1247.01 316.10 C 1265.40 356.46 1283.85 396.79 1302.20 437.16 C 1303.05 437.21 1304.75 437.31 1305.59 437.36 C 1320.95 403.15 1336.15 368.86 1351.49 334.64 C 1354.76 326.63 1358.96 319.02 1361.75 310.82 C 1362.03 314.85 1362.01 318.90 1361.97 322.94 C 1361.99 352.29 1361.96 381.63 1361.99 410.97 C 1361.88 416.17 1362.13 421.74 1359.67 426.49 C 1356.00 432.39 1348.16 432.35 1342.02 432.80 C 1341.99 434.29 1341.99 435.79 1342.04 437.30 C 1362.70 437.21 1383.36 437.29 1404.03 437.25 C 1404.02 435.77 1404.02 434.30 1404.03 432.84 C 1398.39 432.29 1391.39 432.35 1387.71 427.29 C 1384.23 421.53 1384.94 414.45 1384.76 408.00 C 1384.80 377.00 1384.72 346.01 1384.79 315.01 C 1385.08 309.38 1384.84 302.62 1389.57 298.63 C 1393.69 295.51 1399.14 295.64 1404.05 295.01 C 1404.00 293.48 1403.96 291.95 1403.92 290.42 C 1389.19 290.65 1374.46 290.37 1359.73 290.55 C 1343.55 327.70 1327.43 364.89 1310.94 401.90 C 1294.06 364.77 1277.07 327.68 1260.07 290.60 C 1245.39 290.38 1230.72 290.56 1216.05 290.48 M 1411.52 290.43 C 1411.47 291.94 1411.44 293.45 1411.44 294.96 C 1417.37 295.76 1425.11 295.52 1428.46 301.55 C 1431.84 308.86 1430.41 317.20 1430.73 325.00 C 1430.72 355.02 1430.77 385.04 1430.72 415.06 C 1430.41 419.78 1430.16 425.14 1426.65 428.71 C 1422.54 432.38 1416.67 432.36 1411.50 432.81 C 1411.46 434.28 1411.45 435.76 1411.45 437.24 C 1451.35 437.30 1491.26 437.23 1531.16 437.28 C 1534.60 424.80 1537.81 412.26 1541.18 399.76 C 1539.00 399.74 1536.83 399.73 1534.68 399.75 C 1530.67 408.74 1525.45 417.87 1516.60 422.87 C 1505.79 428.85 1493.00 428.59 1481.02 428.70 C 1473.11 428.05 1465.00 429.26 1457.25 427.25 C 1454.23 426.73 1453.39 423.60 1453.52 420.97 C 1453.50 402.25 1453.53 383.52 1453.52 364.80 C 1463.02 364.68 1472.52 365.17 1482.03 365.08 C 1489.51 365.63 1497.74 364.30 1504.47 368.38 C 1509.93 372.53 1510.52 379.99 1511.72 386.24 C 1513.48 386.24 1515.27 386.27 1517.06 386.30 C 1516.98 369.02 1517.05 351.74 1517.00 334.46 C 1515.20 334.48 1513.42 334.51 1511.66 334.53 C 1510.65 340.50 1510.09 347.33 1505.23 351.57 C 1501.63 354.78 1496.49 355.10 1491.92 355.46 C 1479.12 355.57 1466.32 355.48 1453.53 355.49 C 1453.50 339.34 1453.53 323.18 1453.51 307.02 C 1453.67 304.69 1453.46 301.91 1455.34 300.16 C 1457.03 299.19 1459.05 299.27 1460.96 299.24 C 1472.98 299.35 1485.00 299.18 1497.02 299.33 C 1503.72 299.70 1511.11 300.07 1516.56 304.49 C 1521.61 309.01 1522.90 316.07 1524.01 322.44 C 1525.92 322.47 1527.84 322.48 1529.78 322.50 C 1529.80 311.83 1529.24 301.16 1529.24 290.49 C 1490.00 290.45 1450.76 290.59 1411.52 290.43 M 1565.76 359.30 C 1575.96 369.15 1585.76 379.42 1595.97 389.28 C 1605.98 379.32 1615.81 369.17 1625.98 359.36 C 1616.15 349.05 1605.97 339.05 1595.81 329.06 C 1585.81 339.15 1575.56 349.02 1565.76 359.30 Z" />
<path fill="#ffffff" opacity="1.00" d=" M 1333.07 50.35 C 1334.72 48.27 1337.60 48.08 1340.04 47.83 C 1348.77 47.47 1357.79 47.70 1366.02 50.95 C 1374.07 53.89 1380.76 60.90 1382.44 69.42 C 1384.19 78.30 1383.54 88.40 1377.84 95.81 C 1373.17 102.20 1365.53 105.62 1358.02 107.36 C 1349.42 109.32 1340.56 109.81 1331.78 109.76 C 1331.75 91.84 1331.77 73.92 1331.77 56.00 C 1331.82 54.08 1331.76 51.92 1333.07 50.35 Z" />
<path fill="#ffffff" opacity="1.00" d=" M 1793.40 128.74 C 1801.73 108.71 1809.98 88.65 1818.56 68.73 C 1827.07 88.73 1835.41 108.79 1843.95 128.78 C 1827.10 128.65 1810.25 128.75 1793.40 128.74 Z" />
<path fill="#ffffff" opacity="1.00" d=" M 137.16 111.78 C 145.36 110.65 153.55 107.32 161.90 109.11 C 171.26 110.60 181.18 108.90 190.09 112.75 C 196.26 115.45 202.28 118.55 208.04 122.06 C 213.05 125.13 215.71 130.58 217.94 135.78 C 218.10 137.39 217.50 139.26 216.24 140.31 C 207.88 144.07 200.31 150.13 190.93 151.19 C 185.91 151.59 180.97 152.96 175.93 152.90 C 170.01 152.51 166.17 147.56 161.77 144.23 C 156.99 140.45 154.40 134.86 151.48 129.68 C 150.38 127.92 151.60 125.97 152.54 124.46 C 159.03 125.36 164.53 119.33 171.18 121.31 C 177.98 123.43 185.14 124.46 191.66 127.43 C 192.74 128.26 193.14 129.71 193.31 131.01 C 192.19 135.50 188.13 138.23 184.38 140.44 C 180.39 142.89 174.74 143.06 171.08 139.91 C 168.54 137.33 166.96 134.01 164.94 131.05 C 163.37 129.23 160.79 129.18 158.61 128.81 C 160.10 131.83 159.41 136.32 163.00 137.86 C 168.40 141.12 173.25 146.30 179.96 146.51 C 184.90 146.10 189.35 143.76 193.93 142.10 C 198.78 140.43 203.88 139.56 208.68 137.77 C 209.83 136.69 210.43 134.24 208.85 133.27 C 204.78 130.69 201.91 126.61 197.60 124.38 C 191.09 120.97 184.36 117.25 176.86 116.82 C 170.66 116.21 164.42 116.67 158.21 116.41 C 149.61 115.78 141.99 120.64 133.73 122.16 C 133.30 118.32 135.68 115.12 137.16 111.78 Z" />
<path fill="#ffffff" opacity="1.00" d=" M 380.22 234.89 C 387.04 226.26 393.03 217.02 399.75 208.32 C 400.36 222.11 401.05 235.91 402.04 249.68 C 380.69 246.32 358.61 245.89 337.44 250.65 C 321.64 255.06 307.12 263.60 294.75 274.27 C 294.67 274.73 294.53 275.66 294.46 276.12 C 294.40 275.66 294.30 274.75 294.25 274.29 C 283.77 267.03 273.12 259.98 262.83 252.45 C 267.19 253.81 271.53 255.22 275.97 256.31 C 274.63 252.03 273.17 247.80 271.72 243.57 C 277.88 245.09 283.97 246.90 290.14 248.39 C 292.15 245.28 294.34 242.28 296.47 239.25 C 300.46 240.80 304.56 242.06 308.55 243.62 C 309.80 238.42 310.56 233.12 311.70 227.90 C 318.66 231.52 325.14 236.01 332.04 239.75 C 334.16 236.36 336.45 233.08 338.50 229.65 C 344.82 232.23 351.27 234.49 357.69 236.82 C 361.83 233.29 365.85 229.61 370.05 226.16 C 370.39 226.17 371.07 226.20 371.41 226.21 C 374.44 229.01 377.17 232.11 380.22 234.89 Z" />
<path fill="#ffffff" opacity="1.00" d=" M 941.91 378.81 C 950.43 358.76 958.54 338.54 967.31 318.60 C 975.59 338.73 984.27 358.70 992.58 378.82 C 975.69 378.67 958.80 378.69 941.91 378.81 Z" />
</g>
<g id="#c8c8c8ff">
<path fill="#c8c8c8" opacity="1.00" d=" M 359.47 12.25 C 377.32 11.44 395.30 9.54 413.11 11.88 C 412.29 11.85 410.65 11.79 409.83 11.76 C 414.42 20.57 419.72 29.00 424.15 37.88 C 428.49 49.80 432.24 61.92 436.47 73.88 C 437.52 77.11 439.20 80.48 438.12 83.94 C 434.62 99.55 431.55 115.26 428.01 130.87 C 420.67 136.53 413.32 142.19 405.96 147.83 C 400.96 152.19 396.86 157.48 392.19 162.19 C 388.96 165.69 383.85 165.91 379.69 167.72 C 368.35 171.40 357.38 176.45 345.55 178.48 C 340.75 179.35 336.05 181.22 331.10 180.86 C 323.73 180.48 316.31 180.74 308.97 180.03 C 303.99 178.25 299.69 174.99 294.96 172.67 C 293.13 173.13 291.31 173.60 289.48 174.05 C 286.04 170.34 282.58 166.65 279.14 162.93 C 275.74 159.38 274.65 154.33 271.35 150.70 C 268.49 147.66 267.52 143.53 266.21 139.70 C 258.54 117.74 250.87 95.78 243.17 73.83 C 242.14 70.20 238.71 68.22 236.09 65.84 C 225.60 56.69 215.14 47.50 204.59 38.42 C 219.68 32.02 234.82 25.74 249.85 19.22 C 260.61 18.37 271.47 17.67 282.26 17.07 C 281.45 17.15 279.84 17.32 279.03 17.41 C 281.25 30.23 283.26 43.08 285.50 55.90 C 288.97 66.87 296.78 76.34 298.13 88.01 C 299.30 94.35 300.48 100.70 301.67 107.04 C 301.97 109.15 303.22 110.91 304.49 112.55 C 313.62 124.03 322.41 135.77 331.38 147.39 C 343.23 143.40 355.32 140.07 366.65 134.68 C 371.52 133.29 373.71 128.43 376.75 124.86 C 378.93 121.82 382.24 119.07 382.06 114.98 C 382.75 105.11 385.37 94.77 381.71 85.19 C 374.25 60.89 366.77 36.59 359.47 12.25 Z" />
</g>
<g id="#434343ff">
<path fill="#434343" opacity="1.00" d=" M 674.20 10.48 C 695.37 10.51 716.55 10.50 737.72 10.48 C 737.86 36.99 737.75 63.50 737.78 90.01 C 737.71 102.67 738.13 115.36 736.98 127.99 C 735.94 138.49 732.90 149.00 726.68 157.64 C 717.67 170.35 703.46 178.23 688.98 183.15 C 667.44 190.16 644.53 191.86 622.00 191.14 C 602.22 190.18 582.17 187.23 563.96 179.11 C 550.40 173.04 537.96 163.00 531.71 149.24 C 526.28 137.63 525.73 124.58 525.52 111.98 C 525.49 78.16 525.56 44.34 525.48 10.52 C 546.67 10.49 567.85 10.46 589.04 10.54 C 589.02 41.35 589.02 72.17 589.03 102.98 C 588.94 114.10 589.30 125.97 595.21 135.76 C 600.76 144.79 611.29 149.22 621.47 150.32 C 633.35 151.61 646.03 151.29 656.93 145.86 C 663.78 142.53 668.87 136.17 671.20 128.98 C 674.21 120.34 674.33 111.07 674.22 102.02 C 674.22 71.51 674.24 41.00 674.20 10.48 Z" />
<path fill="#434343" opacity="1.00" d=" M 282.26 17.07 C 308.00 15.48 333.73 13.88 359.47 12.25 C 366.77 36.59 374.25 60.89 381.71 85.19 C 385.37 94.77 382.75 105.11 382.06 114.98 C 382.24 119.07 378.93 121.82 376.75 124.86 C 373.71 128.43 371.52 133.29 366.65 134.68 C 355.32 140.07 343.23 143.40 331.38 147.39 C 322.41 135.77 313.62 124.03 304.49 112.55 C 303.22 110.91 301.97 109.15 301.67 107.04 C 300.48 100.70 299.30 94.35 298.13 88.01 C 296.78 76.34 288.97 66.87 285.50 55.90 C 283.26 43.08 281.25 30.23 279.03 17.41 C 279.84 17.32 281.45 17.15 282.26 17.07 Z" />
<path fill="#434343" opacity="1.00" d=" M 409.83 11.76 C 410.65 11.79 412.29 11.85 413.11 11.88 C 430.34 13.60 447.56 15.38 464.80 17.08 C 464.63 29.71 465.01 42.34 464.51 54.96 C 464.38 70.98 464.78 87.02 464.24 103.03 C 464.23 120.03 464.41 137.02 463.99 154.01 C 464.91 196.00 465.96 237.99 466.83 279.98 C 468.02 310.31 469.87 340.62 471.32 370.94 C 471.42 376.24 472.41 381.57 471.52 386.85 C 469.01 405.37 466.66 423.91 464.21 442.44 C 444.64 443.87 425.07 445.29 405.50 446.56 C 404.05 446.19 401.64 446.77 401.34 444.76 C 398.27 436.43 400.76 427.62 400.52 419.05 C 400.39 413.66 400.96 408.31 401.41 402.95 C 402.13 375.25 404.26 347.64 404.84 319.93 C 405.51 313.62 405.65 307.27 405.93 300.94 C 407.14 293.57 410.04 286.60 411.73 279.34 C 392.50 279.89 373.25 279.55 354.02 279.83 C 343.92 280.61 333.79 280.02 323.67 280.22 C 329.55 286.22 336.53 291.07 342.26 297.22 C 342.61 312.80 342.22 328.42 342.34 344.01 C 343.84 353.09 346.27 362.01 347.86 371.09 C 348.60 375.75 350.41 380.24 350.47 385.01 C 350.65 402.01 350.28 419.00 350.43 436.00 C 350.43 438.63 349.90 441.22 349.33 443.78 C 348.25 443.90 347.17 444.02 346.10 444.12 C 297.12 441.89 248.14 439.41 199.15 437.11 C 195.79 436.94 192.44 437.30 189.09 437.34 C 133.58 439.79 78.05 441.96 22.55 444.56 C 21.33 423.42 19.92 402.30 18.65 381.17 C 18.32 377.11 18.08 373.04 18.29 368.97 C 20.60 323.60 22.87 278.24 25.18 232.87 C 25.46 222.92 26.69 212.98 26.05 203.02 C 24.89 167.67 23.68 132.32 22.50 96.97 C 22.49 70.94 22.19 44.92 22.01 18.89 C 80.41 19.99 138.81 20.60 197.20 21.65 C 214.78 22.06 232.30 19.85 249.85 19.22 C 234.82 25.74 219.68 32.02 204.59 38.42 C 215.14 47.50 225.60 56.69 236.09 65.84 C 238.71 68.22 242.14 70.20 243.17 73.83 C 250.87 95.78 258.54 117.74 266.21 139.70 C 267.52 143.53 268.49 147.66 271.35 150.70 C 274.65 154.33 275.74 159.38 279.14 162.93 C 282.58 166.65 286.04 170.34 289.48 174.05 C 291.31 173.60 293.13 173.13 294.96 172.67 C 299.69 174.99 303.99 178.25 308.97 180.03 C 316.31 180.74 323.73 180.48 331.10 180.86 C 336.05 181.22 340.75 179.35 345.55 178.48 C 357.38 176.45 368.35 171.40 379.69 167.72 C 383.85 165.91 388.96 165.69 392.19 162.19 C 396.86 157.48 400.96 152.19 405.96 147.83 C 413.32 142.19 420.67 136.53 428.01 130.87 C 431.55 115.26 434.62 99.55 438.12 83.94 C 439.20 80.48 437.52 77.11 436.47 73.88 C 432.24 61.92 428.49 49.80 424.15 37.88 C 419.72 29.00 414.42 20.57 409.83 11.76 M 137.16 111.78 C 135.68 115.12 133.30 118.32 133.73 122.16 C 141.99 120.64 149.61 115.78 158.21 116.41 C 164.42 116.67 170.66 116.21 176.86 116.82 C 184.36 117.25 191.09 120.97 197.60 124.38 C 201.91 126.61 204.78 130.69 208.85 133.27 C 210.43 134.24 209.83 136.69 208.68 137.77 C 203.88 139.56 198.78 140.43 193.93 142.10 C 189.35 143.76 184.90 146.10 179.96 146.51 C 173.25 146.30 168.40 141.12 163.00 137.86 C 159.41 136.32 160.10 131.83 158.61 128.81 C 160.79 129.18 163.37 129.23 164.94 131.05 C 166.96 134.01 168.54 137.33 171.08 139.91 C 174.74 143.06 180.39 142.89 184.38 140.44 C 188.13 138.23 192.19 135.50 193.31 131.01 C 193.14 129.71 192.74 128.26 191.66 127.43 C 185.14 124.46 177.98 123.43 171.18 121.31 C 164.53 119.33 159.03 125.36 152.54 124.46 C 151.60 125.97 150.38 127.92 151.48 129.68 C 154.40 134.86 156.99 140.45 161.77 144.23 C 166.17 147.56 170.01 152.51 175.93 152.90 C 180.97 152.96 185.91 151.59 190.93 151.19 C 200.31 150.13 207.88 144.07 216.24 140.31 C 217.50 139.26 218.10 137.39 217.94 135.78 C 215.71 130.58 213.05 125.13 208.04 122.06 C 202.28 118.55 196.26 115.45 190.09 112.75 C 181.18 108.90 171.26 110.60 161.90 109.11 C 153.55 107.32 145.36 110.65 137.16 111.78 M 135.33 145.88 C 125.70 195.61 116.10 245.34 106.49 295.07 C 106.13 303.70 106.80 312.36 107.13 320.99 C 107.24 323.44 105.16 325.11 103.72 326.82 C 97.21 333.40 90.93 340.23 84.21 346.61 C 78.79 345.94 73.35 345.40 67.99 344.42 C 65.13 343.93 63.17 341.63 60.87 340.08 C 56.29 336.85 51.74 333.58 47.24 330.23 C 48.10 340.83 51.07 351.13 52.68 361.63 C 53.04 365.71 56.89 367.92 59.52 370.56 C 67.81 377.62 75.76 385.07 84.06 392.11 C 100.72 387.93 117.35 383.65 134.05 379.67 C 141.23 366.21 147.82 352.43 154.89 338.91 C 156.71 335.60 156.94 331.76 157.50 328.10 C 161.25 305.84 164.83 283.54 168.53 261.27 C 173.12 254.13 179.91 248.66 184.96 241.85 C 193.34 218.45 201.31 194.88 209.64 171.45 C 207.49 170.56 205.20 170.12 202.91 169.85 C 187.99 167.22 173.04 164.78 158.11 162.23 C 154.73 161.86 152.49 159.05 149.91 157.16 C 145.04 153.41 140.48 149.25 135.33 145.88 M 380.22 234.89 C 377.17 232.11 374.44 229.01 371.41 226.21 C 371.07 226.20 370.39 226.17 370.05 226.16 C 365.85 229.61 361.83 233.29 357.69 236.82 C 351.27 234.49 344.82 232.23 338.50 229.65 C 336.45 233.08 334.16 236.36 332.04 239.75 C 325.14 236.01 318.66 231.52 311.70 227.90 C 310.56 233.12 309.80 238.42 308.55 243.62 C 304.56 242.06 300.46 240.80 296.47 239.25 C 294.34 242.28 292.15 245.28 290.14 248.39 C 283.97 246.90 277.88 245.09 271.72 243.57 C 273.17 247.80 274.63 252.03 275.97 256.31 C 271.53 255.22 267.19 253.81 262.83 252.45 C 273.12 259.98 283.77 267.03 294.25 274.29 C 294.30 274.75 294.40 275.66 294.46 276.12 C 294.53 275.66 294.67 274.73 294.75 274.27 C 307.12 263.60 321.64 255.06 337.44 250.65 C 358.61 245.89 380.69 246.32 402.04 249.68 C 401.05 235.91 400.36 222.11 399.75 208.32 C 393.03 217.02 387.04 226.26 380.22 234.89 Z" />
<path fill="#434343" opacity="1.00" d=" M 1455.70 52.65 C 1465.63 38.12 1485.65 32.99 1502.07 37.92 C 1508.34 39.34 1514.06 42.72 1520.44 43.61 C 1524.88 43.93 1527.82 40.06 1528.36 36.01 C 1529.98 35.98 1531.60 35.96 1533.26 35.95 C 1534.62 51.84 1536.45 67.69 1538.07 83.56 C 1536.10 83.53 1534.15 83.51 1532.22 83.49 C 1530.02 73.28 1525.07 63.54 1517.53 56.25 C 1510.50 49.43 1500.80 45.29 1490.97 45.46 C 1484.61 45.51 1478.05 47.92 1473.77 52.73 C 1469.44 57.46 1468.12 64.39 1469.49 70.56 C 1471.40 78.24 1477.27 84.16 1483.50 88.70 C 1496.32 97.99 1510.94 104.52 1523.49 114.22 C 1529.60 119.17 1535.41 124.82 1538.99 131.93 C 1542.43 138.67 1543.40 146.47 1542.52 153.94 C 1541.01 165.46 1533.86 175.97 1523.90 181.90 C 1515.29 187.23 1504.99 189.20 1494.96 189.08 C 1486.02 188.92 1477.35 186.33 1469.05 183.20 C 1465.51 182.08 1461.25 180.23 1457.90 182.79 C 1455.83 184.12 1455.31 186.58 1454.78 188.80 C 1453.13 188.79 1451.50 188.78 1449.88 188.78 C 1447.74 173.06 1445.32 157.38 1443.32 141.65 C 1445.06 141.69 1446.84 141.74 1448.63 141.75 C 1452.81 151.99 1457.86 162.29 1466.15 169.85 C 1471.61 175.10 1478.60 178.68 1486.04 180.10 C 1495.03 181.82 1505.33 180.68 1512.31 174.24 C 1522.67 165.22 1522.99 147.43 1513.18 137.87 C 1501.14 125.98 1485.53 118.82 1471.54 109.59 C 1462.54 103.67 1453.92 95.75 1451.07 84.98 C 1448.35 74.20 1449.44 62.05 1455.70 52.65 Z" />
<path fill="#434343" opacity="1.00" d=" M 1821.80 36.59 C 1823.36 36.52 1824.95 36.47 1826.56 36.42 C 1843.42 74.93 1860.34 113.41 1877.17 151.93 C 1881.04 159.89 1883.64 168.61 1888.98 175.77 C 1891.73 179.85 1896.82 181.21 1901.49 181.47 C 1901.45 182.99 1901.44 184.52 1901.46 186.04 C 1882.64 185.99 1863.82 185.98 1845.00 186.04 C 1844.96 184.54 1844.97 183.04 1844.99 181.54 C 1849.53 181.32 1854.83 181.84 1858.49 178.59 C 1861.97 174.88 1859.95 169.51 1858.57 165.33 C 1854.98 156.22 1851.01 147.27 1847.18 138.26 C 1827.93 138.17 1808.68 138.34 1789.44 138.18 C 1786.29 146.16 1783.22 154.17 1780.01 162.12 C 1778.17 166.76 1776.11 172.35 1778.78 177.07 C 1781.93 181.25 1787.73 181.38 1792.51 181.51 C 1792.13 182.96 1793.59 186.17 1791.15 185.98 C 1776.92 186.04 1762.70 185.99 1748.47 186.02 C 1748.45 184.51 1748.46 183.02 1748.49 181.52 C 1754.49 181.52 1759.88 177.89 1762.66 172.67 C 1771.88 156.71 1778.11 139.27 1785.56 122.45 C 1797.58 93.81 1809.88 65.28 1821.80 36.59 M 1793.40 128.74 C 1810.25 128.75 1827.10 128.65 1843.95 128.78 C 1835.41 108.79 1827.07 88.73 1818.56 68.73 C 1809.98 88.65 1801.73 108.71 1793.40 128.74 Z" />
<path fill="#434343" opacity="1.00" d=" M 761.03 39.23 C 772.37 39.21 783.71 39.28 795.04 39.21 C 796.44 39.32 798.01 38.95 799.34 39.58 C 827.56 74.97 855.74 110.41 883.97 145.80 C 883.96 119.86 884.03 93.92 883.93 67.98 C 883.52 61.28 883.39 53.70 878.70 48.38 C 874.49 44.32 868.20 44.18 862.71 43.74 C 862.72 42.23 862.72 40.72 862.73 39.21 C 880.14 39.22 897.56 39.31 914.97 39.18 C 915.00 40.69 915.04 42.19 915.09 43.69 C 909.31 44.33 902.58 44.77 898.50 49.46 C 894.38 55.41 894.23 63.01 894.03 69.98 C 894.02 109.40 894.02 148.82 894.02 188.24 C 892.62 188.26 891.22 188.27 889.84 188.29 C 857.47 147.84 824.98 107.48 792.57 67.06 C 792.46 97.37 792.51 127.68 792.53 158.00 C 792.92 164.31 793.13 171.47 797.58 176.45 C 801.52 180.80 807.77 181.06 813.21 181.59 C 813.22 183.05 813.25 184.51 813.33 185.97 C 795.85 186.03 778.38 186.04 760.91 185.98 C 761.06 184.52 760.61 182.87 761.30 181.54 C 766.17 180.74 771.54 180.88 775.75 177.93 C 779.30 175.47 780.78 171.18 781.50 167.11 C 782.67 160.15 782.47 153.06 782.48 146.02 C 782.53 115.99 782.43 85.96 782.50 55.93 C 779.54 52.41 776.58 48.74 772.68 46.21 C 769.22 43.95 764.95 43.61 760.94 43.73 C 760.95 42.23 760.98 40.73 761.03 39.23 Z" />
<path fill="#434343" opacity="1.00" d=" M 921.96 39.21 C 943.99 39.26 966.02 39.23 988.06 39.23 C 988.02 40.72 988.01 42.22 988.00 43.71 C 982.00 44.17 974.97 43.63 970.22 48.01 C 965.87 52.87 966.37 59.96 966.24 66.03 C 966.30 98.72 966.21 131.41 966.28 164.10 C 966.61 169.17 967.10 175.26 971.73 178.36 C 976.55 181.34 982.49 181.13 987.95 181.47 C 987.98 182.99 988.01 184.52 988.07 186.05 C 966.02 185.98 943.98 185.99 921.94 186.04 C 921.94 184.54 921.97 183.04 922.02 181.54 C 927.94 181.04 934.70 181.49 939.55 177.41 C 943.38 173.70 943.25 167.92 943.48 162.98 C 943.51 129.33 943.51 95.68 943.48 62.02 C 943.21 57.10 943.35 51.29 939.44 47.65 C 934.44 44.05 927.91 44.03 922.00 43.73 C 921.97 42.23 921.95 40.72 921.96 39.21 Z" />
<path fill="#434343" opacity="1.00" d=" M 995.24 39.25 C 1014.89 39.21 1034.54 39.27 1054.20 39.21 C 1054.24 40.69 1054.29 42.18 1054.35 43.66 C 1050.95 43.85 1047.55 44.12 1044.17 44.35 L 1044.41 45.57 C 1044.16 45.29 1043.66 44.74 1043.41 44.47 C 1041.24 45.42 1038.48 46.39 1038.00 49.06 C 1037.00 54.38 1040.06 59.29 1041.85 64.11 C 1052.09 87.42 1062.57 110.62 1072.95 133.86 C 1075.51 138.94 1077.08 144.53 1080.22 149.29 C 1091.17 121.92 1102.16 94.57 1113.04 67.17 C 1114.86 61.73 1117.62 55.92 1116.06 50.08 C 1113.69 43.97 1105.96 44.05 1100.49 43.70 C 1100.47 42.22 1100.46 40.74 1100.47 39.26 C 1115.63 39.18 1130.80 39.29 1145.96 39.20 C 1145.97 40.99 1145.96 42.78 1145.84 44.57 C 1140.48 42.80 1134.72 46.39 1131.99 50.97 C 1127.56 58.38 1124.87 66.65 1121.64 74.63 C 1106.66 112.52 1091.62 150.39 1076.68 188.30 C 1075.42 188.25 1074.19 188.21 1072.97 188.17 C 1054.10 146.28 1035.46 104.30 1016.54 62.43 C 1013.82 57.02 1011.22 51.25 1006.56 47.19 C 1003.41 44.54 999.21 43.86 995.23 43.59 C 995.22 42.14 995.22 40.69 995.24 39.25 Z" />
<path fill="#434343" opacity="1.00" d=" M 1154.00 39.24 C 1193.27 39.22 1232.53 39.25 1271.79 39.23 C 1271.72 49.85 1272.41 60.45 1272.24 71.07 C 1270.32 71.04 1268.41 71.00 1266.53 70.93 C 1265.54 65.21 1264.35 59.10 1260.42 54.59 C 1256.37 49.95 1249.90 48.75 1244.06 48.27 C 1231.71 47.49 1219.33 47.86 1206.97 47.74 C 1203.65 47.76 1200.21 47.66 1197.15 49.08 C 1196.45 51.32 1195.89 53.62 1196.01 55.98 C 1196.06 72.07 1196.00 88.16 1196.04 104.26 C 1208.35 104.19 1220.66 104.30 1232.97 104.22 C 1238.35 103.95 1244.41 103.49 1248.53 99.59 C 1252.63 95.19 1253.11 88.86 1254.24 83.24 C 1255.99 83.23 1257.75 83.23 1259.54 83.24 C 1259.40 100.42 1259.62 117.61 1259.43 134.79 C 1257.68 134.78 1255.96 134.80 1254.24 134.81 C 1253.00 128.00 1252.09 119.18 1244.97 115.89 C 1236.67 112.86 1227.62 114.05 1218.97 113.75 C 1211.33 113.30 1203.69 113.71 1196.05 113.40 C 1196.05 132.60 1195.93 151.80 1196.11 171.00 C 1195.85 174.10 1198.70 176.06 1201.51 176.33 C 1210.93 177.72 1220.48 177.06 1229.98 177.24 C 1240.01 177.15 1250.52 176.38 1259.45 171.36 C 1267.99 166.21 1273.38 157.30 1277.14 148.31 C 1279.31 148.24 1281.49 148.19 1283.69 148.14 C 1280.55 160.81 1276.92 173.35 1273.70 186.01 C 1233.76 186.01 1193.81 185.98 1153.87 186.03 C 1153.93 184.52 1154.02 183.01 1154.12 181.50 C 1159.85 180.87 1167.04 180.96 1170.61 175.55 C 1173.74 169.92 1173.17 163.20 1173.23 156.99 C 1173.21 125.32 1173.24 93.64 1173.22 61.97 C 1173.00 56.89 1172.82 50.89 1168.64 47.30 C 1164.41 44.27 1158.96 44.11 1153.98 43.75 C 1153.96 42.24 1153.97 40.74 1154.00 39.24 Z" />
<path fill="#434343" opacity="1.00" d=" M 1290.32 39.24 C 1306.52 39.22 1322.72 39.24 1338.93 39.24 C 1348.31 39.31 1357.74 38.81 1367.06 40.23 C 1377.26 41.70 1387.70 44.64 1395.83 51.27 C 1409.49 62.10 1411.49 83.87 1401.88 97.96 C 1394.12 108.85 1380.46 113.02 1367.90 115.28 C 1381.27 131.86 1394.79 148.31 1408.18 164.88 C 1412.19 169.54 1415.62 174.96 1421.03 178.19 C 1424.44 180.39 1428.52 181.06 1432.48 181.62 C 1432.49 183.04 1432.51 184.46 1432.57 185.89 C 1420.68 186.07 1408.78 186.10 1396.91 185.91 C 1392.67 181.51 1389.36 176.26 1385.47 171.55 C 1372.22 154.34 1358.91 137.18 1345.67 119.97 C 1344.94 119.23 1344.45 118.14 1343.46 117.79 C 1339.54 117.93 1335.63 118.07 1331.74 118.39 C 1331.83 133.59 1331.68 148.79 1331.81 163.99 C 1332.08 168.76 1332.13 174.50 1336.24 177.76 C 1340.65 181.07 1346.48 180.98 1351.73 181.51 C 1351.74 183.01 1351.76 184.51 1351.82 186.01 C 1331.27 185.97 1310.73 186.06 1290.19 185.96 C 1290.18 184.48 1290.21 182.99 1290.25 181.51 C 1296.10 180.82 1303.71 180.86 1307.01 174.99 C 1309.66 169.05 1308.78 162.32 1308.96 156.00 C 1308.94 124.32 1308.99 92.65 1308.94 60.97 C 1308.76 56.22 1308.62 50.56 1304.57 47.34 C 1300.39 44.38 1295.02 44.41 1290.15 43.61 C 1290.19 42.15 1290.24 40.70 1290.32 39.24 M 1333.07 50.35 C 1331.76 51.92 1331.82 54.08 1331.77 56.00 C 1331.77 73.92 1331.75 91.84 1331.78 109.76 C 1340.56 109.81 1349.42 109.32 1358.02 107.36 C 1365.53 105.62 1373.17 102.20 1377.84 95.81 C 1383.54 88.40 1384.19 78.30 1382.44 69.42 C 1380.76 60.90 1374.07 53.89 1366.02 50.95 C 1357.79 47.70 1348.77 47.47 1340.04 47.83 C 1337.60 48.08 1334.72 48.27 1333.07 50.35 Z" />
<path fill="#434343" opacity="1.00" d=" M 1561.01 39.24 C 1582.99 39.18 1604.98 39.32 1626.97 39.17 C 1626.86 40.99 1627.36 42.98 1626.48 44.67 C 1624.94 43.30 1622.77 43.97 1620.97 44.01 C 1616.62 44.43 1611.77 45.06 1608.66 48.45 C 1605.16 53.22 1605.21 59.41 1605.25 65.05 C 1605.28 96.36 1605.28 127.67 1605.25 158.97 C 1605.31 165.03 1604.76 172.06 1609.02 176.96 C 1613.68 181.55 1620.88 181.04 1626.94 181.52 C 1626.97 183.02 1626.99 184.52 1627.04 186.03 C 1605.02 185.94 1583.00 186.07 1560.98 185.98 C 1560.96 184.49 1560.98 183.00 1561.02 181.51 C 1566.89 181.00 1573.70 181.48 1578.48 177.42 C 1582.62 173.44 1582.07 167.21 1582.46 161.96 C 1582.49 129.00 1582.53 96.03 1582.44 63.07 C 1582.16 57.44 1582.50 50.30 1577.15 46.79 C 1572.30 44.02 1566.45 44.02 1561.04 43.73 C 1560.99 42.23 1560.98 40.73 1561.01 39.24 Z" />
<path fill="#434343" opacity="1.00" d=" M 1635.53 39.44 C 1677.24 38.98 1718.98 39.34 1760.70 39.26 C 1761.21 51.83 1761.46 64.41 1762.11 76.97 C 1760.21 76.84 1758.13 77.48 1756.38 76.72 C 1754.42 67.82 1752.53 57.08 1743.85 52.20 C 1733.11 47.32 1720.95 49.18 1709.52 48.77 C 1709.53 86.83 1709.48 124.90 1709.55 162.96 C 1709.79 168.10 1709.73 174.41 1714.33 177.81 C 1719.05 181.21 1725.22 180.95 1730.77 181.55 C 1730.74 183.05 1730.73 184.55 1730.73 186.05 C 1709.16 185.98 1687.59 185.97 1666.02 186.07 C 1665.98 184.54 1665.99 183.02 1666.04 181.50 C 1671.85 180.95 1678.43 181.02 1683.16 177.06 C 1687.18 172.37 1686.63 165.72 1686.76 159.96 C 1686.69 122.87 1686.76 85.79 1686.73 48.71 C 1675.52 49.22 1663.64 47.36 1653.09 52.04 C 1643.97 56.78 1641.94 67.92 1639.90 77.03 C 1638.00 77.05 1636.11 77.05 1634.25 77.06 C 1634.74 64.53 1635.29 51.99 1635.53 39.44 Z" />
<path fill="#434343" opacity="1.00" d=" M 1885.45 39.27 C 1927.13 39.20 1968.81 39.25 2010.49 39.25 C 2010.88 51.82 2011.37 64.39 2011.81 76.96 C 2009.94 77.01 2008.11 77.07 2006.29 77.12 C 2004.18 67.72 2002.19 55.95 1992.33 51.57 C 1981.79 47.61 1970.26 48.99 1959.24 48.85 C 1959.31 86.57 1959.22 124.28 1959.28 161.99 C 1959.54 167.28 1959.22 173.54 1963.55 177.38 C 1968.28 181.22 1974.76 180.98 1980.51 181.54 C 1980.51 183.00 1980.51 184.47 1980.56 185.93 C 1958.96 186.08 1937.35 186.00 1915.75 185.98 C 1915.73 184.50 1915.73 183.03 1915.75 181.55 C 1921.75 180.91 1928.81 181.13 1933.36 176.47 C 1937.00 171.84 1936.34 165.53 1936.50 160.00 C 1936.46 122.93 1936.51 85.86 1936.47 48.79 C 1925.77 49.04 1914.61 47.68 1904.33 51.33 C 1894.07 55.35 1891.78 67.47 1889.68 77.02 C 1887.77 77.03 1885.88 77.04 1884.01 77.04 C 1884.69 64.46 1884.80 51.85 1885.45 39.27 Z" />
<path fill="#434343" opacity="1.00" d=" M 1675.21 262.00 C 1695.21 261.99 1715.21 261.99 1735.22 262.00 C 1737.13 261.52 1736.32 263.95 1736.55 264.94 C 1736.48 321.60 1736.49 378.26 1736.55 434.91 C 1716.10 435.14 1695.64 435.01 1675.19 434.97 C 1675.24 377.32 1675.21 319.66 1675.21 262.00 Z" />
<path fill="#434343" opacity="1.00" d=" M 833.47 263.25 C 854.82 263.21 876.17 263.24 897.52 263.24 C 897.51 303.17 897.50 343.10 897.52 383.03 C 897.33 398.91 890.22 414.79 877.56 424.59 C 861.33 437.25 840.13 441.08 820.02 441.53 C 802.01 442.17 783.44 438.61 768.03 428.92 C 762.34 425.18 756.90 420.98 752.36 415.90 C 764.78 406.72 777.16 397.48 789.56 388.27 C 795.34 393.75 801.60 399.07 809.14 401.91 C 817.17 404.86 828.33 402.47 831.51 393.66 C 833.68 388.07 833.39 381.93 833.51 376.04 C 833.47 338.44 833.54 300.85 833.47 263.25 Z" />
<path fill="#434343" opacity="1.00" d=" M 970.40 286.53 C 972.02 286.52 973.65 286.51 975.30 286.52 C 993.77 328.77 1012.34 370.98 1030.84 413.22 C 1033.18 418.27 1035.37 423.59 1039.31 427.64 C 1042.18 430.54 1046.45 430.92 1050.28 431.45 C 1050.29 432.51 1050.31 434.63 1050.31 435.68 C 1031.37 435.88 1012.43 435.71 993.49 435.77 C 993.48 434.36 993.49 432.95 993.50 431.54 C 998.34 430.89 1004.54 432.10 1007.88 427.60 C 1010.10 423.93 1008.57 419.42 1007.35 415.68 C 1003.83 406.30 999.62 397.21 995.73 387.99 C 976.53 388.05 957.33 388.04 938.12 388.00 C 934.60 397.14 930.83 406.18 927.43 415.36 C 926.15 419.33 925.08 424.35 928.13 427.79 C 931.47 431.41 936.76 431.06 941.25 431.55 C 941.24 432.97 941.24 434.41 941.25 435.85 C 926.60 435.72 911.94 435.71 897.29 435.85 C 897.24 434.35 897.21 432.86 897.19 431.37 C 903.86 431.59 909.29 426.83 912.17 421.18 C 919.48 408.22 924.75 394.27 930.68 380.66 C 943.87 349.26 957.42 318.01 970.40 286.53 M 941.91 378.81 C 958.80 378.69 975.69 378.67 992.58 378.82 C 984.27 358.70 975.59 338.73 967.31 318.60 C 958.54 338.54 950.43 358.76 941.91 378.81 Z" />
<path fill="#434343" opacity="1.00" d=" M 1055.48 290.46 C 1076.46 290.50 1097.45 290.54 1118.44 290.45 C 1118.46 291.94 1118.49 293.43 1118.55 294.93 C 1112.81 295.74 1106.25 295.65 1101.66 299.71 C 1098.35 303.64 1098.51 309.15 1098.25 313.99 C 1098.27 338.67 1098.23 363.34 1098.27 388.01 C 1098.45 398.57 1099.58 410.01 1106.51 418.51 C 1112.53 426.26 1122.50 429.62 1132.00 430.22 C 1145.63 431.35 1160.75 427.72 1169.89 416.90 C 1174.66 411.81 1176.39 404.80 1177.17 398.06 C 1178.26 388.08 1177.93 378.02 1177.98 368.00 C 1177.95 352.32 1178.04 336.64 1177.94 320.96 C 1177.58 314.03 1177.57 306.42 1173.29 300.58 C 1169.33 295.76 1162.60 295.54 1156.90 294.96 C 1156.93 293.45 1156.99 291.95 1157.08 290.45 C 1174.31 290.51 1191.54 290.53 1208.77 290.45 C 1208.75 291.96 1208.75 293.48 1208.77 295.00 C 1202.58 295.87 1194.93 296.26 1191.24 302.14 C 1187.78 308.45 1188.04 315.98 1188.02 322.96 C 1188.00 342.30 1187.99 361.65 1188.02 380.99 C 1187.86 392.44 1187.29 404.38 1182.08 414.83 C 1177.85 423.81 1170.16 431.03 1161.05 434.92 C 1148.45 440.28 1134.38 441.12 1120.88 439.91 C 1108.48 438.76 1095.79 434.16 1087.47 424.52 C 1078.73 414.54 1075.69 400.93 1075.50 387.97 C 1075.46 365.31 1075.50 342.64 1075.48 319.97 C 1075.45 314.57 1075.77 309.07 1074.40 303.79 C 1073.74 301.10 1071.90 298.77 1069.40 297.57 C 1065.06 295.50 1060.12 295.61 1055.46 294.89 C 1055.45 293.41 1055.46 291.94 1055.48 290.46 Z" />
<path fill="#434343" opacity="1.00" d=" M 1216.05 290.48 C 1230.72 290.56 1245.39 290.38 1260.07 290.60 C 1277.07 327.68 1294.06 364.77 1310.94 401.90 C 1327.43 364.89 1343.55 327.70 1359.73 290.55 C 1374.46 290.37 1389.19 290.65 1403.92 290.42 C 1403.96 291.95 1404.00 293.48 1404.05 295.01 C 1399.14 295.64 1393.69 295.51 1389.57 298.63 C 1384.84 302.62 1385.08 309.38 1384.79 315.01 C 1384.72 346.01 1384.80 377.00 1384.76 408.00 C 1384.94 414.45 1384.23 421.53 1387.71 427.29 C 1391.39 432.35 1398.39 432.29 1404.03 432.84 C 1404.02 434.30 1404.02 435.77 1404.03 437.25 C 1383.36 437.29 1362.70 437.21 1342.04 437.30 C 1341.99 435.79 1341.99 434.29 1342.02 432.80 C 1348.16 432.35 1356.00 432.39 1359.67 426.49 C 1362.13 421.74 1361.88 416.17 1361.99 410.97 C 1361.96 381.63 1361.99 352.29 1361.97 322.94 C 1362.01 318.90 1362.03 314.85 1361.75 310.82 C 1358.96 319.02 1354.76 326.63 1351.49 334.64 C 1336.15 368.86 1320.95 403.15 1305.59 437.36 C 1304.75 437.31 1303.05 437.21 1302.20 437.16 C 1283.85 396.79 1265.40 356.46 1247.01 316.10 C 1247.06 344.39 1247.02 372.69 1247.03 400.98 C 1247.20 409.15 1246.50 417.90 1250.37 425.39 C 1253.67 431.59 1261.41 432.73 1267.77 432.74 C 1267.77 434.23 1267.78 435.72 1267.82 437.23 C 1250.37 437.34 1232.92 437.15 1215.48 437.32 C 1215.47 435.82 1215.48 434.32 1215.52 432.82 C 1221.57 432.32 1228.75 432.09 1232.86 426.90 C 1236.47 421.73 1236.67 415.12 1236.96 409.04 C 1236.94 376.69 1236.96 344.34 1236.95 311.99 C 1236.81 307.28 1236.23 301.84 1232.40 298.58 C 1227.55 295.36 1221.48 295.53 1215.92 295.00 C 1215.94 293.49 1215.99 291.98 1216.05 290.48 Z" />
<path fill="#434343" opacity="1.00" d=" M 1411.52 290.43 C 1450.76 290.59 1490.00 290.45 1529.24 290.49 C 1529.24 301.16 1529.80 311.83 1529.78 322.50 C 1527.84 322.48 1525.92 322.47 1524.01 322.44 C 1522.90 316.07 1521.61 309.01 1516.56 304.49 C 1511.11 300.07 1503.72 299.70 1497.02 299.33 C 1485.00 299.18 1472.98 299.35 1460.96 299.24 C 1459.05 299.27 1457.03 299.19 1455.34 300.16 C 1453.46 301.91 1453.67 304.69 1453.51 307.02 C 1453.53 323.18 1453.50 339.34 1453.53 355.49 C 1466.32 355.48 1479.12 355.57 1491.92 355.46 C 1496.49 355.10 1501.63 354.78 1505.23 351.57 C 1510.09 347.33 1510.65 340.50 1511.66 334.53 C 1513.42 334.51 1515.20 334.48 1517.00 334.46 C 1517.05 351.74 1516.98 369.02 1517.06 386.30 C 1515.27 386.27 1513.48 386.24 1511.72 386.24 C 1510.52 379.99 1509.93 372.53 1504.47 368.38 C 1497.74 364.30 1489.51 365.63 1482.03 365.08 C 1472.52 365.17 1463.02 364.68 1453.52 364.80 C 1453.53 383.52 1453.50 402.25 1453.52 420.97 C 1453.39 423.60 1454.23 426.73 1457.25 427.25 C 1465.00 429.26 1473.11 428.05 1481.02 428.70 C 1493.00 428.59 1505.79 428.85 1516.60 422.87 C 1525.45 417.87 1530.67 408.74 1534.68 399.75 C 1536.83 399.73 1539.00 399.74 1541.18 399.76 C 1537.81 412.26 1534.60 424.80 1531.16 437.28 C 1491.26 437.23 1451.35 437.30 1411.45 437.24 C 1411.45 435.76 1411.46 434.28 1411.50 432.81 C 1416.67 432.36 1422.54 432.38 1426.65 428.71 C 1430.16 425.14 1430.41 419.78 1430.72 415.06 C 1430.77 385.04 1430.72 355.02 1430.73 325.00 C 1430.41 317.20 1431.84 308.86 1428.46 301.55 C 1425.11 295.52 1417.37 295.76 1411.44 294.96 C 1411.44 293.45 1411.47 291.94 1411.52 290.43 Z" />
<path fill="#434343" opacity="1.00" d=" M 1565.76 359.30 C 1575.56 349.02 1585.81 339.15 1595.81 329.06 C 1605.97 339.05 1616.15 349.05 1625.98 359.36 C 1615.81 369.17 1605.98 379.32 1595.97 389.28 C 1585.76 379.42 1575.96 369.15 1565.76 359.30 Z" />
<path fill="#434343" opacity="1.00" d=" M 398.06 446.77 C 398.82 445.71 400.29 445.62 401.06 446.74 L 400.23 447.33 C 399.69 447.19 398.60 446.91 398.06 446.77 Z" />
</g>
<g id="#959595ff">
<path fill="#959595" opacity="1.00" d=" M 135.33 145.88 C 140.48 149.25 145.04 153.41 149.91 157.16 C 152.49 159.05 154.73 161.86 158.11 162.23 C 173.04 164.78 187.99 167.22 202.91 169.85 C 205.20 170.12 207.49 170.56 209.64 171.45 C 201.31 194.88 193.34 218.45 184.96 241.85 C 179.91 248.66 173.12 254.13 168.53 261.27 C 164.83 283.54 161.25 305.84 157.50 328.10 C 156.94 331.76 156.71 335.60 154.89 338.91 C 147.82 352.43 141.23 366.21 134.05 379.67 C 117.35 383.65 100.72 387.93 84.06 392.11 C 75.76 385.07 67.81 377.62 59.52 370.56 C 56.89 367.92 53.04 365.71 52.68 361.63 C 51.07 351.13 48.10 340.83 47.24 330.23 C 51.74 333.58 56.29 336.85 60.87 340.08 C 63.17 341.63 65.13 343.93 67.99 344.42 C 73.35 345.40 78.79 345.94 84.21 346.61 C 90.93 340.23 97.21 333.40 103.72 326.82 C 105.16 325.11 107.24 323.44 107.13 320.99 C 106.80 312.36 106.13 303.70 106.49 295.07 C 116.10 245.34 125.70 195.61 135.33 145.88 Z" />
</g>
<g id="#797979ff">
<path fill="#797979" opacity="1.00" d=" M 354.02 279.83 C 373.25 279.55 392.50 279.89 411.73 279.34 C 410.04 286.60 407.14 293.57 405.93 300.94 C 405.65 307.27 405.51 313.62 404.84 319.93 C 404.26 347.64 402.13 375.25 401.41 402.95 C 400.96 408.31 400.39 413.66 400.52 419.05 C 400.76 427.62 398.27 436.43 401.34 444.76 C 401.64 446.77 404.05 446.19 405.50 446.56 C 403.90 447.18 402.43 447.24 401.06 446.74 C 400.29 445.62 398.82 445.71 398.06 446.77 C 395.25 447.99 391.94 446.55 388.95 446.57 C 374.67 445.75 360.35 445.44 346.10 444.12 C 347.17 444.02 348.25 443.90 349.33 443.78 C 349.90 441.22 350.43 438.63 350.43 436.00 C 350.28 419.00 350.65 402.01 350.47 385.01 C 350.41 380.24 348.60 375.75 347.86 371.09 C 346.27 362.01 343.84 353.09 342.34 344.01 C 342.22 328.42 342.61 312.80 342.26 297.22 C 336.53 291.07 329.55 286.22 323.67 280.22 C 333.79 280.02 343.92 280.61 354.02 279.83 Z" />
</g>
</svg>
