<svg version="1.1" id="Layer_1" xmlns="http://www.w3.org/2000/svg" xmlns:xlink="http://www.w3.org/1999/xlink" x="0" y="0" viewBox="0 0 761 625.54" xml:space="preserve"><style>.st0{clip-path:url(#SVGID_2_)}.st1{fill:#fff}</style><defs><path id="SVGID_1_" d="M33.95 0h690v625.54h-690z"/></defs><clipPath id="SVGID_2_"><use xlink:href="#SVGID_1_" overflow="visible"/></clipPath><g class="st0"><path d="M0 0h761v.63C642.23.62 523.46.63 404.68.62c-2.72 16.87-4.9 34.15-2.19 51.17-3.81-.08-7.57-.6-11.3-1.33 2.47-16.46 5-33.28 2.17-49.87-11.34.22-22.7-.29-34.03.29 6.41 2.68 13.12 5.71 17.21 11.63 5.44 7.32 5.33 17.65 1.6 25.71-2.43 5.28-7.38 8.9-12.69 10.92-6.99 2.73-14.59 3.35-22.02 3.42.28-10.53.53-21.08-.13-31.6-.54-6.85-2.46-13.51-2.84-20.37C226.97.67 113.49.6 0 .62V0zm350.34 6.29c-.32 8.6 1.22 17.09 1.18 25.68.13 4.89 1.11 9.7 1.16 14.6 3.81-.63 8.02-1.08 10.9-3.95 9.56-8.2 8.66-24.58-.2-32.96-3.51-3.29-8.48-3.71-13.04-3.37z"/><path d="M295.01 10.61c8.4-3.78 17.8-4.13 26.64-6.41-.19 2.95-1.21 5.74-2.13 8.52-4.45-.31-8.92-.44-13.37-.08-.01 5.78 2.19 11.22 2.72 16.94 5.13-.23 9.96-2.45 15.14-2.32-.4 2.45-1.16 4.81-1.86 7.18-3.96.19-7.91.1-11.87.16 1.09 6.06 1.56 12.42 4.4 18 6.57-.93 12.2-4.52 18.23-6.98-.1 2.99-.65 5.93-1.58 8.77-8.31 1.68-16.65 3.19-24.81 5.51-2.41-11.6-3.44-23.48-6.47-34.96-1.22-4.93-3.39-9.55-5.04-14.33zm138.31-2.47c8.89-3.18 18.78-1.95 27.35 1.67.09 2.86-.59 5.64-1.4 8.36-5.84-3.97-13.29-7.05-20.36-4.75-6.12 1.37-11.5 5.8-13.59 11.77-2.41 7.24-1.27 16.43 5.18 21.29 6.73 5.83 16.38 4.74 24.36 2.61-.62 2.29-.24 5.5-2.11 7.1-6.61 2.16-13.99 1.74-20.54-.5-7.5-2.34-13.89-8.6-15.68-16.34-1.9-6.89-.8-14.6 3.05-20.63 3.41-4.75 8.12-8.75 13.74-10.58zM267.86 18.2c2.4-2.03 5.77-2.52 8.56-3.95-.17 9.72 4.48 18.54 8.24 27.22 1.65 3.57 2.47 7.45 3.88 11.11 1.28 3.55 5.02 5.71 5.6 9.57-3.54 1.15-6.95 2.65-10.45 3.88-1.04-3.94-1.62-7.99-2.87-11.87-2.18-7.22-5.8-13.88-8.98-20.69-3.08 7.74-5.24 15.79-7.62 23.76-8.14-3.14-15.14-8.53-23-12.26 3.73 11.24 7.71 22.6 14.32 32.52-3.61 1.49-7.2 3.05-10.88 4.36-1.56-7.24-2.96-14.58-6.09-21.34-2.93-6.32-5.69-12.72-7.89-19.33-.83-2.91-4.33-3.19-6.56-4.55-.07-1.91 2.09-2.25 3.4-2.97 2.38-.91 5.2-2.29 7.68-.98 7.67 4.71 15.36 9.54 23.65 13.1.27-.15.81-.46 1.08-.61 3.44-8.73 5.98-17.79 7.93-26.97zm200.43 27.71c3.89-10.29 6.11-21.1 8.32-31.84 3.54.73 7.01 1.81 10.31 3.3-7.07 15.35-12.48 31.54-14.65 48.36-3.77-.94-7.47-2.09-11.12-3.4 2.47-5.44 4.96-10.86 7.14-16.42zm33.81-23.87c4.19.36 7.56 3.07 11.29 4.73.41 8.67 2.5 17.15 4.41 25.58 1.7 6.27 2.84 12.71 4.99 18.85 5.21-10.79 11.36-21.29 14.14-33.06 2.93.99 5.8 2.18 8.55 3.61-7.21 15.37-16.09 30.14-20.55 46.65-2.85-1.22-5.64-2.55-8.49-3.73-1.15-13.98-5.89-27.27-8.41-41-6.45 9.12-10.17 19.83-13.54 30.38-3.27-1.01-6.32-2.59-9.42-4.01 3.8-6.04 7.3-12.28 10.19-18.81 2.89-6.5 6.58-12.66 8.84-19.42 1.15-3.43-1.03-6.61-2-9.77zm-329 46.04c3.15-2.29 5.8-5.23 9.21-7.17 1.28 2.73 1.4 5.74 1.59 8.7-4.31 1.23-8.4 3.08-12.01 5.74 2.35 5.11 6.58 8.99 9.5 13.75 5.03-1.67 8.12-6.42 13.04-8.33.4 2.51.84 5.01 1.24 7.52-3.18 1.65-6.46 3.08-9.71 4.56 1.54 5.95 6.58 9.98 9.91 14.91 6.52-2.99 9.79-9.69 14.83-14.39.69 2.91 1.32 5.83 1.93 8.76-7.13 5.27-13.75 11.37-21.65 15.5-7.43-15.25-18.95-27.86-29.81-40.7 3.98-2.94 7.95-5.9 11.93-8.85zm41.13 48.08c39.96-28.97 87.61-47.45 136.79-52.1 9.6-1.23 19.32-.73 28.98-.88 30.7-.64 61.32 5.2 90.28 15.21 37.92 13.81 73.59 34.58 102.88 62.5 48.05 44.88 78.65 107.72 85.29 173.05 1.84 15.94 1.23 32.04 1.04 48.07-.86 10.66-2.02 21.29-3.81 31.86-2.33 15.53-6.79 30.63-11.59 45.56 1.99-.03 3.99-.07 5.99-.05-.8 7.12-10.34 7.85-12.61 14.17-7.3 17.49-16.13 34.38-26.88 50.01-16.76 24.71-37.9 46.31-61.58 64.44-30.03 23.11-64.93 39.83-101.72 48.87-19.03 5.05-38.69 7.33-58.28 8.55-37.43 1.04-75.13-4.95-110.19-18.26-57.87-21.74-106.94-64.29-139.28-116.7-24.08-37.77-37.61-81.89-40.26-126.5-.59-3.63-.82-7.29-.8-10.96-1.53-45.53 7.21-91.75 27.83-132.56 20.66-40.95 50.74-77.31 87.92-104.28zm150.82-47.57c-27.99 1.6-55.85 6.81-82.29 16.18-9.76 3.71-19.51 7.68-28.47 13.06 3.23 10.96 7.76 21.46 11.79 32.13 6.87 16.91 13.52 33.9 19.75 51.06 7.01-2.8 7.93-10.91 9.87-17.22 5.99-16.93 12.29-33.75 17.99-50.79 2.85-7.51 5.63-15.94 12.68-20.59 5.79-3.78 13.59-3.93 19.51-.35 18 10.35 36.97 18.89 55.65 27.93 2.34-11.25 7.72-22.41 17.37-29.13 10.47-8.01 23.79-10.19 36.38-12.65-8.27-2.37-16.63-4.44-25.08-6.07-21.45-4.09-43.4-4.31-65.15-3.56zm86.25 16.2c.02 1.99.09 3.97.19 5.96 2.59.07 5.18.05 7.78-.07.08-1.72.15-3.43.25-5.14-2.65-.95-5.45-1.06-8.22-.75zm11.05.6c-.2 1.91-1.51 4.39-.07 6.02 2.06.29 4.15.22 6.24.2.11-1.8.19-3.61.23-5.42-2.09-.56-4.25-.77-6.4-.8zm-24.24 2.72c.62 1.9 1.51 3.7 2.52 5.43 2.95-.69 5.9-1.36 8.82-2.18-.4-1.77-.78-3.55-1.11-5.34-3.58-.99-7.06.56-10.23 2.09zm33.49-1.04c-.23 2.01-.4 4.02-.47 6.04 1.79.25 3.59.5 5.4.7.49-1.45.98-2.9 1.4-4.37-2.07-.9-4.17-1.72-6.33-2.37zm-45 5.73c-1.78 2.41 1.73 4.34 3.13 5.91 2.71-1.54 5.52-2.89 8.28-4.34-.72-1.86-1.62-3.64-2.57-5.38-3.2.57-6.04 2.26-8.84 3.81zm53.28-1.74c-.52 1.43-1.03 2.86-1.53 4.29 1.47 1.18 3.08 2.19 4.94 2.62.79-1.36 1.58-2.73 2.38-4.1-1.72-1.34-3.61-2.47-5.79-2.81zm-27.58 2.36c.44 2.27 1.01 4.51 1.49 6.78 1.18.01 3.53.04 4.71.05l-.03-.5c.17-2.18.05-4.36.06-6.54-2.08.06-4.16.11-6.23.21zm-10.23 2.43c.98 2.01 2.04 3.98 3.26 5.86 1.81-.24 3.61-.52 5.41-.89-.11-2.21-.3-4.42-.49-6.62-2.82.03-5.54.73-8.18 1.65zm19.64-1.57c0 2.09.01 4.18.04 6.28 1.33.04 2.66.08 4 .11.59-2.07.89-4.21 1.12-6.34-1.73-.04-3.44-.05-5.16-.05zm33.2-.3c.84 1.19 1.71 2.36 2.6 3.52 4.64 5.77 6.43 13.15 10.41 19.33 1.43-4.74 5.04-8.95 5.5-13.8-5.86-3.56-11.89-7.09-18.51-9.05zm-167.72 5.24c-6.8 7.34-8.89 17.52-11.92 26.76-6.39 18.3-11.63 37.06-19.66 54.75-1.04 2.81-4.18 3.75-6.3 5.57-6.51 5.12-12.36 11.32-16.12 18.77-2.81 6.06-3.3 12.95-6.46 18.9-4.13 8.67-11.86 14.98-16.08 23.6-1.07 2.08-1.24 4.56-2.52 6.52-9.07 3.86-18.45 8.45-24.31 16.73-6.22 7.91-8.01 18.37-7.18 28.19.87 7.43-2.28 14.95-7.72 19.97-2.89 2.71-7.23 1.88-10.69.97-8.57-2.59-17-5.64-25.71-7.77-3.1-.83-6.36-.76-9.53-.52-6.58 5.13-12.9 11.98-14.19 20.54 3.18-5.57 7.61-10.96 14.2-12.38 13.01-2.19 25.42 3.52 38.06 5.56 4.24.23 8.86.8 12.69-1.48 5.35-2.83 7.22-9.11 8.43-14.61 1.13-7.98 1.73-16.04 3.52-23.92l2.13-.24c-.78 5.9-2.16 11.73-2.47 17.69-.78 7.83-2.09 16.73-8.61 21.98-4.8 4.07-11.44 2.96-17.22 2.74-11.17-2-22.05-6.83-33.59-5.94-7.68.58-13.72 7.08-15.38 14.32-1.11 10.22 6.09 18.49 10.73 26.88 9.18 16.81 19.15 33.22 27.54 50.45 2.81 5.74 8.25 10.27 14.83 10.54 2.06-6.54 2.44-13.45 2.92-20.24-1.05-.68-2.1-1.33-3.15-1.98 1.4-3.21 1.86-7.02.66-10.34-3.42-4.29-9.58-5.11-12.95-9.41-6.14-10.41-9.83-22.03-12.91-33.64 12.24.91 21.85 10.32 33.86 12.36 13.03 2.19 26.4.35 39-3.32 8.92 20.12 22.47 40.17 43.52 48.89-1.53-6.6-2.16-13.34-2.99-20.04-.06-10.83.41-21.74 3.11-32.26.89-6.8 5.1-12.38 7.61-18.6 1.87-4.5 6.12-7.29 8.46-11.49 2.99-4.96 8.38-7.53 12.25-11.64 2.71-2.6 5.96-4.52 9.11-6.53-2.15-6.53-6.43-12.08-9.14-18.38-5-9.18-7.72-20.37-4.34-30.54 14.9-9.65 31.48-16.67 48.46-21.77 4.86-1.49 9.77-3.29 14.9-3.3 5.3.6 9.83 3.7 14.67 5.69 4.93 2.02 9.67 4.61 14.91 5.74 6.09 1.53 12.41 2.44 18.19 5.02 7.07 3.39 13.36 8.6 21.16 10.32 6.05 1.2 12.1 2.47 18.22 3.35 6.88.91 12.85 4.71 19.26 7.09 7.55 2.66 13.37 9.66 21.79 9.81-1.16-3.17-5.26-2.98-7.82-4.44.12-2.02.59-4 1.17-5.93 6.57-.23 12.12 4.24 18.46 5.41-.17-.49-.52-1.48-.69-1.97-2.91-2.12-6.6-2.88-9.8-4.5-.09-.59-.26-1.78-.35-2.37 3.69.62 7.26 4.56 10.98 2.44-1.52-1.64-3.16-3.2-5.23-4.12-3.45-1.58-6.73-3.97-10.69-3.79-.07-.49-.19-1.45-.26-1.94 3.21.09 6.41-.15 9.45-1.27-3.57-2.47-8.02-3.04-12.08-4.3-4.23-1.34-8.61.64-12.86-.31-6.55-1.79-11.75-6.41-18.02-8.83-8.31-3.36-16.2-7.8-24.8-10.39-5.2-1.82-11.39.64-15.99-3.04-6.3-5.11-12.44-10.53-19.51-14.58-6.9-4.07-15.53-3.28-22.35-7.52-6.27-3.79-11.12-9.39-16.24-14.54 2.8-1.23 5.64-2.37 8.56-3.31 2.22 2.63 4.18 5.55 7.08 7.5 2.53-4.4 6.89-7.1 10.31-10.7 1.48.56 2.95 1.18 4.44 1.74 1-2.7 2.06-5.37 2.95-8.11-1.64-.36-3.26-.74-4.87-1.18.26-2.45.85-4.84 1.47-7.21 2.03 1.86 4.08 3.72 6.33 5.32 3.22-5.27 6.88-10.25 10.51-15.24.2-2.86.49-6.1-1.28-8.57-3.73-5.84-9.48-9.96-15.09-13.84-3.9-1.85-7.64-6.05-12.32-4.1-5.65 1.17-9.71 5.34-13.79 9.07-2.66 2.53-7.06 4.08-7.49 8.2-1.23 5.73-3.18 11.65-7.43 15.87-2.24 1.73-4.91 3.55-7.85 3.42-7.79-1.92-14.16-7.06-19.99-12.34.11-1.28.26-2.54.45-3.81 2.38-11.21 2.3-22.75 4.42-34 5.28 4.34 11.14 8.09 17.81 9.88 8.15 2.22 16.5 4.43 24.99 4.55 4.76-1.4 9.5-4.79 14.7-3.19 2.75 1.4 5.25 3.23 7.98 4.66-.61-3.51-1.13-7.04-1.83-10.53-8.04-.9-14.44-6.23-21.42-9.8-12.09-6.2-23.98-12.76-36.07-18.96-5.87-3.25-14.03-3.96-18.99 1.31zm87.7 5.03c2.04.88 4.09 1.73 6.19 2.48 2.23-2.07 4.33-4.27 6.31-6.59-1.27-1.5-2.53-3.01-3.71-4.58-3.93 1.67-7.12 4.75-8.79 8.69zm53.3-3.68c1.06 1.12 2.1 2.25 3.11 3.43-1.85.33-3.68.73-5.39 1.49-1.24-1.21-2.66-2.18-4.36-2.58-.14 1.79-.57 3.65-.11 5.43 1.3 1.55 3.3 2.67 3.98 4.65-.95 4.63-2.34 9.34-1.41 14.1 1 9.45 7.1 17.84 15.08 22.77 8.42 5.55 18.89 6.66 28.72 5.58-3.49-12.35-3.86-25.28-6.65-37.77-1.47-5.74-3.64-11.67-8.14-15.75-1.28 1.77-2.45 3.61-3.64 5.43-4-2.44-6.63-6.71-10.93-8.67-2.96-1.01-5.67-2.59-8.62-3.6-.56 1.83-1.14 3.65-1.64 5.49zm-36.42-.5c1.73 2.22 3.84 4.11 6.1 5.78 1.72-.88 3.44-1.76 5.17-2.64-.86-2.04-1.83-4.03-2.77-6.03-3.1.02-5.83 1.52-8.5 2.89zm52.86-.17c1.4.88 2.81 1.77 4.22 2.66 1.02-.83 2.05-1.65 3.1-2.47-1.03-1.21-2.01-2.46-3.12-3.58-2.26-.5-2.95 2.1-4.2 3.39zm-61.17 8.03c2.72 1.23 5.62 3.59 8.77 2.46 1.25-.97 2.35-2.11 3.49-3.21-1.93-1.71-3.63-3.7-5.82-5.07-2.99.57-4.56 3.72-6.44 5.82zm-184.05-2.12c12.38 28.53 21.89 58.26 35.13 86.43 1.48-1.35 2.92-2.74 4.35-4.15-1.84-6.2-4.78-11.98-6.96-18.05-8.76-22.41-17.13-44.98-26.76-67.04-1.99.79-3.91 1.75-5.76 2.81zm207.78-2.12c.44 2.6 1.57 5.21 3.68 6.89 3.37-.46 1.21-4.8 1.54-7.13-1.75.05-3.49.13-5.22.24zm7.36-1.11c.37 2.25.78 4.49 1.08 6.75.94-.01 1.88-.02 2.83-.04.02-2.3.04-4.6.04-6.9-.99.05-2.96.15-3.95.19zm-14.73 5.08c1.58 1.8 3.28 3.48 5.01 5.15.75-.32 2.26-.94 3.01-1.26-.7-2.34-1.97-4.45-3.54-6.32-1.51.79-3 1.59-4.48 2.43zm-31.72 8.54c2.4.43 4.8.9 7.21 1.31 1.39-2.96 2.7-5.96 3.94-8.99-1.75-.71-3.46-1.51-5.27-2.02-4.25 1.1-4.77 6.15-5.88 9.7zm113.82-8.23c-2.08 6.4-5.84 12-9.08 17.83-3.17 5.68-4.09 12.61-1.78 18.76 3.37-5.38 5.46-11.42 8.46-17 2.69-5.54 6.21-10.86 7.32-17-1.62-.9-3.25-1.78-4.92-2.59zm-100.5 2.11c-1.5 2.32-2.71 4.82-3.46 7.48 3.06.92 6.26 1.03 9.43 1.03.65-1.77 1.27-3.55 1.87-5.34-2.59-1.12-5.13-2.37-7.84-3.17zm12.42 2.76c2.94 1.08 6.17 3.91 9.15 1.39-1.59-1.85-3.3-3.57-5.07-5.24-1.66.95-3.19 2.12-4.08 3.85zm-207.41 1.2c12.22 32.42 24.3 64.92 38.18 96.69 1.41-3.37 4.23-7.11 2.29-10.83-12.3-29.44-22.66-59.68-35.75-88.79-1.59.96-3.16 1.94-4.72 2.93zm204.84 1.08c-.39 1.38-.76 2.78-1.1 4.18 2.31.42 4.6.91 6.92 1.31.51-.7 1.52-2.1 2.03-2.81-2.42-1.39-4.96-2.8-7.85-2.68zm14.16 4.27c-3.26 2.22-2.12 6.7-1.56 9.98 3.57 9.9 13.26 15.3 20.62 22.11 6.38 5.11 12 11.2 18.8 15.77 1.17-2.44 2.3-4.91 3.33-7.42-2.66-1.16-5.36-2.2-7.93-3.53-8.83-4.43-15.81-12.45-18.83-21.87-2.34-6.08-1.43-12.69-1.45-19.04-4.56.05-9.57.64-12.98 4zm89.37-2.46c-3.96 9.22-8.71 18.05-13 27.11-2.19 4.68-5.1 9.21-5.76 14.45 1.68.55 3.38 1.07 5.11 1.47 6.23-13.56 13.7-26.6 18.8-40.66-1.63-.97-3.34-1.81-5.15-2.37zm-127.26 2.35c-.98 3.32-1.2 6.78-.94 10.22 2.66-.06 5.32-.1 7.98-.22.1-3.21.11-6.43.05-9.64-2.37-.1-4.73-.23-7.09-.36zm9.84 1.21c-.12 2.76-.13 5.51-.1 8.27 2.87-.16 5.77-.16 8.63-.62 2.41-1.32 1.06-4.34 1.08-6.51-3.19-.54-6.37-1.13-9.61-1.14zm-204.04 2.62c9.09 26.99 20.22 53.22 30.55 79.75 3.88 9.05 6.62 18.53 10.57 27.55 2.13-1.99 5.61-4.52 3.84-7.83-13.04-34.28-26.07-68.58-40.35-102.37-1.56.94-3.09 1.92-4.61 2.9zm216.19-1.08c-.01 1.9-.02 3.8-.01 5.7 2.23-.08 4.46-.19 6.69-.29.34-.62 1.03-1.85 1.37-2.47-.37-.59-1.1-1.78-1.47-2.38-2.2-.15-4.39-.35-6.58-.56zm118.21 3.84c-5.56 12.65-12.55 24.65-17.44 37.59 2.32-.34 4.64-.78 6.95-1.18 4.5-8.98 8.68-18.12 13.12-27.12.79-1.87 2.32-3.63 2.27-5.73-1.45-1.42-3.17-2.51-4.9-3.56zM418 131.39c.15 3.22.83 6.43 2.56 9.19 3.11-.88 6.24-1.65 9.37-2.47-.73-2.62-1.71-5.15-2.68-7.68-3.1.13-6.19.42-9.25.96zm12.07-.77c.64 2.12 1.37 4.22 2.17 6.28 2.7-.07 5.34-.61 7.9-1.46-.59-2.17-1.6-4.17-2.87-6.02-2.41.34-4.81.76-7.2 1.2zm-229.68 3.04c11.53 31.72 23.84 63.15 36.52 94.43 2.81 6.32 4.85 12.96 8 19.13 1.12-2.72 3.04-5.2 3.57-8.11-2.26-6.68-5.65-12.93-7.97-19.6-12.06-29.68-22.78-59.91-35.66-89.25-1.51 1.1-3 2.24-4.46 3.4zm143.48-1.6c-.33 4.98-.13 10.02-1.17 14.93-.4 3.14-1.57 6.25-1.29 9.45 2.55 2.87 5.58 5.36 8.97 7.21 2.46 1.44 5.44.93 8.17.96 6.3-7.27 5.73-18.28 13.29-24.73-9.73-.92-19.1-3.79-27.97-7.82zm63.49-.28c.12 2.06.13 4.14.55 6.17 1.35 1.89 3.22 3.36 5.13 4.66 1.63-.26 3.16-.9 4.74-1.37-1.06-3.14-1.33-6.64-3-9.5-2.47-.23-4.96-.08-7.42.04zm149.9 10.34c-16.64 34.92-34.41 69.32-49.97 104.74 1.67.64 3.34 1.29 5.02 1.94 2.74-3.37 4.11-7.53 6.04-11.36 16.3-32.14 30.95-65.08 46.28-97.69-1.25-1.29-2.52-2.55-3.8-3.79-1.34 1.96-2.56 4.01-3.57 6.16zm-123.37-2.5c1.43 2.12 2.97 4.17 4.54 6.2 1.9-.05 3.8-.1 5.71-.17-.68 1.4-1.4 2.78-2.09 4.17 2.54 2.06 5.02 4.99 8.63 3.61-.12 1.23-.24 2.46-.35 3.69 2.22 1.94 4.52 4.31 7.75 3.28-.44 3.73 2.91 5.79 5.13 8.18 1.56-.52 3.14-1.03 4.74-1.46-.5 1.34-1.04 2.65-1.6 3.97 1.99 1.87 3.95 3.79 5.83 5.79 1.19-.16 2.38-.32 3.58-.47-1.58 4.16 2.12 6.86 4.3 9.84 1.73 0 3.45.01 5.19.08-.7.73-2.08 2.18-2.78 2.91 1.5 2.36 2.88 4.8 4.11 7.33 1.05 0 2.11.02 3.17.04-1.7 4.61 1.07 8.81 2.58 13 1.5.46 3.01.89 4.52 1.35-1.22.84-2.46 1.65-3.71 2.45.89 3.39 1.54 6.85 1.58 10.37 1.11.66 2.24 1.32 3.36 1.99-1.14 1.02-2.3 2.01-3.43 3.04.49 3.73-1.49 8.06 1.37 11.16-3.45 1.96-3.74 6.07-3.96 9.61 2.5-.34 4.96-.91 7.46-1.31 2.98-7.37 3.42-15.39 3.15-23.25-.04-13.65-4.64-27.06-12.21-38.34-12.95-19.26-32.6-32.32-49.06-48.26-2.5-.75-5.1.61-7.51 1.2zm-12.26 3.21c1.46 3.01 3.12 5.95 5.14 8.63 3.77.82 7.06-2.2 10.07-4.05-1.92-2.34-3.77-4.73-5.41-7.27-3.29.81-6.54 1.78-9.8 2.69zm-234.44 3.21c12.73 31.92 25.92 63.66 38.2 95.76 1.58 4.21 2.28 8.93 5.22 12.49 1.69 1.46 3.64-.59 5.37-.98-1.85-7.2-4.97-14-7.61-20.93-11.61-30.61-23.41-61.15-36.34-91.23-1.66 1.59-3.28 3.21-4.84 4.89zm228.53-1.56c2.3 3.08 4.83 6 6.77 9.33l2.52-.24c-1.59-3.31-3.71-6.32-5.64-9.43-1.22.1-2.44.22-3.65.34zm156.07 2.37c-15.91 34.7-33.48 68.63-49.23 103.39.59 3.44-.75 6.48-2.46 9.38 1.38.46 2.77.89 4.18 1.29 2.52-6.12 6.28-11.63 8.83-17.75 14.79-30.62 29.35-61.34 43.87-92.09-1.55-1.61-3.26-3.08-5.19-4.22zm-135.13 3.88c-2.11.88-4.21 1.81-6.15 3.01-.62 2.55 2.57 4.06 3.91 5.89 2.01 2.58 5.17.37 7.13-1.08 1.16-1.02 3.86-1.96 2.82-3.92-2.18-1.77-4.5-5.3-7.71-3.9zm-260.33 7.42c-.32 5.08 2.89 9.38 4.52 13.97 12.7 31.91 24.47 64.21 38.3 95.66 1.25-1.24 2.63-2.39 3.67-3.82-.04-2.09-.92-4.01-1.64-5.91-12.98-35.27-26.89-70.19-41.13-104.96-1.44 1.47-3.94 2.65-3.72 5.06zm246.88-1.49c-.12 3.61.24 8.03 3.79 9.97 3.01.33 5.13-2.31 7.44-3.81-2.23-2.71-4.43-5.62-7.4-7.54-1.3.41-2.58.87-3.83 1.38zm15.91 6.37c1.79 2.06 3.59 4.29 6.07 5.56 3.41-.74 5.86-3.83 8.12-6.33-2.29-1.3-4.12-4.48-7.03-3.93-2.62 1.16-4.84 3.04-7.16 4.7zm139.27 6.45c-18.96 40.14-38.4 80.05-57.73 120.01-16.48 33.57-32.45 67.39-48.74 101.05 1.85.69 3.78 1.13 5.75 1.36 2.92-4.16 4.45-9.03 6.54-13.62 5.47-11.55 11.2-22.96 16.84-34.43 27.11-55.67 53.73-111.58 80.59-167.38 1.83-3.87 4.89-7.25 5.67-11.56.59-2.63-1.75-4.38-3.42-5.93-2.23 3.28-3.87 6.9-5.5 10.5zm-83.46-5.47c-2.13 3.63-3.19 7.79-5.56 11.3 1.2 2.04 2.61 3.96 4.29 5.63 2.62-6.61 7.33-12.36 8.62-19.48-2.64-.02-5.85-.08-7.35 2.55zm18.01-2.01c-2.83 6.14-5.86 12.17-8.99 18.15-1.89 3.74-3.91 7.59-4.26 11.84.58 2.23 1.97 4.12 3.25 6 5.05-11.1 10.72-21.92 15.58-33.11-1.74-1.19-3.54-2.31-5.58-2.88zm-82.86 6.88c2.19 2.39 4.53 4.64 6.85 6.89 2.48-1.43 4.75-3.2 6.54-5.45-1.99-1.62-3.84-3.44-5.96-4.9-2.97-.94-5.13 2.13-7.43 3.46zm17.56 1.55c1.82 2.39 4.05 4.43 6.41 6.29 2.95-1.55 5.4-3.83 7.89-6.02-1.68-1.91-3.37-3.87-5.44-5.36-3.76-.74-5.98 3.4-8.86 5.09zm-287.9 6.37c-9.58 12.66-18.32 25.99-25.75 40.03-18.42 34.87-28.96 73.84-31.16 113.18-1.82 39.26 4.67 78.87 18.87 115.52 21.36 53.86 59.88 100.92 109.11 131.6 34.68 21.98 74.29 35.61 114.84 41.45-32.54-84.87-65.99-169.4-99.33-253.96-6.68 1.26-13.47 2.14-20.28 2.15-6.18-.01-12.49.33-18.51-1.35-7.24-1.8-13.19-6.91-20.56-8.29 1.43 5.26 3.25 10.45 5.67 15.35 1.02 2.23 3.78 2.29 5.76 3.15 6.84 2.07 12.83 6.18 17.9 11.13 3.66-.73 7.69-2.3 11.26-.41 4.83 2.33 6.48 7.97 7.36 12.84.78 5.64 1.55 11.3 1.55 17.01-1.55.98-3.46 1.6-4.58 3.14-1.76 5.21-.91 10.77-1.66 16.14-9.44-3.12-19.46-3.39-29.09-5.6-5.95-.95-11.2-4.5-14.26-9.69-11.92-19.22-21.87-39.58-32.96-59.28-3.97-6.7-8.58-13.3-10.2-21.05-1.36-8.14 1.73-16.25 5.97-23.06 3.69-5.62 9.17-11.06 16.34-11.21 13.15-1.34 24.28 7.54 36.98 8.97 2.96.71 4.8-2.28 5.82-4.58 2.81-7.02 1.21-14.73 2.25-22.04.19-3.66 1.72-7.22 1.26-10.91-1.32-5.02-3.73-9.66-5.68-14.46-12.61-32.02-24.98-64.16-38.52-95.81-3.24 2.95-5.72 6.6-8.4 10.04zm368.78-8.96c.19 3.51.48 7.29-2.08 10.09-.81-1.33-1.58-2.68-2.36-4.03-4.99 12.43-11.37 24.23-16.93 36.38-.44 3.61.81 7.4 1.22 11.06 5.24-8.82 8.93-18.45 13.7-27.51 4.1-8.82 8.56-17.47 12.39-26.41-1.99.13-3.97.27-5.94.42zm-109.53 5.18c-2.58 4.93-7.49 8.59-8.54 14.27-.62 1.62-.63 3.8-2.32 4.75-2.79.96-5.88 1.18-8.38 2.87-2.84 1.7-4.54 4.64-6.37 7.3 7.76 4 16.98 4.27 24.36 9.13 6.89 4.16 11.96 11.2 19.82 13.74 5.41 1.47 11.12 1.42 16.43 3.34 1.37-4.67 3.82-8.9 6.01-13.22.89-2.09 2.57-4.75.69-6.79-9.72-15.37-24.69-26.13-38.26-37.81-1.73-1.35-2.69 1.27-3.44 2.42zm20.33 4.22c2.11 2.25 4.6 4.08 6.94 6.1 2.16-1.45 4.22-3.09 5.73-5.25-2.03-2-4.08-3.97-6.09-5.97-2.34 1.51-4.48 3.3-6.58 5.12zm17.39 1.48c2.01 2.07 4.03 4.13 6.14 6.11 1.94-1.38 3.97-2.67 5.79-4.24 1.07-.61 1.56-1.99.96-3.1-1.67-1.96-3.68-3.59-5.55-5.35-2.57 2.05-5.38 3.89-7.34 6.58zm135.18-1.86c-20.92 43.4-41.46 86.99-62.65 130.26-13.83 27.66-27.5 55.4-40.39 83.5 7.08.35 14.08-1.01 21.14-1.1 14.58-.38 29.84-1.31 43.5 4.79 17.92 7.56 30.77 22.73 46.52 33.59 11.11 7.67 24.43 12.57 38.07 11.83 11.76-29.72 16.96-61.84 16.76-93.73.97-58.81-18.23-117.53-52.77-165.04-2.19-3.17-4.51-6.28-7.26-9-1.09 1.56-2.1 3.18-2.92 4.9zm-143.65 8.33c2.22 1.75 4.11 5.34 7.43 4.45 1.64-.75 3.02-1.96 4.51-2.97-1.35-2.73-3.57-4.85-5.99-6.63-1.98 1.72-3.96 3.44-5.95 5.15zm16.65 1.17c.87 2.84 3.21 4.78 5.08 6.96 2.58-1.53 5.41-2.75 7.67-4.76.38-3.22-3.25-5.19-4.85-7.65-2.8 1.57-5.36 3.51-7.9 5.45zm-8.61 5.67c.98 1.88 1.91 3.86 3.43 5.39 3.2 1.34 6.04-1.29 8.29-3.21-1.88-2.07-3.74-4.14-5.81-6.01-1.98 1.27-3.94 2.55-5.91 3.83zm15.84 3.2c.27 2.82 2.48 4.92 3.78 7.32 2.66-1.46 5.4-2.75 8.1-4.11-.31-3.15-2.27-5.7-3.92-8.26-2.65 1.67-5.72 2.84-7.96 5.05zm-9.11 5.15c.75 1.88 1.67 3.69 2.56 5.52 2.71.11 5.21-.87 7.54-2.17-.48-2.54-1.88-4.7-3.45-6.69-2.38.76-4.58 1.96-6.65 3.34zm14.21 4.43c.98 2.61 1.97 5.23 2.83 7.9 3.35.01 6.6-.83 9.86-1.48-.53-3.61-2.18-6.88-3.58-10.2-3.42.1-6.33 2-9.11 3.78zm-9.15 3.61c.43 2.24 1.16 4.41 2.07 6.51 2.65-.17 5.27-.65 7.81-1.43-.83-2.69-1.88-5.29-2.93-7.9-2.34.87-4.66 1.83-6.95 2.82zm13.1 6.95c.16 3.4 1.01 6.69 1.71 10 3.29.11 6.54-.41 9.77-1.04-.28-3.21-.75-6.41-1.53-9.55-2.99-1.57-6.76.18-9.95.59zm-9.87 2.22c.18 2.59.35 5.19.57 7.78 2.84.11 5.69.11 8.54.04-.62-3.11-1.11-6.25-1.93-9.32-2.43.33-4.81.9-7.18 1.5zm-5.17 6.36c-1.51 2.62-2.87 5.32-3.89 8.17 1.38.27 2.76.53 4.15.8 0-2.99.06-5.99-.26-8.97zm6.56 4.71c-.48 1.88-.85 3.78-1.27 5.68 2.57.81 5.23 1.28 7.93 1.44.46-2.66.89-5.34.98-8.04-2.52.27-5.53-.86-7.64.92zm9.87-.47c-.05 2.8-.17 5.6-.31 8.41 3.1.57 6.24.98 9.39 1.25 1.07-3.3.88-6.78.88-10.2-3.33 0-6.68-.04-9.96.54zm-11.41 9.11c.05.59.17 1.75.22 2.34 2.25.94 4.49 1.95 6.92 2.33l.33-3.65c-2.46-.56-4.96-.86-7.47-1.02zm-134.63 15.27c-3.66 1.47-7.32 3.1-10.45 5.53-3.45 2.59-5.21 7.36-4.13 11.55 1.35 5.67 3.76 11 5.8 16.44 1.71 4.16 3.3 8.52 6.29 11.97.98 1.29 2.79.64 3.96 0 23.79-12.97 50.34-19.31 76-27.4 8.37-2.51 17.73-3.95 24.03-10.59-2.44-2.27-5.07-4.41-8.14-5.76-11.26-4.99-23.61-6.72-35.07-11.12-5.64-2.21-11.24-7.18-17.66-4.94-13.83 3.88-27.29 9.01-40.63 14.32zm144.3-13.24c-.2 1.52-.4 3.04-.59 4.56 2.71 1.94 5.62 3.7 8.96 4.26.69-2.5 1.39-5.01 1.72-7.58-3.3-.82-6.68-1.37-10.09-1.24zm-30.79 23.11c.72 2.65 2.41 4.86 3.99 7.05 3.32-1.63 6.56-3.51 9.16-6.17-4.25-.97-8.97-3.18-13.15-.88zm-11.04 5.82c.34 2.69 1.4 5.19 2.68 7.55 3.39-1.64 6.73-3.39 10.1-5.08-1.23-2.12-2.52-4.18-3.8-6.25-3.07 1.08-6.1 2.26-8.98 3.78zm29.03-3.81c1.76 2.33 3.72 4.52 5.87 6.52 1.4-1.18 2.78-2.37 4.16-3.58-3.02-1.85-6.39-3.47-10.03-2.94zm-11.78 6.84c-.25 3.43 2.81 5.94 4.56 8.58 3.69-2.29 8.44-3.96 10.7-7.83-1.79-2.52-4.01-4.69-6.24-6.8-2.88 2.2-6.16 3.82-9.02 6.05zm19.06 1.7c1.71 2.04 3.49 4.04 5.52 5.79 2.55-2.23 5.79-4.33 6.18-8.01-2.29-1.01-4.57-2.03-6.91-2.9-1.56 1.74-3.19 3.42-4.79 5.12zm-51.19.95c.81 2.19 1.63 4.38 2.68 6.47 4.35.45 8.27-2.53 12.2-4.06-.91-2.36-1.88-4.68-2.85-7.01-4.08 1.36-8.08 2.92-12.03 4.6zm81.02-3.47c-1.66 1.02.25 3.34 1.68 2.21 1.62-1-.28-3.39-1.68-2.21zm4.37 1.65c0 .56-.02 1.67-.03 2.23 3.19 1.06 6.34 2.72 9.82 2.24-2.63-2.59-6.2-3.91-9.79-4.47zm-66.41 5.63c.92 3.11 2.3 6.05 3.76 8.95 3.82-1.49 7.59-3.14 11.13-5.21-.97-3.07-2.85-5.71-4.64-8.34-3.59 1.12-6.95 2.82-10.25 4.6zm-33.11.67c.57 2.51 1.58 4.88 2.75 7.17 4.05-1.26 8.17-2.31 12.12-3.87-.69-2.1-1.45-4.2-2.63-6.07-4.24-1.34-8.28 1.66-12.24 2.77zm52.25 3.74c1.06 2.24 2.33 4.37 3.63 6.49 4.48-2.13 8.55-4.95 12.46-7.98-1.49-2.02-2.5-5.16-5.25-5.62-3.81 2.04-7.14 4.87-10.84 7.11zm29.74-4.52c-7.17 13.81-13.67 27.96-20.67 41.86-6.81 14.41-13.96 28.69-20.02 43.43.85 2.02 2.44 3.61 3.85 5.26 4.94-9.91 9.11-20.2 14.26-30.01 9.19-19.57 19.55-38.62 27.44-58.76-1.62-.62-3.24-1.21-4.86-1.78zm-63.66 5.94c1.44 2.86 2.77 5.78 4.12 8.69 3.72-1.18 7.45-2.38 10.97-4.09.93-3.32-1.82-6.25-2.86-9.23-4.28.93-8.29 2.79-12.23 4.63zm-33-.08c.9 2.06 1.82 4.12 2.69 6.2 4.1-.95 8.12-2.18 12.12-3.51-.73-2.3-1.14-5-3.25-6.49-4.18-.44-8.1 1.71-11.56 3.8zm-14.32 3.17c.33 2.54 1.2 4.95 2.34 7.23 4.16-.93 8.25-2.19 12.29-3.57-.85-2.29-1.71-4.57-2.55-6.86-4.18.44-8.09 2.02-12.08 3.2zm33.16 1.11c.81 3.19 2.27 6.15 3.61 9.15 4.2-.87 8.2-2.47 12.26-3.83-1.11-3.12-2.58-6.09-3.91-9.12-4.05 1.06-8.05 2.31-11.96 3.8zm34.15 1.2c.74 2 1.56 3.97 2.37 5.96 4.83.09 9.09-2.38 12.97-5.01-1.02-2.02-2.12-3.99-3.26-5.94-4.4.58-8.14 3.17-12.08 4.99zm56.96-4.55c-6.93 14.99-14.08 29.87-21.21 44.76-6.58 13.11-12.35 26.64-19.79 39.29-2.3 4.22-3.76 10.86 1.18 13.81 6.66-12.83 12.54-26.06 18.97-39.01 9.34-19.71 19.17-39.19 28.56-58.88-2.57.06-5.15.09-7.71.03zm-138.96 7.66c.87 2.28 1.84 4.53 2.79 6.79 4.02-1.02 7.94-2.41 11.74-4.07-.59-2.17-1.34-4.29-2.13-6.39-4.49-.38-8.55 1.65-12.4 3.67zm33.01-.19c1.08 3.08 2.32 6.1 3.65 9.09 4.36-.62 8.63-1.87 12.73-3.49-1.49-3.04-2.89-6.12-4.36-9.16-3.93 1.42-8 2.43-12.02 3.56zm34.72 2.58c.58 2.11.85 4.61 2.47 6.19 4.47.46 8.7-1.73 12.19-4.33-.95-2.09-1.88-4.18-2.9-6.24-4.04 1.11-7.96 2.64-11.76 4.38zm29.94 4.39c-6.28 14.23-13.65 27.94-20.07 42.1-1.35 3.22-3.49 6.26-3.78 9.82.71 1.74 2.53 2.69 3.83 3.97 10.6-21.44 21.21-42.89 31.01-64.7-3.77 2.74-9.24 4.04-10.99 8.81zm-112.85-.31c1.24 2.13 2.5 4.24 3.78 6.36 3.87-1.74 7.76-3.44 11.71-4.98-.7-2.19-1.41-4.39-2.39-6.47-4.91-.8-9.09 2.81-13.1 5.09zm34.07-2.17c.08 3.31 1.86 6.26 2.88 9.35 4.12-1.13 8.21-2.39 12.29-3.66-.9-3.12-2.14-6.11-3.57-9.02-3.99.58-7.96 1.6-11.6 3.33zm33.97 2.92c.71 2.24 1.55 4.42 2.43 6.6 4.37-.09 8.48-1.74 12.3-3.76-.56-2.39-1.48-4.68-2.47-6.92-4.07 1.4-8.22 2.58-12.26 4.08zm-48.96 1.96c1.22 2.94 2.49 5.85 3.84 8.72 4.04-.77 7.87-2.3 11.7-3.77a83.156 83.156 0 00-3.6-9c-4.02 1.23-8.05 2.44-11.94 4.05zm-32.77 4.21c-.73 2.62 2.43 4.35 3.52 6.47 3.97-1.85 7.73-4.1 11.65-6.03-1.19-2.25-2.45-4.47-3.76-6.65-4.04 1.55-8.15 3.29-11.41 6.21zm67.63-2.07c.16 2.57 1.03 5 2.07 7.34 4.01-1.06 8.05-2.08 11.87-3.73-.51-2.36-1.29-4.64-2.13-6.89-4.04.65-7.97 1.86-11.81 3.28zm37.18 5.01c-5.28 11.91-12 23.18-16.48 35.43 1.72.61 3.46 1.16 5.19 1.75 7.64-14.16 14.32-28.82 21.25-43.33-3.57 1.54-8.73 1.76-9.96 6.15zm-85.31-1.81c.52 3.34 2.64 6.06 4.25 8.94 3.59-1.41 7.19-2.8 10.76-4.27-1.18-3.09-2.54-6.09-3.91-9.09-3.82 1.16-7.47 2.79-11.1 4.42zm32.29 1.27c.89 2.28 1.85 4.54 2.71 6.84 4.38-.45 8.68-1.59 12.65-3.53-.9-2.24-1.76-4.49-2.63-6.73-4.3.91-8.54 2.1-12.73 3.42zm-66.82 8.08c1.97 1.59 3.29 5.14 6.27 4.74 3.54-2.39 6.86-5.09 10.37-7.54-1.56-2.09-3.17-4.14-4.86-6.12-4.31 2.43-8.42 5.27-11.78 8.92zm20.55-2.08c1.78 2.83 3.81 5.49 5.92 8.07 3.17-1.72 6.43-3.3 9.53-5.15-.11-3.23-2.86-5.94-4.11-8.9-4.06 1.4-7.74 3.68-11.34 5.98zm32.38-1.14c.93 2.02 1.81 4.05 2.63 6.12 4.23.18 8.2-1.3 11.74-3.5-.95-2.32-1.89-4.65-2.82-6.97-3.9 1.31-7.81 2.62-11.55 4.35zm46.93 1.34c-3.8 8.51-8.44 16.62-11.99 25.25 2.03.5 4.07 1.01 6.12 1.44 4.97-10.13 9.91-20.26 14.47-30.58-3 .74-7.41.34-8.6 3.89zm-59.16 3.49c.79 2.19 1.86 4.27 3.04 6.28 3.53-.31 6.88-1.58 9.76-3.63-.84-2.23-1.8-4.4-2.79-6.55-3.44 1.01-6.89 2.1-10.01 3.9zm-33.05 5.38c2.07 2.49 4.39 4.76 6.89 6.82 3.18-1.97 6.19-4.2 9.25-6.35-1.11-3.26-3.44-5.87-5.89-8.2-3.49 2.47-7.05 4.87-10.25 7.73zm43.26 4.56c0 .31.02.95.02 1.26 7.75 6.33 18.25 8.04 28 8.05 2.87-7.17 8.1-13.51 8.84-21.43-12.23 4.2-24.66 7.84-36.86 12.12zm-53.83-9.07c-2.48 1.45-4.51 3.58-6.21 5.88-.6.9-1.58 2.16-.88 3.26 1.57 1.63 3.54 2.81 5.4 4.09 2.56-3.02 5.4-5.79 8.05-8.73-1.65-1.95-3.19-5.67-6.36-4.5zm31.65 5.04c.54 1.71 1.12 3.4 1.62 5.13-1.71-.95-3.27-2.12-4.77-3.35-2.66 1.72-5.28 3.5-7.88 5.32.22 1.74.5 3.48.74 5.23-1.7-.49-3.47-2.03-5.27-1.31-2.04 1.59-3.74 3.57-5.57 5.39.29 1.27.6 2.54.9 3.83-1.33-.05-2.65-.1-3.98-.14-1.25 2.14-2.48 4.3-3.68 6.47.66 1.12 1.34 2.23 2 3.36-1.52.39-3.03.78-4.55 1.16-.69 2.44-1.42 4.87-2.14 7.31.82.94 1.63 1.88 2.43 2.85-1.13.56-2.28 1.11-3.41 1.68-.13 3.03-.27 6.06-.41 9.09 1.22.51 2.44 1.03 3.67 1.56-1.17.79-2.36 1.55-3.54 2.32.01 3.01.03 6.03-.04 9.05 1.39.15 2.78.32 4.18.52-1.19 1.12-2.49 2.12-3.83 3.04.55 3.07 1.03 6.15 1.74 9.19 1.35.1 2.7.19 4.07.3-.91 1.63-2.79 3.21-2 5.27 1.07 3.21 2.35 7.24 6.19 7.82-1.69 4.42 2.41 7.52 4.61 10.79 1.69-.01 3.39-.05 5.09-.04-.76 1.21-1.53 2.41-2.28 3.63 2.71 2.22 5.17 4.78 8.04 6.8 1.27-.13 2.52-.43 3.78-.67-.07 1.24-.13 2.49-.18 3.74 2.54 1.97 4.95 4.14 7.74 5.77 1.38.01 2.73-.31 4.1-.49-.02 1.21-.03 2.43-.03 3.65 4.13 1.6 7.05 6.6 11.86 5.7.44 2.35 1.97 4.09 3.98 5.3 3.47 2.13 5.6 6.53 10.14 6.47.76 4.55 4.56 7.54 7.25 10.99.9 1.37 2.64 1.39 4.06 1.87-.67 4.74 2.67 8.62 4.28 12.83.49 1.9 2.75 1.42 4.21 1.97-.87 1.09-1.75 2.18-2.62 3.27.81 3.32.93 6.75 1 10.16 1.73.01 3.46.04 5.2.08-.09.71-.27 2.12-.35 2.83-1.6.1-3.2.19-4.79.3-.22 2.88-.79 5.71-1.34 8.55 1.38.64 2.74 1.33 4.08 2.08-1.65.49-3.31.94-4.96 1.38-1.46 2.8-2.97 5.59-4.26 8.48 2.02.14 4.05.3 6.07.54 9.71-8.42 10.8-22.46 8.63-34.33-2.12-10.82-7.08-21.29-15.14-28.95-9.75-11.58-22.96-19.3-35.19-27.91-11.56-7.73-22.47-17.21-29.1-29.64-6.88-12.46-8.51-27.43-5.69-41.27 3.04-14.86 11.99-28.64 25.07-36.53 4.14-2.57 8.93-3.79 13.12-6.25-.55-2.25-1.67-4.29-2.73-6.32-3.8.02-6.97 2.31-10.12 4.13zm-28.59 6.11c-.93 1.17-2.6 2.29-2.11 4.01 1.91 2.08 4.36 3.56 6.68 5.15 2.84-2.3 5.42-4.91 7.83-7.66-2.51-1.9-4.27-5.78-7.72-5.85-1.87 1.05-3.15 2.88-4.68 4.35zm-20.22 11.53c2.21 1.29 4.5 2.47 7.04 2.92 1.96-3.55 4.15-6.98 6.54-10.26a29.701 29.701 0 00-5.92-4.74c-3.65 3.22-6.03 7.55-7.66 12.08zM327.36 373c-2.32 14.76 1.58 30.5 10.57 42.45 9.89.44 19.88 1.13 29.43 3.9 6.85 1.69 13.05 5.28 18.11 10.17 1.43-13.18 1.84-27.68-5.55-39.3-1.16-1.6-1.82-3.41-1.55-5.39 2.84 2.18 4.56 5.41 6.07 8.59 5.06 11.46 4.48 24.4 3.31 36.58-.02 11.7 2 23.86 8.57 33.77 4.23 5.03 10.1 8.52 16.25 10.71 10.85 3.64 22.39 4.12 33.65 5.55 9.64 1.18 19.81 2.29 28.2 7.63 6.39 3.95 10.32 10.58 14.05 16.88 4.19 6.79 8.16 13.72 12.5 20.42 3.16 5.03 7.58 9.53 13.21 11.7 8.18 3.22 17.14 4.62 25.89 3.5 6.79-1.66 12.39-6.24 19.15-8.06-3.15-5.16-7.63-9.36-12.31-13.1-3.16-2.38-6.86-4.59-10.95-4.52-5.86-.35-6.95 8.62-12.92 7.99-6.08-.38-9.89-6.05-12.74-10.79-6.25-11.92-10.51-24.72-14.93-37.38-.69-2.29-2.67-3.77-4.35-5.32-4.11-3.47-8.55-6.71-13.68-8.47-6.26-2.34-13.44-2.72-18.82-7.02-3.46-3.22-2.33-8.58-.71-12.45 2.87-6.51 5.58-13.12 7.34-20.03 1.22-5.22.52-10.6.12-15.87 3.59-.71 7.36-1.16 10.98-.33 4.14 1.49 7.02 5.16 8.92 8.98 3.43 6.96 5.4 14.66 9.9 21.07 2.86 4.06 8.06 5.79 12.87 5.58-.18-6.27-4.08-11.33-7.29-16.38 1.3.34 2.87.35 3.67 1.65 4.21 4.59 4.91 11.04 7.29 16.57 3.41 6.83 10.74 10.59 17.88 12.32-2.36-5.4-4.53-10.88-6.85-16.29-1.67-4-5.27-6.68-7.32-10.42 1.41.44 3.03.62 4.04 1.84 6.4 6.14 7.36 15.54 12.2 22.66 6.65 7.17 17.21 8.29 26.46 8.18-3.28-5.72-7.52-10.8-11.75-15.83-3.27-3.97-7.71-6.67-11.39-10.21.68.01 2.05.02 2.73.03 8.97 5.08 14.6 14.07 20.72 22.05 3.7 4.59 8.72 8.45 14.63 9.55 5.9 1.08 11.89-.44 17.5-2.21-3.16-2.25-7.11-2.95-10.29-5.16-8.71-5.79-14.79-14.54-22.7-21.24-2.52-2.2-5.74-3.55-7.78-6.28 3.31-.42 5.81 2 8.25 3.84 9.23 7.39 15.78 17.99 26.44 23.59 8.92 4.61 20.48 3.17 27.77-3.84-13.66-1.63-23.37-12.4-35.62-17.49.02-.52.07-1.54.09-2.05 11.71 3.8 20.43 13.74 32.48 16.76 8.75 1.49 17.9-.68 25.33-5.49-6.55-1.24-13.29-1.89-19.49-4.48-24.12-9.12-40.01-31.33-63.41-41.71-7.47-3.18-15.47-4.96-23.52-5.79-11.43-.64-22.8.82-34.13 2.03-6.63.61-13.24 2.24-19.92 1.62-4.82-1.25-8.22-5.25-11.24-8.95-6.91-8.82-12.78-18.41-19.82-27.13-3.85-4.57-8.13-9.04-13.71-11.46-14.29-6.71-30.6-5.91-45.44-10.82-6.47-1.72-12.11-5.37-17.79-8.77-1.51-.67-3.09-2.13-4.84-1.38-18.6 6.11-31.31 24.23-33.76 43.25zm-15.44-27.16c2.73 1.41 5.52 2.72 8.32 4.02 2.01-2.91 3.8-5.96 5.55-9.03-2.52-2.02-5.1-3.95-7.88-5.59-2.4 3.26-5.35 6.44-5.99 10.6zm-10.93-2.53c-2.32 4.1-3.68 8.61-4.68 13.19 2.37 1.15 4.9 1.93 7.5 2.38 1.38-4.15 2.92-8.24 4.16-12.43-2.3-1.12-4.63-2.15-6.98-3.14zm9.05 4.72c-1.43 3.76-2.66 7.59-3.81 11.44 3.18 1.3 6.54 2.21 10 2.4.83-3.3 1.87-6.55 2.68-9.85-2.87-1.52-5.75-3.06-8.87-3.99zm-15.49 25.06c2.29 1.21 5.15.38 7.67.62.32-4.07.49-8.15 1.19-12.17-2.3-.82-4.66-1.49-6.99-2.17-1.91 4.29-2.11 9.09-1.87 13.72zm11.09-10.9c-.14 4.09-.73 8.13-1.27 12.19 3.32.47 6.63 1.05 9.99 1.2.25-3.64.82-7.23 1.32-10.83-3.33-.92-6.64-1.91-10.04-2.56zm-11.17 14.11c-.3 4.62-.34 9.26.06 13.88 2.59.17 5.18 0 7.73-.49-.15-4.38-.57-8.75-.64-13.13-2.38-.13-4.77-.21-7.15-.26zm10.76.82c-.08 4.13-.02 8.26.15 12.38 3.06-.05 6.12-.08 9.18-.23.15-3.69.14-7.39.05-11.07-3.09-.66-6.24-.87-9.38-1.08zm-111.89 4.13c3.01 2.27 6.51 3.74 9.62 5.86 2.47 1.69 3.67 4.52 5.22 6.97.86-1.96 1.42-4.01 1.56-6.14-4.94-3.22-10.16-7.2-16.4-6.69zm14.04 14.26c.02 1.56.05 3.12.09 4.68.96.02 2.89.06 3.85.07.95-1.38 1.89-2.78 2.88-4.12.13.99.39 2.96.51 3.94 4.69.18 9.38.16 14.08.1-.2-2.62-.42-5.24-.87-7.82-6.98-2.11-13.84 1.59-20.54 3.15zm97.98-3.76c.02 4.5 1.26 8.86 2.31 13.21 3.15-.66 6.23-1.64 9.28-2.65-.43-3.26-.99-6.51-1.68-9.72-2.73-2.12-6.69-.47-9.91-.84zm-10.24.82c-.14 4.87.91 9.65 2.14 14.33 2.49-.05 4.95-.39 7.37-.97-.14-4.58-1.3-9.05-2.13-13.53-2.46.04-4.92.08-7.38.17zm-26.62 3.3c6.4 17.24 13.81 34.09 20.27 51.31 18.42 46.47 35.78 93.38 55.38 139.37-.08-5.64 2.96-11.61.06-16.92-19.55-47.28-37.35-95.25-56.11-142.85-3.09-8.19-5.78-16.75-10.98-23.9-2.15-3.11-5.3-5.3-8.62-7.01zm-59.78 6.63c.05 7.42-.74 14.83-2.6 22.03 6.2 1.36 12.46 2.47 18.59 4.16 1.46-4.06.51-8.43 1.15-12.6.85-4.19.35-8.48.92-12.7-6.09.43-11.96-1.68-18.06-.89zm19.95 3.2c-.05 1.96-.09 3.92-.14 5.89.5-.02 1.51-.07 2.02-.1-.04-1.97-.09-3.94-.15-5.91l-1.73.12zm79.73 1.87c1.33 4.24 2.92 8.44 5.36 12.19 2.97-1.53 5.99-2.94 8.96-4.48-1.85-3.1-3.2-6.45-4.49-9.81-3.25-.85-6.7 1.16-9.83 2.1zm-9.09 1.97c-.41 5.11 2.82 9.34 4.43 13.95 2.44-.86 4.87-1.73 7.28-2.66-1.48-4.35-3.53-8.48-5.11-12.79-2.24.32-4.45.84-6.6 1.5zm-7.07 3.23c1.92 7.54 5.61 14.49 8.41 21.73 16.71 41.68 32.6 83.68 49.35 125.33 1.28-3.3 4.72-6.54 3.27-10.29-11.84-29.21-23.42-58.52-35.17-87.77-1.79-4.37-2.72-9.03-4.38-13.44-1.74-4.55-4.91-8.32-8.12-11.91-3.56-4.04-6.05-8.87-8.4-13.68-1.66-3.33-2.11-7.33-4.96-9.97zm185.19 1.59c-2.43 4.27-4.47 8.76-6.69 13.14-3.27 6.89-7.15 13.65-8.71 21.2 8.38 4.63 17.95 6.39 26.47 10.72 6.45 3.04 11.51 8.92 13.36 15.83 2.37 8.74 5.66 17.2 9.42 25.43 2.94 5.73 6.13 11.55 10.94 15.94 3.99-1.21 5.74-6.23 10.01-7.09 4.27-.47 8.86-.6 12.77 1.49 10.23 4.95 16.78 14.68 24.02 23.03-8.39 2.17-15.27 7.8-23.43 10.48-10.42 2.73-21.63 2.03-31.86-1.16-12.35-5.16-19-17.63-25.68-28.46-6.22-10.62-13.57-22-25.71-26.37-6.27-2.88-13.27-2.26-19.96-2.17-15.71 32.65-31.64 65.18-47.38 97.81-5.48 12.1-11.76 23.84-16.89 36.09 6.31-.04 12.6-.72 18.92-.71 30.76-1.93 61.34-8.65 89.7-20.86 33.49-14.36 64.11-35.37 89.67-61.33 23.07-23.96 42.26-51.82 55.64-82.3-3.22.44-6.25 1.63-9.41 2.3-2.51.54-5.51-.24-7.52 1.74-2.64 2.18-5.2 4.56-8.38 5.93-4.92 2.01-10.65.67-15.29 3.57-6.13 3.69-13.52 3.61-20.4 2.85-4.91-.79-8.89-3.93-13.18-6.16-6.59.26-13.44.93-19.66-1.81-4.27-1.26-7.37-5.58-12.16-4.96-8.23-.08-15.02-5.99-18.87-12.85-4.78-.26-10.02-.75-13.73-4.14-8.17-6.98-9.28-18.46-14.81-27.19-.3 0-.9.01-1.2.01zm-162.49 7.38c2 4.07 4.55 7.91 7.86 11.04 2.81-1.56 5.53-3.26 8.22-5.03-2.26-3.26-4.79-6.33-6.79-9.75-3.3.69-6.3 2.27-9.29 3.74zm32.73-.08c2.49 2.78 5.46 5.06 8.46 7.25-.55-2.08-1.16-4.14-1.79-6.19-2.22-.36-4.44-.77-6.67-1.06zm-41.66 3.67c1.49 4.73 4.11 9.49 8.15 12.47 2.63.06 4.34-2.32 6.3-3.71-2.71-3.64-5.29-7.38-7.9-11.09-2.28.48-4.46 1.33-6.55 2.33zm58.97-.12c.68 3.28 2.03 6.38 3.64 9.3 2.38 4.49 5.67 9.15 11.05 10.11-2.26-5.54-4.12-11.25-6.64-16.66-2.29-1.81-5.19-2.59-8.05-2.75zm-39.81 10.62c2.68 3.45 5.99 6.43 9.41 9.15 2.43-2.28 4.87-4.57 7.19-6.96-2.93-2.79-6.06-5.37-8.95-8.22-2.57 1.76-7.12 2.6-7.65 6.03zm-9.15 4.84c3.29 3.47 6.38 7.28 10.28 10.07 2.93.52 4.48-2.73 6.32-4.41-3.59-3.21-6.94-6.65-10.21-10.17-2.36 1.14-4.56 2.61-6.39 4.51zm24.98 1.27c-1.37 1.62-4.22 2.92-3.47 5.45 2.87 2.84 6.28 5.09 9.57 7.44 2.04-2.46 5.25-4.43 5.85-7.76-1.94-2.43-4.78-3.95-7.13-5.94-1.46-1.53-3.71-.65-4.82.81zm-12.51 11.68c4.21 2.74 7.72 6.44 12.16 8.86 1.42-1.88 2.88-3.73 4.31-5.6-2.96-3.21-6.46-5.88-10.04-8.35-2.71.22-4.4 3.39-6.43 5.09zm20.69 2.44c3.13 2.47 6.49 4.65 9.94 6.65 2.66-1.84 4.91-4.18 6.76-6.82-2.79-2.97-6.42-4.93-9.98-6.82-2.37 2.2-4.6 4.54-6.72 6.99zm15.83 3.93c-1.14 1.43-3.31 2.63-2.83 4.75 2.98 3 6.73 5.12 9.81 8.04 2.62-1.89 5.23-3.78 7.74-5.83-3-3.84-6.86-6.93-10.92-9.56-1.76-.22-2.63 1.64-3.8 2.6zm-21.55 4.49c2.29 2.61 5.54 4.05 8.64 5.45 1.99-1.57 3.98-3.23 5.16-5.52-3.04-2.2-6.19-4.25-9.44-6.11-1.8 1.64-5.35 3.21-4.36 6.18zm-15.33-3.3c1.4 4.86 3.8 9.35 5.53 14.09 8.53 20.98 16.12 42.33 25.06 63.14.49.87.73 2.17 1.97 2.22 1.09-1.81 2.62-3.56 2.99-5.67-.79-3.97-2.57-7.65-3.94-11.43-6.84-17.92-14.49-35.54-20.7-53.69-2.78-3.69-6.8-6.54-10.91-8.66zm26.02 10.61c2.6 1.73 4.61 4.27 7.33 5.82 3.21.8 5.69-1.92 8.1-3.55-2.99-2.91-6.29-5.46-9.69-7.85a62.97 62.97 0 00-5.74 5.58zm19.9 2.96a56.78 56.78 0 017.95 8.52c3.12-1.06 6.16-2.36 8.99-4.07-2.44-3.32-4.89-6.66-7.73-9.65-3.88-.99-6.51 3.12-9.21 5.2zm-9.09 5.23c1.72 2.3 3.43 4.66 5.69 6.47 3.03 1.01 5.89-.79 8.53-2.04-1.3-3.53-4.45-5.96-7.31-8.2-2.62.54-4.65 2.47-6.91 3.77zm-12.77-2.13c1.66 6.33 4.25 12.37 6.67 18.44 4 9.21 7.25 18.72 10.74 28.14 1.69-1.59 3.55-3.36 3.81-5.8.51-4.44-1.8-8.5-3.42-12.47-2.56-5.32-4.51-10.9-6.86-16.3-2.2-5.05-5.73-9.82-10.94-12.01zm59.65 2.56c.62 1.69 1.28 3.38 1.9 5.09l2.36.12c.3-1.61.55-3.23.76-4.85-1.68-.13-3.35-.25-5.02-.36zm-27.65 4.55c1.53 3.36 3.43 6.53 5.25 9.74 2.87-.09 5.67-.73 8.42-1.52-.86-4.19-3.16-7.87-4.87-11.74-3.01.97-5.93 2.21-8.8 3.52zm33.07 32.55c3.83-9.09 8.64-17.72 12.79-26.66.97-2.13 1.55-4.38 2.05-6.65-1.76-.25-3.51-.5-5.26-.72-5.81 10.36-10.83 21.85-9.58 34.03zm-43.31-27.93c1.4 2.47 2.97 4.85 4.44 7.29 2.9-.1 5.83-.23 8.6-1.17-1.06-3.5-3.26-6.47-5.08-9.59-2.84.69-5.43 2.07-7.96 3.47zm17.17 7.72c.27 3.22 1.04 6.36 1.62 9.53 2.54.02 5.07-.02 7.6-.13.18-3.8-.6-7.53-1.18-11.26-2.67.67-5.37 1.21-8.04 1.86zM380 499.59c.5 2.68 1.33 5.28 1.85 7.97 2.65.04 5.29-.01 7.94-.16-.01-3.18-.53-6.32-1.48-9.34-2.8.35-5.56.9-8.31 1.53zm12.74 9.78c-.54 2.91-1.3 5.78-1.41 8.76 2.38.25 4.77.4 7.16.58 1.11-2.94 1.61-6.05 2.12-9.13-2.62-.2-5.25-.22-7.87-.21zm-11.07 1.12c-.13 2.32-.3 4.64-.36 6.96 2.4.13 4.81.17 7.22.16.68-2.38 1.09-4.83 1.36-7.28-2.74-.01-5.48.04-8.22.16zm-2.18 10.11c-1.97 1.58-2.11 4.29-2.5 6.6 2.14.25 4.28.47 6.43.62 1.27-2.45 2.51-4.91 3.67-7.41-2.53-.05-5.1-.31-7.6.19zm6.57 7.65c2.42.36 4.84.75 7.26 1.21 1.88-2.6 3.31-5.5 4.4-8.52-2.64-.17-5.27-.33-7.9-.47-1.35 2.54-2.66 5.12-3.76 7.78zm-11.43 1.39c-2.47 1.24-2.89 4.22-3.52 6.62 1.85.2 3.72.4 5.59.55 1.6-2.19 3.11-4.45 4.29-6.89-2.1-.23-4.26-.8-6.36-.28zm5 7.78c1.81.38 3.64.78 5.48 1.12 2-2.27 3.98-4.56 5.93-6.87-2-.44-4-1.09-6.07-1.04-2.86 1.13-3.98 4.29-5.34 6.79zm16.69 7.9c-2.47 4.53-3.76 9.58-5.99 14.22-7.29 15.75-15.46 31.07-23.22 46.58-2.19 4.08-2.47 9.07.11 13.05 1.09-1.33 2.14-2.7 2.86-4.26 12.95-28.14 27.66-55.47 39.88-83.95-4.73 4.59-10.19 8.64-13.64 14.36zm-2.82-12.97c-1.75 2.3-3.6 4.51-5.37 6.79 1.87.01 3.83.53 5.68.01 2.4-1.65 4.03-4.13 5.48-6.59-1.93-.12-3.86-.17-5.79-.21zm-27.46 12.31c.84.24 2.52.73 3.37.97 1.61-2.01 3.1-4.1 4.54-6.23-3.89-2.84-8.19 1.12-7.91 5.26zm6.17 1.28c1.36.54 2.72 1.09 4.08 1.65 2.35-2.08 4.48-4.38 6.54-6.74-1.91-.58-3.81-1.16-5.74-1.63-1.69 2.19-3.35 4.41-4.88 6.72zm7.86 1.05c-.2 2.22 2.65 1.92 4.04 2.77 2.12-2.62 4.47-5.08 6.06-8.08-1.57-.08-3.14-.22-4.71-.08-2.11 1.43-3.83 3.39-5.39 5.39zm-16.91.37a91.711 91.711 0 00-2.98 5.95c1.27.2 2.55.41 3.83.61 1.26-2.1 2.38-4.27 3.24-6.56-1.36-.02-2.73-.02-4.09 0zm3.06 7.67c.74.4 2.24 1.21 2.99 1.61 1.85-2.41 4.06-4.74 4.69-7.82-1.3-.14-2.6-.27-3.9-.38-1.24 2.2-2.48 4.41-3.78 6.59zm11.11-4.7c-2.16 1.91-3.57 4.49-5.13 6.88 1.18.55 2.41.92 3.69 1.09 2-2.24 4.04-4.45 6.08-6.65-1.52-.55-3.03-1.18-4.64-1.32zm-18.62 5.12c-1.1 2.17-2.32 4.29-3.16 6.59.06 1.65 1.86 1.52 3.02 1.82 1.33-2.58 2.92-5.15 3.18-8.1-1.02-.1-2.03-.2-3.04-.31zm2.23 10.18c.71.03 2.13.1 2.83.13 1.31-2.34 2.64-4.67 4.02-6.96-.77-.38-2.33-1.14-3.11-1.52-1.64 2.58-2.93 5.39-3.74 8.35zm9.23-6.24c-1.59 3-4.76 5.84-3.62 9.54 3.66-1.76 5.72-5.39 6.53-9.23-.73-.08-2.19-.23-2.91-.31zm-18.13 14.3c.67-.01 2.01-.02 2.68-.03.8-2.52 2.28-4.98 1.97-7.71l-1.92-.6c-1.75 2.43-2.39 5.42-2.73 8.34zm4.2 1.8l3.18.42c.98-2.55 2.06-5.1 2.39-7.83-4.29-.47-4.06 4.64-5.57 7.41zm7.58-5.13c-.88 2.56-1.81 5.16-1.64 7.92 2.72-1.72 3.69-4.86 4.51-7.78-.96-.05-1.92-.09-2.87-.14zm-13.07 6.18c-.3 2.99-.66 6.02-.12 9.02 1.2-1.29 2.07-2.78 2.42-4.52 1.25 1.66 2.36 3.43 3.87 4.88.49-2.72.81-5.47.68-8.23-1.73.83-2.23 2.69-2.72 4.39-1.19-1.58-1.72-3.43-1.68-5.38-.82-.06-1.64-.11-2.45-.16zm8.83 10.05c1.93-1.78 2.49-4.35 2.97-6.81-3.22.82-3.28 4.07-2.97 6.81zm-9.28.79c-.02 1.81-.03 3.62-.03 5.44.57-.02 1.7-.05 2.27-.07-.02-1.75-.03-3.49-.03-5.23-.55-.03-1.66-.1-2.21-.14zm5.12-.08c-.25 2.13-.26 4.29 0 6.44 1.18-2.01 1.36-4.47 0-6.44zm-4.18 8.74c.16 1.36.34 2.72.51 4.1.52.26 1.55.8 2.07 1.06-.19-1.54-.38-3.07-.56-4.59-.51-.14-1.52-.43-2.02-.57zm4.02 19.72c.16 1.16.33 2.31.5 3.48 1.42.18 2.84.37 4.26.58-1.59-1.36-3.16-2.72-4.76-4.06zM530.99 91.29c17.05-8.08 33.87-16.68 50.32-25.92.31.34.94 1.02 1.26 1.36-3.77 18.11-8.73 36.17-9.32 54.75-3.87-1.25-6.95-3.95-9.97-6.56 1.41-5.18 4.54-10.29 4.1-15.72-4.23-3.56-8.73-6.81-13.45-9.68-5.63 1.26-9.89 5.54-13.95 9.38-3.34-2.12-6.07-4.99-8.99-7.61zm29.32-6.22c2.29 3.08 5.49 5.25 9.01 6.71 1.06-4.18 2.25-8.38 2.46-12.71-3.95 1.77-7.54 4.21-11.47 6zm-419.66 14.7c8.3-2.73 18.38-1.51 24.87 4.68 6.49 5.64 9.77 14.78 8.52 23.25-1.62 10-9.65 17.1-17.44 22.73-2.51-4.91-6.24-9.06-10.46-12.57-8.47-7.37-15.12-16.86-24.93-22.63 5.67-6 11.48-12.55 19.44-15.46zm-8.71 12.26c3.78 3.89 7.79 7.57 11.53 11.5 5.76 5.61 11.06 11.8 17.72 16.41 2.61-3.18 4.67-7.03 4.64-11.25 1.12-12.2-10.59-23.84-22.81-22.42-4.36.14-8.09 2.79-11.08 5.76zm492.76-3.29c.56-1.62 1.24-3.19 2-4.74 3.38 2.66 6.01 6.1 7.94 9.94-9.91 8.77-13.96 21.72-20.37 32.89 12.04-4.27 25.73-5.26 35.98-13.51 1.28-.44 2 .84 2.77 1.61 2.11 2.37 4.04 4.9 6.09 7.33-6.84 1.98-13.87 3.2-20.67 5.33-11.12 3.65-22.28 7.19-33.58 10.23-.94-1.87-3.5-3.63-2.29-5.94 6.47-14.84 16.79-27.77 22.13-43.14z"/><path d="M471.76 107.61c.49-1.31 1.89-1.75 2.99-2.43-.51 3.13-2.25 5.85-3.11 8.87-2.92 9.71-.31 21.13 7.29 28.04 2.17 2.38 5.63 3.43 7.06 6.48-4.69-.46-8.12-4.15-11.09-7.46-7.71-9.15-8.52-23-3.14-33.5z"/><path d="M481.05 113.03c1.44.75 3.03 1.48 3.89 2.95 3.72 6.13 5.97 13.26 5.58 20.49-5.56 1.57-11.05-3.86-10.18-9.4-.11-3.08 2.65-4.95 4.56-6.93-1.46-2.27-3.44-4.34-3.85-7.11zm7.64 21.81c-.04-.58-.11-1.74-.15-2.32-1.07-.95-2.86-1.34-3.32-2.78-.09-2.47.48-4.91.62-7.37-6.42 1.94-3.93 13.33 2.85 12.47zm-165.93 1.86c.55-.05 1.64-.16 2.19-.21-1.85 5.46-3.66 11.02-3.55 16.86-.46-.23-1.38-.7-1.83-.93-.79-5.45.87-10.85 3.19-15.72zm75.87 19.1c2.36-1.25 5.03-3.23 7.83-2.21 3.77 2.4 7.07 5.57 9.69 9.19-.65-.06-1.97-.19-2.62-.25-2.92-2.27-5.5-4.93-8.43-7.19-1.22.46-2.43.92-3.64 1.37-.36 2.22-.71 4.45-.99 6.68-1.82.06-3.66.04-5.46.26-3.01.73-5.12 3.11-7.34 5.08-.94-1.1-2.75-1.95-2.43-3.66.04-2.45 1.22-5.04.09-7.39-2.59-2.89-6.55.01-8.28 2.45-1.67 2.49.1 5.31 1.91 7.16-.89 2.77-1.89 5.59-1.58 8.56.02 4.23 2.6 7.77 3.82 11.69-2.89-.06-5.78-.14-8.67-.05l.76-2.03c1.23-.36 2.46-.71 3.7-1.08-.61-2.21-1.33-4.39-1.84-6.62-1.64-4.1 2.14-8.47-.39-12.4-2.94-6.28 5.11-13.49 11.07-10.37 3.51 2.38 2.71 6.98 1.38 10.37 3.21-2.63 7.06-4.42 11.29-4.23.04-1.78.09-3.56.13-5.33zm-314.11 9.81c2.25-3.48 4.01-7.26 6.41-10.65 2 2.04 3.47 4.49 4.78 7-2.39 2.88-5.33 5.23-7.8 8.02-1.09.92-1.06 2.99.26 3.68 4.16 2.75 8.63 5 12.68 7.92 3.58-3.98 4.58-9.96 9.32-12.89.88 2.13 2.21 4.12 2.72 6.39-.81 3.89-6.45 5.43-6.41 9.34 3.78 3.02 8.01 5.45 12.36 7.56.97.41 2.47 1.31 3.21.02 3.94-4.94 4.63-11.47 6.74-17.24 2.41 2.3 6.52 5.55 4.22 9.22-3.86 6.94-8.35 13.52-12.04 20.56a184.483 184.483 0 00-43.43-26.05c1.71-4.6 4.35-8.76 6.98-12.88zm574.1-2c3.15-2.34 6.18-4.85 9.36-7.16 4.68 7.82 9.95 15.32 13.59 23.73-2.65.2-5.31.41-7.87 1.12-1.35-4.48-2.47-9.03-4.34-13.34-5.76 1.21-9.91 5.8-15.32 7.86 1.48 5.26 6.1 9.04 7.04 14.47-2.5.04-4.99.04-7.48.1-1.47-3.72-2.62-7.57-4.44-11.14-5.2 2.6-10.03 5.85-15.14 8.6 2.15 6.96 8.41 11.22 13.01 16.47-3.04.35-6.04.94-9.06 1.34-3.87-6.75-8.28-13.21-11.77-20.17-.65-1.47-2.08-4.03.46-4.47 11.4-4.28 22.26-10.03 31.96-17.41zm-357.65 8.34c1.95-3.18 4.65-6.92 8.79-6.83-2.17 3.04-5.63 5.02-7.17 8.54-3.18 6.05-2.25 13.59 1.28 19.28 1.57 2.44 3.7 4.46 5.31 6.88-1.33-.21-2.89-.03-3.76-1.28-6.7-6.76-9.56-18.11-4.45-26.59zm24.87 26.86c5.04-5.54 12.48-8.06 19.64-9.47 0 .5 0 1.5-.01 2-5.2 1.37-10.37 3.1-14.81 6.22-1.37 1.13-3.12 1.26-4.82 1.25zm356.54-1.41c2.87.12 6.04-.7 8.76.39 4.57 11.26 9.3 22.48 14.09 33.65-2.92.19-5.83.14-8.74.14.14-4.34-1.12-8.51-2.39-12.6-5.13 1.34-9.93 3.64-14.89 5.46-9.21 3.87-18.59 7.45-27.26 12.48-1.11-3.15-2.48-6.21-3.67-9.33 8.36-2.99 17.06-5.14 25.06-9.1 5.77-2.93 12.11-4.64 17.63-8.07-2.66-4.48-6.36-8.28-8.59-13.02zm-612.19 6.92c5.29-3.44 11.77-3.46 17.83-2.94 11.27 1.61 21.13 11.96 20.71 23.61.62 8.15-4.8 14.86-6.78 22.44-5.33-2.27-10.29-5.3-15.51-7.78-9.99-4.62-20.39-8.5-31.28-10.38 2.19-9.51 5.75-20.17 15.03-24.95zm3.06 6.62c-4.79 1.69-8.2 5.68-9.93 10.36 12.13 5.46 24.37 10.87 37.15 14.67 2.24-5.88 2.06-13.2-2.39-18.04-5.89-7.22-16.12-9.18-24.83-6.99zm243.64-2.65c.6.03 1.81.07 2.41.09 5.6 9.4 15.07 16.02 25.52 18.98 5.81 1.8 11.89.94 17.86 1.11-2.5 2.71-6.39 2.06-9.69 2.18-9.74.04-18.91-4.36-26.43-10.27-3.9-3.41-7.55-7.29-9.67-12.09zm-33.03 14.41c4.06-.76 6.42-6.13 10.89-4.89-.18 4.06-1.84 8.04-1.04 12.13.97 2.82 4.17 3.72 6.08 5.78-3.53.88-5.99-1.42-7.94-3.98-.4-3.81-.31-7.64-.06-11.45l-1.12 1c-2.36 1.73-4.88 3.38-7.74 4.13-2.04.01-3.38-1.85-4.69-3.15 1.87.07 3.73.43 5.62.43zm-9.83 13.67c2.94-1.03 4.71-4.22 7.99-4.39-1.91 4.72-7.11 7.65-12.13 6.4-.36-.56-1.08-1.7-1.44-2.27 1.85.09 3.71.31 5.58.26zm8.77.29c.98-.38 1.97-.76 2.97-1.14-.9 2.95-2.22 6.21-.88 9.25 1.95 2.96 5.71 3.53 8.49 5.41-4.75 1.86-9.87-1.77-11.26-6.28-1.16-2.39.29-4.86.68-7.24zm180.1 7.67c1.46.08 2.96.12 4.35.65 7.26 2.36 14.12 5.74 21.18 8.62-.02.52-.07 1.56-.09 2.08-7.8-2.63-15.17-6.35-22.96-9.03-1.24-.25-1.82-1.38-2.48-2.32zm197.34 15.94c16.78-3.61 33.72-6.96 49.8-13.14.98 8.8 4.94 16.94 5.9 25.74-2.86-.08-5.66-.61-8.32-1.59.62-4.36.67-8.76-.31-13.07-5.88.07-11.42 2.22-17.09 3.49 1.31 5.03 2.82 10.03 3.54 15.21-2.82-.65-5.54-1.61-8.21-2.69.02-3.66.04-7.33-.05-10.99-5.97.53-11.59 2.81-17.44 3.96.1 7.14 5.03 12.7 7.2 19.2-3.03-.03-5.97-.77-8.86-1.58-1.93-8.21-3.55-16.5-6.16-24.54zm-617.3 8.8c17.86-5.72 36.88-7 54.4-13.86.86 3.97-.87 7.71-1.82 11.47-5.36.05-10.69.87-15.95 1.85-1.36 5.09-2.82 10.23-3.31 15.49-.3 1.86 1.37 3.09 2.48 4.29 2.95 2.91 6.95 4.27 10.81 5.52-.49 3.71-1.37 7.36-2.3 10.99-.47-.01-1.41-.04-1.87-.05-2.46-3.26-5.67-5.79-8.83-8.33-10.99-9.37-23-17.54-33.61-27.37zm16.05 3.84c3.65 2.77 6.96 6.07 11.21 7.96.62-3.6 1.52-7.14 2.4-10.68-4.64.26-9.16 1.45-13.61 2.72zm182.58-5.22c6.65-4.26 14.46-6.29 22.18-7.53-.01.52-.04 1.57-.06 2.09-5.74 1.39-11.59 2.69-16.93 5.28-2.51 1.16-4.8 2.97-7.64 3.22.71-1.1 1.26-2.39 2.45-3.06zm427.73 30.09c17.15.03 34.19-2.1 51.01-5.34.12 8.22 1.94 17.2-2.32 24.71-2.49 5.33-9.43 7.43-14.75 5.43-3.86-1.14-6.82-4.03-9.43-6.95-5.79 3.37-11.16 7.56-15.33 12.84-1.52 2.03-3.73 3.32-6.04 4.27-.17-2.75-.19-5.64 1.29-8.09 4.48-8.07 12.18-13.46 18.55-19.9-7.36-.08-14.66 1.37-21.8 2.99-.65-3.29-1.15-6.61-1.18-9.96zm25.87 5.92c-1.15 8.12 9.44 13.19 15.98 9.37 4.1-1.76 5.22-6.55 5.34-10.58-7.18-.78-14.16 1.46-21.32 1.21zm-438.96-7.41c10.44 1.41 20.38 5.22 30.73 7.12 5.23.53 10.49.12 15.74.05-.12.49-.36 1.48-.49 1.98-15.79 3.6-30.71-4.71-46.03-6.95.01-.55.04-1.65.05-2.2zM48.82 310.94c4.78-3.24 10.72-2.98 16.21-2.68 7.7.54 14.51 5.93 17.57 12.9 4.29 8.25 3.31 17.82 2.72 26.75-3.41-.29-6.72-1.23-10.08-1.78-13.59-2.08-27.39-1.63-41.05-.72-1.36-12.87 3.05-27.51 14.63-34.47zm-3.47 12.4c-3.9 3.06-5.42 8.13-4.95 12.94 13.37.4 26.7 1.77 40.08 1.26.05-4.33-.8-8.87-3.64-12.29-7.75-8.72-22.6-9.13-31.49-1.91zm627.03 19.49c16.98 3.26 34.35 1.7 51.51 1.34.06 3.5.2 7.02-.34 10.5-16.92-2.52-34.17-3.11-51.15-.89-.03-3.65-.02-7.3-.02-10.95zM76.1 358.24c3.26-1.12 6.41 1.22 9.56 1.92 1.32 8.2 2.11 16.48 2.19 24.79-10.65-1-21.39-.41-31.94 1.24-6.16.66-12.15 2.49-18.36 2.67-.05-3.5-.88-6.91-1.23-10.37 7.57.33 15.17.4 22.73-.24 7.52-.98 15.06-1.93 22.65-2.03-.94-6.24-2.43-12.47-5.6-17.98zm596.2 9.83c10.82 2.54 21.76 4.48 32.72 6.3 6.02.63 12.73 1.46 17.87-2.49-.04 3.57-.36 7.14-1.34 10.59-8.42 3.11-16.22 7.62-23.94 12.16-5.11 3.35-10.69 5.93-15.64 9.52 11.76 2.41 23.66 4.68 35.72 4.37-.41 3.16-1.09 6.27-1.43 9.44-5.21-.32-10.15-2.13-15.27-2.99-11.46-2.03-23.02-3.83-34.69-3.7.5-3.64-1.32-9.49 3.43-10.7 12.06-4.46 22.27-12.56 33.88-17.95-4.27-3-9.69-2.86-14.6-3.84-5.94-.81-11.96-.56-17.93-.39.05-3.48.3-6.96 1.22-10.32zM78.16 401.89c3.8-1.26 7.39-3.12 11.33-3.93 1.5 2.6 2.24 5.5 2.31 8.5-1.27.38-2.55.78-3.83 1.18 5.07 4.84 8.87 11.26 9.41 18.36.46 5.82-2.85 11.6-8.05 14.24-11.78 6.38-26.29 4.67-37.86 11.67-.95-3.39-1.98-6.76-2.53-10.24 12.54-2.9 26.73-2.27 37.53-10.21 6.61-4.93 4.38-15.78-2.48-19.35-4.52-3.02-9.99-1.03-14.64.54-8.6 3.25-17.82 4.45-26.31 8.05-.84-3.22-1.87-6.45-1.78-9.81 4.8-.36 9.37-1.93 14.05-2.91 7.7-1.7 15.43-3.37 22.85-6.09zm586.42 15.25c9.26 11.74 19.91 22.25 30.42 32.85 3.16 3.12 6.11 6.47 8.54 10.21-8.88.6-17.74 1.48-26.61 2.16-9.95.57-19.74 2.62-29.65 3.43 1.1-3.43 2.26-6.85 3.51-10.23 5.49.36 11 .07 16.5-.14 2.31-5.16 4.35-10.63 5.37-16.15-2.58-4.71-7.34-7.59-11.57-10.64.41-4.03 1.87-7.82 3.49-11.49zm10.47 37.49c4.1.07 8.19-.31 12.28-.55-1.37-4.42-5.49-7.04-8.69-10.05-1.71 3.33-2.95 6.9-3.59 10.6zm-580.76-2.05c.02-2.82 4.25-3.54 6.47-2.77 5.5 2.48 8.92 7.95 11.04 13.38 3.42 8.19 1.89 18.08-3.47 25.1-8.96 11.5-27.8 12.61-38.36 2.73-4.92-4.25-7.57-10.37-9.81-16.32-.79-1.92-.87-4.01-1-6.05 2.13-.97 4.28-1.85 6.4-2.81.9 7.24 3.02 14.9 8.73 19.87 6.27 5.68 16.58 5.96 23.23.78 3.25-2.58 6.05-5.78 7.93-9.49.54-5.45.41-11.27-2.42-16.13-1.91-3.67-5.42-6.01-8.74-8.29zm612.5 2.79c2.56 2.95 5.16 5.89 8.09 8.51-.72 2.41-1.63 4.77-2.78 7.01-4.15-4.02-6.68-9.71-5.31-15.52zm-69.02 28.3c1.12-3.18 2.6-6.27 4.93-8.76 13.94 8.76 27.63 18.32 43.34 23.69-2.03 8.12-6.74 16.53-14.79 19.88-5.11 2.33-11.67.88-15.18-3.54-2.5-3.31-3.33-7.53-3.68-11.57-4.15-.01-8.32-.09-12.45.39-5.07.78-10.1 2.12-15.27 2.02 2.93-7.45 11.48-9.03 18.49-10.06 4.49-.3 8.9-1.24 13.39-1.6-5.02-5.32-11.99-8.16-18.78-10.45zm20.93 11.46c-.39 3.27-.77 6.62-.17 9.9 2.23 4.03 6.75 7.03 11.48 6.42 3.65-.42 6.35-3.32 7.88-6.48-6.31-3.4-12.18-8.03-19.19-9.84zm-537.01-5.56c3.82 1.56 5.08 5.85 7.31 8.99-3.28 3.28-6.04 7.06-8.34 11.1-.83 1.35-.55 3.1.38 4.34 2.54 4.04 5.15 8.05 8.2 11.74 5.53.33 10.74-1.55 15.81-3.48 3.16 2.65 4.91 6.42 6.75 10.02-19.1-.14-37.68 5-56.69 6.11 7.64-16.92 20.05-31.33 26.58-48.82zm-12.63 39.78c4.3-.24 8.56-1.01 12.77-1.92-1.78-3.33-3.47-6.86-6.65-9.11-2.06 3.67-4.57 7.09-6.12 11.03zm503.63-6.98c1.82-3.19 3.96-6.18 6.1-9.15 8.66 7.71 17.47 15.34 27.2 21.69 4.47 2.96 9.39 5.13 14.07 7.73-1.59 3.53-4 6.59-6.58 9.45-11.99-11.91-25.8-21.93-40.79-29.72zm-13.3 16.49c2.11-2.9 4.34-5.9 7.51-7.69.33.05.98.13 1.3.18 5.09 18.01 12.36 35.32 17.77 53.22-18.32-4.65-35.33-13.71-54.08-16.83 2.25-3.14 4.8-6.06 7.27-9.03 4.89 2.45 9.65 5.2 14.87 6.95 4.72-3.39 8.99-7.43 12.45-12.09.73-1.15-.32-2.48-.58-3.62-1.47-4.07-3.46-7.97-6.51-11.09zm2.47 29.4c3.9 1.41 7.65 3.46 11.87 3.74-1.18-4.14-2.42-8.31-4.76-11.96-2.67 2.47-5.01 5.26-7.11 8.22zm-441.68-28.15c2.86 2.21 5.41 4.93 6.79 8.32-3.54 3.06-7.58 5.45-11.22 8.38-9.33 7.12-17.92 15.26-25.27 24.42-4.63-2.43-7.54-6.92-10.95-10.7-2.72-3.31-5.6-6.47-8.53-9.59 2.73-.93 5.56-1.5 8.44-1.66 2.04 4.09 4.51 7.94 7.26 11.58 4.94-3.25 9.12-7.52 14-10.87-2.06-4.06-5.83-6.69-9.06-9.72-1.16-.82-1.24-2.28-1.58-3.52 2.63-.86 5.35-1.39 8.12-1.42 1.45 3.51 2.68 7.11 4.48 10.47 3.31.26 5.43-2.52 7.59-4.56 3.43-3.6 6.85-7.22 9.93-11.13z"/></g><g class="st0"><path class="st1" d="M451.3 84.79c2.77-.31 5.57-.2 8.22.75-.1 1.71-.17 3.42-.25 5.14-2.6.12-5.19.14-7.78.07-.1-1.99-.17-3.97-.19-5.96zm11.05.6c2.15.03 4.31.24 6.4.8-.04 1.81-.12 3.62-.23 5.42-2.09.02-4.18.09-6.24-.2-1.44-1.63-.13-4.11.07-6.02zm-24.24 2.72c3.17-1.53 6.65-3.08 10.23-2.09.33 1.79.71 3.57 1.11 5.34-2.92.82-5.87 1.49-8.82 2.18-1.01-1.73-1.9-3.53-2.52-5.43zm33.49-1.04c2.16.65 4.26 1.47 6.33 2.37-.42 1.47-.91 2.92-1.4 4.37-1.81-.2-3.61-.45-5.4-.7.07-2.02.24-4.03.47-6.04zm-45 5.73c2.8-1.55 5.64-3.24 8.84-3.81.95 1.74 1.85 3.52 2.57 5.38-2.76 1.45-5.57 2.8-8.28 4.34-1.4-1.57-4.91-3.5-3.13-5.91zm53.28-1.74c2.18.34 4.07 1.47 5.79 2.81-.8 1.37-1.59 2.74-2.38 4.1-1.86-.43-3.47-1.44-4.94-2.62.5-1.43 1.01-2.86 1.53-4.29zm-37.81 4.79c2.64-.92 5.36-1.62 8.18-1.65.19 2.2.38 4.41.49 6.62-1.8.37-3.6.65-5.41.89-1.22-1.88-2.28-3.85-3.26-5.86zm10.9-2.38c1.76-.02 3.52-.03 5.29-.03.07 2.1.09 4.21.21 6.31l.03.5c-1.18-.01-3.53-.04-4.71-.05-.28-2.24-.54-4.49-.82-6.73zm8.74.81c1.72 0 3.43.01 5.16.05-.23 2.13-.53 4.27-1.12 6.34-1.34-.03-2.67-.07-4-.11-.03-2.1-.04-4.19-.04-6.28zm-134.52 4.94c4.96-5.27 13.12-4.56 18.99-1.31 12.09 6.2 23.98 12.76 36.07 18.96 6.98 3.57 13.38 8.9 21.42 9.8.7 3.49 1.22 7.02 1.83 10.53-2.73-1.43-5.23-3.26-7.98-4.66-5.2-1.6-9.94 1.79-14.7 3.19-8.49-.12-16.84-2.33-24.99-4.55-6.67-1.79-12.53-5.54-17.81-9.88-2.12 11.25-2.04 22.79-4.42 34a60.87 60.87 0 00-.45 3.81c5.83 5.28 12.2 10.42 19.99 12.34 2.94.13 5.61-1.69 7.85-3.42 4.25-4.22 6.2-10.14 7.43-15.87.43-4.12 4.83-5.67 7.49-8.2 4.08-3.73 8.14-7.9 13.79-9.07 4.68-1.95 8.42 2.25 12.32 4.1 5.61 3.88 11.36 8 15.09 13.84 1.77 2.47 1.48 5.71 1.28 8.57-3.63 4.99-7.29 9.97-10.51 15.24-2.25-1.6-4.3-3.46-6.33-5.32-.62 2.37-1.21 4.76-1.47 7.21 1.61.44 3.23.82 4.87 1.18-.89 2.74-1.95 5.41-2.95 8.11-1.49-.56-2.96-1.18-4.44-1.74-3.42 3.6-7.78 6.3-10.31 10.7-2.9-1.95-4.86-4.87-7.08-7.5-2.92.94-5.76 2.08-8.56 3.31 5.12 5.15 9.97 10.75 16.24 14.54 6.82 4.24 15.45 3.45 22.35 7.52 7.07 4.05 13.21 9.47 19.51 14.58 4.6 3.68 10.79 1.22 15.99 3.04 8.6 2.59 16.49 7.03 24.8 10.39 6.27 2.42 11.47 7.04 18.02 8.83 4.25.95 8.63-1.03 12.86.31 4.06 1.26 8.51 1.83 12.08 4.3-3.04 1.12-6.24 1.36-9.45 1.27.07.49.19 1.45.26 1.94 3.96-.18 7.24 2.21 10.69 3.79 2.07.92 3.71 2.48 5.23 4.12-3.72 2.12-7.29-1.82-10.98-2.44.09.59.26 1.78.35 2.37 3.2 1.62 6.89 2.38 9.8 4.5.17.49.52 1.48.69 1.97-6.34-1.17-11.89-5.64-18.46-5.41-.58 1.93-1.05 3.91-1.17 5.93 2.56 1.46 6.66 1.27 7.82 4.44-8.42-.15-14.24-7.15-21.79-9.81-6.41-2.38-12.38-6.18-19.26-7.09-6.12-.88-12.17-2.15-18.22-3.35-7.8-1.72-14.09-6.93-21.16-10.32-5.78-2.58-12.1-3.49-18.19-5.02-5.24-1.13-9.98-3.72-14.91-5.74-4.84-1.99-9.37-5.09-14.67-5.69-5.13.01-10.04 1.81-14.9 3.3-16.98 5.1-33.56 12.12-48.46 21.77-3.38 10.17-.66 21.36 4.34 30.54 2.71 6.3 6.99 11.85 9.14 18.38-3.15 2.01-6.4 3.93-9.11 6.53-3.87 4.11-9.26 6.68-12.25 11.64-2.34 4.2-6.59 6.99-8.46 11.49-2.51 6.22-6.72 11.8-7.61 18.6-2.7 10.52-3.17 21.43-3.11 32.26.83 6.7 1.46 13.44 2.99 20.04-21.05-8.72-34.6-28.77-43.52-48.89-12.6 3.67-25.97 5.51-39 3.32-12.01-2.04-21.62-11.45-33.86-12.36 3.08 11.61 6.77 23.23 12.91 33.64 3.37 4.3 9.53 5.12 12.95 9.41 1.2 3.32.74 7.13-.66 10.34 1.05.65 2.1 1.3 3.15 1.98-.48 6.79-.86 13.7-2.92 20.24-6.58-.27-12.02-4.8-14.83-10.54-8.39-17.23-18.36-33.64-27.54-50.45-4.64-8.39-11.84-16.66-10.73-26.88 1.66-7.24 7.7-13.74 15.38-14.32 11.54-.89 22.42 3.94 33.59 5.94 5.78.22 12.42 1.33 17.22-2.74 6.52-5.25 7.83-14.15 8.61-21.98.31-5.96 1.69-11.79 2.47-17.69l-2.13.24c-1.79 7.88-2.39 15.94-3.52 23.92-1.21 5.5-3.08 11.78-8.43 14.61-3.83 2.28-8.45 1.71-12.69 1.48-12.64-2.04-25.05-7.75-38.06-5.56-6.59 1.42-11.02 6.81-14.2 12.38 1.29-8.56 7.61-15.41 14.19-20.54 3.17-.24 6.43-.31 9.53.52 8.71 2.13 17.14 5.18 25.71 7.77 3.46.91 7.8 1.74 10.69-.97 5.44-5.02 8.59-12.54 7.72-19.97-.83-9.82.96-20.28 7.18-28.19 5.86-8.28 15.24-12.87 24.31-16.73 1.28-1.96 1.45-4.44 2.52-6.52 4.22-8.62 11.95-14.93 16.08-23.6 3.16-5.95 3.65-12.84 6.46-18.9 3.76-7.45 9.61-13.65 16.12-18.77 2.12-1.82 5.26-2.76 6.3-5.57 8.03-17.69 13.27-36.45 19.66-54.75 3.03-9.24 5.12-19.42 11.92-26.76zm-4.43 37.48c-2.32 4.87-3.98 10.27-3.19 15.72.45.23 1.37.7 1.83.93-.11-5.84 1.7-11.4 3.55-16.86-.55.05-1.64.16-2.19.21zm75.87 19.1c-.04 1.77-.09 3.55-.13 5.33-4.23-.19-8.08 1.6-11.29 4.23 1.33-3.39 2.13-7.99-1.38-10.37-5.96-3.12-14.01 4.09-11.07 10.37 2.53 3.93-1.25 8.3.39 12.4.51 2.23 1.23 4.41 1.84 6.62-1.24.37-2.47.72-3.7 1.08l-.76 2.03c2.89-.09 5.78-.01 8.67.05-1.22-3.92-3.8-7.46-3.82-11.69-.31-2.97.69-5.79 1.58-8.56-1.81-1.85-3.58-4.67-1.91-7.16 1.73-2.44 5.69-5.34 8.28-2.45 1.13 2.35-.05 4.94-.09 7.39-.32 1.71 1.49 2.56 2.43 3.66 2.22-1.97 4.33-4.35 7.34-5.08 1.8-.22 3.64-.2 5.46-.26.28-2.23.63-4.46.99-6.68 1.21-.45 2.42-.91 3.64-1.37 2.93 2.26 5.51 4.92 8.43 7.19.65.06 1.97.19 2.62.25-2.62-3.62-5.92-6.79-9.69-9.19-2.8-1.02-5.47.96-7.83 2.21zm-97.66 16.15c-5.11 8.48-2.25 19.83 4.45 26.59.87 1.25 2.43 1.07 3.76 1.28-1.61-2.42-3.74-4.44-5.31-6.88-3.53-5.69-4.46-13.23-1.28-19.28 1.54-3.52 5-5.5 7.17-8.54-4.14-.09-6.84 3.65-8.79 6.83zm24.87 26.86c1.7.01 3.45-.12 4.82-1.25 4.44-3.12 9.61-4.85 14.81-6.22.01-.5.01-1.5.01-2-7.16 1.41-14.6 3.93-19.64 9.47zm-8.95 9.48c2.12 4.8 5.77 8.68 9.67 12.09 7.52 5.91 16.69 10.31 26.43 10.27 3.3-.12 7.19.53 9.69-2.18-5.86-1.42-11.93-.38-17.86-1.11-10.45-2.96-19.92-9.58-25.52-18.98-.6-.02-1.81-.06-2.41-.09zm-33.03 14.41c-1.89 0-3.75-.36-5.62-.43 1.31 1.3 2.65 3.16 4.69 3.15 2.86-.75 5.38-2.4 7.74-4.13.36 3.42-.5 7.38 1.18 10.45 1.95 2.56 4.41 4.86 7.94 3.98-1.91-2.06-5.11-2.96-6.08-5.78-.8-4.09.86-8.07 1.04-12.13-4.47-1.24-6.83 4.13-10.89 4.89zm-9.83 13.67c-1.87.05-3.73-.17-5.58-.26.36.57 1.08 1.71 1.44 2.27 5.02 1.25 10.22-1.68 12.13-6.4-3.28.17-5.05 3.36-7.99 4.39zm8.77.29c-.39 2.38-1.84 4.85-.68 7.24 1.39 4.51 6.51 8.14 11.26 6.28-2.78-1.88-6.54-2.45-8.49-5.41-1.34-3.04-.02-6.3.88-9.25-1 .38-1.99.76-2.97 1.14zm180.1 7.67c.66.94 1.24 2.07 2.48 2.32 7.79 2.68 15.16 6.4 22.96 9.03.02-.52.07-1.56.09-2.08-7.06-2.88-13.92-6.26-21.18-8.62-1.39-.53-2.89-.57-4.35-.65zm-221.33 23.36c-1.19.67-1.74 1.96-2.45 3.06 2.84-.25 5.13-2.06 7.64-3.22 5.34-2.59 11.19-3.89 16.93-5.28.02-.52.05-1.57.06-2.09-7.72 1.24-15.53 3.27-22.18 7.53zm14.64 28.6c-.01.55-.04 1.65-.05 2.2 15.32 2.24 30.24 10.55 46.03 6.95.13-.5.37-1.49.49-1.98-5.25.07-10.51.48-15.74-.05-10.35-1.9-20.29-5.71-30.73-7.12zm158.68-192.04c1.67-3.94 4.86-7.02 8.79-8.69 1.18 1.57 2.44 3.08 3.71 4.58a78.568 78.568 0 01-6.31 6.59c-2.1-.75-4.15-1.6-6.19-2.48z"/><path class="st1" d="M468.19 100.57c.5-1.84 1.08-3.66 1.64-5.49 2.95 1.01 5.66 2.59 8.62 3.6 4.3 1.96 6.93 6.23 10.93 8.67 1.19-1.82 2.36-3.66 3.64-5.43 4.5 4.08 6.67 10.01 8.14 15.75 2.79 12.49 3.16 25.42 6.65 37.77-9.83 1.08-20.3-.03-28.72-5.58-7.98-4.93-14.08-13.32-15.08-22.77-.93-4.76.46-9.47 1.41-14.1-.68-1.98-2.68-3.1-3.98-4.65-.46-1.78-.03-3.64.11-5.43 1.7.4 3.12 1.37 4.36 2.58 1.71-.76 3.54-1.16 5.39-1.49a92.403 92.403 0 00-3.11-3.43zm3.57 7.04c-5.38 10.5-4.57 24.35 3.14 33.5 2.97 3.31 6.4 7 11.09 7.46-1.43-3.05-4.89-4.1-7.06-6.48-7.6-6.91-10.21-18.33-7.29-28.04.86-3.02 2.6-5.74 3.11-8.87-1.1.68-2.5 1.12-2.99 2.43zm9.29 5.42c.41 2.77 2.39 4.84 3.85 7.11-1.91 1.98-4.67 3.85-4.56 6.93-.87 5.54 4.62 10.97 10.18 9.4.39-7.23-1.86-14.36-5.58-20.49-.86-1.47-2.45-2.2-3.89-2.95zm-49.28-12.96c2.67-1.37 5.4-2.87 8.5-2.89.94 2 1.91 3.99 2.77 6.03-1.73.88-3.45 1.76-5.17 2.64-2.26-1.67-4.37-3.56-6.1-5.78z"/><path class="st1" d="M484.63 99.9c1.25-1.29 1.94-3.89 4.2-3.39 1.11 1.12 2.09 2.37 3.12 3.58-1.05.82-2.08 1.64-3.1 2.47-1.41-.89-2.82-1.78-4.22-2.66zm-61.17 8.03c1.88-2.1 3.45-5.25 6.44-5.82 2.19 1.37 3.89 3.36 5.82 5.07-1.14 1.1-2.24 2.24-3.49 3.21-3.15 1.13-6.05-1.23-8.77-2.46zm23.73-4.24c1.73-.11 3.47-.19 5.22-.24-.33 2.33 1.83 6.67-1.54 7.13-2.11-1.68-3.24-4.29-3.68-6.89zm7.36-1.11c.99-.04 2.96-.14 3.95-.19 0 2.3-.02 4.6-.04 6.9-.95.02-1.89.03-2.83.04-.3-2.26-.71-4.5-1.08-6.75zm-14.73 5.08c1.48-.84 2.97-1.64 4.48-2.43 1.57 1.87 2.84 3.98 3.54 6.32-.75.32-2.26.94-3.01 1.26-1.73-1.67-3.43-3.35-5.01-5.15zm-31.72 8.54c1.11-3.55 1.63-8.6 5.88-9.7 1.81.51 3.52 1.31 5.27 2.02-1.24 3.03-2.55 6.03-3.94 8.99-2.41-.41-4.81-.88-7.21-1.31zm13.32-6.12c2.71.8 5.25 2.05 7.84 3.17-.6 1.79-1.22 3.57-1.87 5.34-3.17 0-6.37-.11-9.43-1.03.75-2.66 1.96-5.16 3.46-7.48zm12.42 2.76c.89-1.73 2.42-2.9 4.08-3.85 1.77 1.67 3.48 3.39 5.07 5.24-2.98 2.52-6.21-.31-9.15-1.39zm-2.57 2.28c2.89-.12 5.43 1.29 7.85 2.68-.51.71-1.52 2.11-2.03 2.81-2.32-.4-4.61-.89-6.92-1.31.34-1.4.71-2.8 1.1-4.18zm-23.73 4.16c2.36.13 4.72.26 7.09.36.06 3.21.05 6.43-.05 9.64-2.66.12-5.32.16-7.98.22-.26-3.44-.04-6.9.94-10.22zm9.84 1.21c3.24.01 6.42.6 9.61 1.14-.02 2.17 1.33 5.19-1.08 6.51-2.86.46-5.76.46-8.63.62-.03-2.76-.02-5.51.1-8.27zm12.15 1.54c2.19.21 4.38.41 6.58.56.37.6 1.1 1.79 1.47 2.38-.34.62-1.03 1.85-1.37 2.47-2.23.1-4.46.21-6.69.29-.01-1.9 0-3.8.01-5.7zm59.16 12.81c-6.78.86-9.27-10.53-2.85-12.47-.14 2.46-.71 4.9-.62 7.37.46 1.44 2.25 1.83 3.32 2.78.04.58.11 1.74.15 2.32zM418 131.39c3.06-.54 6.15-.83 9.25-.96.97 2.53 1.95 5.06 2.68 7.68-3.13.82-6.26 1.59-9.37 2.47-1.73-2.76-2.41-5.97-2.56-9.19zm12.07-.77c2.39-.44 4.79-.86 7.2-1.2 1.27 1.85 2.28 3.85 2.87 6.02-2.56.85-5.2 1.39-7.9 1.46-.8-2.06-1.53-4.16-2.17-6.28zm-22.71 1.16c2.46-.12 4.95-.27 7.42-.04 1.67 2.86 1.94 6.36 3 9.5-1.58.47-3.11 1.11-4.74 1.37-1.91-1.3-3.78-2.77-5.13-4.66-.42-2.03-.43-4.11-.55-6.17zm26.53 7.84c2.41-.59 5.01-1.95 7.51-1.2 16.46 15.94 36.11 29 49.06 48.26 7.57 11.28 12.17 24.69 12.21 38.34.27 7.86-.17 15.88-3.15 23.25-2.5.4-4.96.97-7.46 1.31.22-3.54.51-7.65 3.96-9.61-2.86-3.1-.88-7.43-1.37-11.16 1.13-1.03 2.29-2.02 3.43-3.04-1.12-.67-2.25-1.33-3.36-1.99-.04-3.52-.69-6.98-1.58-10.37 1.25-.8 2.49-1.61 3.71-2.45-1.51-.46-3.02-.89-4.52-1.35-1.51-4.19-4.28-8.39-2.58-13-1.06-.02-2.12-.04-3.17-.04a73.935 73.935 0 00-4.11-7.33c.7-.73 2.08-2.18 2.78-2.91-1.74-.07-3.46-.08-5.19-.08-2.18-2.98-5.88-5.68-4.3-9.84-1.2.15-2.39.31-3.58.47-1.88-2-3.84-3.92-5.83-5.79.56-1.32 1.1-2.63 1.6-3.97-1.6.43-3.18.94-4.74 1.46-2.22-2.39-5.57-4.45-5.13-8.18-3.23 1.03-5.53-1.34-7.75-3.28.11-1.23.23-2.46.35-3.69-3.61 1.38-6.09-1.55-8.63-3.61.69-1.39 1.41-2.77 2.09-4.17-1.91.07-3.81.12-5.71.17-1.57-2.03-3.11-4.08-4.54-6.2zm-12.26 3.21c3.26-.91 6.51-1.88 9.8-2.69 1.64 2.54 3.49 4.93 5.41 7.27-3.01 1.85-6.3 4.87-10.07 4.05-2.02-2.68-3.68-5.62-5.14-8.63zm-5.91 1.65c1.21-.12 2.43-.24 3.65-.34 1.93 3.11 4.05 6.12 5.64 9.43l-2.52.24c-1.94-3.33-4.47-6.25-6.77-9.33z"/><path class="st1" d="M436.66 150.73c3.21-1.4 5.53 2.13 7.71 3.9 1.04 1.96-1.66 2.9-2.82 3.92-1.96 1.45-5.12 3.66-7.13 1.08-1.34-1.83-4.53-3.34-3.91-5.89 1.94-1.2 4.04-2.13 6.15-3.01zm-13.45 5.93c1.25-.51 2.53-.97 3.83-1.38 2.97 1.92 5.17 4.83 7.4 7.54-2.31 1.5-4.43 4.14-7.44 3.81-3.55-1.94-3.91-6.36-3.79-9.97zm15.91 6.37c2.32-1.66 4.54-3.54 7.16-4.7 2.91-.55 4.74 2.63 7.03 3.93-2.26 2.5-4.71 5.59-8.12 6.33-2.48-1.27-4.28-3.5-6.07-5.56zm-9.04 5.85c2.3-1.33 4.46-4.4 7.43-3.46 2.12 1.46 3.97 3.28 5.96 4.9-1.79 2.25-4.06 4.02-6.54 5.45-2.32-2.25-4.66-4.5-6.85-6.89zm17.56 1.55c2.88-1.69 5.1-5.83 8.86-5.09 2.07 1.49 3.76 3.45 5.44 5.36-2.49 2.19-4.94 4.47-7.89 6.02-2.36-1.86-4.59-3.9-6.41-6.29zm-8.32 6.81c2.1-1.82 4.24-3.61 6.58-5.12 2.01 2 4.06 3.97 6.09 5.97-1.51 2.16-3.57 3.8-5.73 5.25-2.34-2.02-4.83-3.85-6.94-6.1zm17.39 1.48c1.96-2.69 4.77-4.53 7.34-6.58 1.87 1.76 3.88 3.39 5.55 5.35.6 1.11.11 2.49-.96 3.1-1.82 1.57-3.85 2.86-5.79 4.24-2.11-1.98-4.13-4.04-6.14-6.11zm-8.47 6.47c1.99-1.71 3.97-3.43 5.95-5.15 2.42 1.78 4.64 3.9 5.99 6.63-1.49 1.01-2.87 2.22-4.51 2.97-3.32.89-5.21-2.7-7.43-4.45zm16.65 1.17c2.54-1.94 5.1-3.88 7.9-5.45 1.6 2.46 5.23 4.43 4.85 7.65-2.26 2.01-5.09 3.23-7.67 4.76-1.87-2.18-4.21-4.12-5.08-6.96zm-8.61 5.67c1.97-1.28 3.93-2.56 5.91-3.83 2.07 1.87 3.93 3.94 5.81 6.01-2.25 1.92-5.09 4.55-8.29 3.21-1.52-1.53-2.45-3.51-3.43-5.39zm15.84 3.2c2.24-2.21 5.31-3.38 7.96-5.05 1.65 2.56 3.61 5.11 3.92 8.26-2.7 1.36-5.44 2.65-8.1 4.11-1.3-2.4-3.51-4.5-3.78-7.32zm-9.11 5.15c2.07-1.38 4.27-2.58 6.65-3.34 1.57 1.99 2.97 4.15 3.45 6.69-2.33 1.3-4.83 2.28-7.54 2.17-.89-1.83-1.81-3.64-2.56-5.52zm14.21 4.43c2.78-1.78 5.69-3.68 9.11-3.78 1.4 3.32 3.05 6.59 3.58 10.2-3.26.65-6.51 1.49-9.86 1.48-.86-2.67-1.85-5.29-2.83-7.9zm-9.15 3.61c2.29-.99 4.61-1.95 6.95-2.82 1.05 2.61 2.1 5.21 2.93 7.9-2.54.78-5.16 1.26-7.81 1.43-.91-2.1-1.64-4.27-2.07-6.51zm13.1 6.95c3.19-.41 6.96-2.16 9.95-.59.78 3.14 1.25 6.34 1.53 9.55-3.23.63-6.48 1.15-9.77 1.04-.7-3.31-1.55-6.6-1.71-10zm-9.87 2.22c2.37-.6 4.75-1.17 7.18-1.5.82 3.07 1.31 6.21 1.93 9.32-2.85.07-5.7.07-8.54-.04-.22-2.59-.39-5.19-.57-7.78zm1.39 11.07c2.11-1.78 5.12-.65 7.64-.92-.09 2.7-.52 5.38-.98 8.04-2.7-.16-5.36-.63-7.93-1.44.42-1.9.79-3.8 1.27-5.68zm9.87-.47c3.28-.58 6.63-.54 9.96-.54 0 3.42.19 6.9-.88 10.2-3.15-.27-6.29-.68-9.39-1.25.14-2.81.26-5.61.31-8.41zm-11.41 9.11c2.51.16 5.01.46 7.47 1.02l-.33 3.65c-2.43-.38-4.67-1.39-6.92-2.33-.05-.59-.17-1.75-.22-2.34zm9.67 2.03c3.41-.13 6.79.42 10.09 1.24-.33 2.57-1.03 5.08-1.72 7.58-3.34-.56-6.25-2.32-8.96-4.26.19-1.52.39-3.04.59-4.56zm-30.79 23.11c4.18-2.3 8.9-.09 13.15.88-2.6 2.66-5.84 4.54-9.16 6.17-1.58-2.19-3.27-4.4-3.99-7.05zm-11.04 5.82c2.88-1.52 5.91-2.7 8.98-3.78 1.28 2.07 2.57 4.13 3.8 6.25-3.37 1.69-6.71 3.44-10.1 5.08-1.28-2.36-2.34-4.86-2.68-7.55zm29.03-3.81c3.64-.53 7.01 1.09 10.03 2.94-1.38 1.21-2.76 2.4-4.16 3.58-2.15-2-4.11-4.19-5.87-6.52zm-11.78 6.84c2.86-2.23 6.14-3.85 9.02-6.05 2.23 2.11 4.45 4.28 6.24 6.8-2.26 3.87-7.01 5.54-10.7 7.83-1.75-2.64-4.81-5.15-4.56-8.58zm19.06 1.7c1.6-1.7 3.23-3.38 4.79-5.12 2.34.87 4.62 1.89 6.91 2.9-.39 3.68-3.63 5.78-6.18 8.01-2.03-1.75-3.81-3.75-5.52-5.79zm-51.19.95c3.95-1.68 7.95-3.24 12.03-4.6.97 2.33 1.94 4.65 2.85 7.01-3.93 1.53-7.85 4.51-12.2 4.06-1.05-2.09-1.87-4.28-2.68-6.47zm85.39-1.82c3.59.56 7.16 1.88 9.79 4.47-3.48.48-6.63-1.18-9.82-2.24.01-.56.03-1.67.03-2.23zm-66.41 5.63c3.3-1.78 6.66-3.48 10.25-4.6 1.79 2.63 3.67 5.27 4.64 8.34-3.54 2.07-7.31 3.72-11.13 5.21-1.46-2.9-2.84-5.84-3.76-8.95zm-33.11.67c3.96-1.11 8-4.11 12.24-2.77 1.18 1.87 1.94 3.97 2.63 6.07-3.95 1.56-8.07 2.61-12.12 3.87-1.17-2.29-2.18-4.66-2.75-7.17zm52.25 3.74c3.7-2.24 7.03-5.07 10.84-7.11 2.75.46 3.76 3.6 5.25 5.62-3.91 3.03-7.98 5.85-12.46 7.98-1.3-2.12-2.57-4.25-3.63-6.49zm-33.92 1.42c3.94-1.84 7.95-3.7 12.23-4.63 1.04 2.98 3.79 5.91 2.86 9.23-3.52 1.71-7.25 2.91-10.97 4.09-1.35-2.91-2.68-5.83-4.12-8.69zm-33-.08c3.46-2.09 7.38-4.24 11.56-3.8 2.11 1.49 2.52 4.19 3.25 6.49-4 1.33-8.02 2.56-12.12 3.51-.87-2.08-1.79-4.14-2.69-6.2zm-14.32 3.17c3.99-1.18 7.9-2.76 12.08-3.2.84 2.29 1.7 4.57 2.55 6.86-4.04 1.38-8.13 2.64-12.29 3.57-1.14-2.28-2.01-4.69-2.34-7.23zm33.16 1.11c3.91-1.49 7.91-2.74 11.96-3.8 1.33 3.03 2.8 6 3.91 9.12-4.06 1.36-8.06 2.96-12.26 3.83-1.34-3-2.8-5.96-3.61-9.15zm34.15 1.2c3.94-1.82 7.68-4.41 12.08-4.99 1.14 1.95 2.24 3.92 3.26 5.94-3.88 2.63-8.14 5.1-12.97 5.01-.81-1.99-1.63-3.96-2.37-5.96zm-82 3.11c3.85-2.02 7.91-4.05 12.4-3.67.79 2.1 1.54 4.22 2.13 6.39-3.8 1.66-7.72 3.05-11.74 4.07-.95-2.26-1.92-4.51-2.79-6.79zm33.01-.19c4.02-1.13 8.09-2.14 12.02-3.56 1.47 3.04 2.87 6.12 4.36 9.16-4.1 1.62-8.37 2.87-12.73 3.49-1.33-2.99-2.57-6.01-3.65-9.09zm34.72 2.58c3.8-1.74 7.72-3.27 11.76-4.38 1.02 2.06 1.95 4.15 2.9 6.24-3.49 2.6-7.72 4.79-12.19 4.33-1.62-1.58-1.89-4.08-2.47-6.19zm-82.91 4.08c4.01-2.28 8.19-5.89 13.1-5.09.98 2.08 1.69 4.28 2.39 6.47-3.95 1.54-7.84 3.24-11.71 4.98-1.28-2.12-2.54-4.23-3.78-6.36zm34.07-2.17c3.64-1.73 7.61-2.75 11.6-3.33 1.43 2.91 2.67 5.9 3.57 9.02-4.08 1.27-8.17 2.53-12.29 3.66-1.02-3.09-2.8-6.04-2.88-9.35zm33.97 2.92c4.04-1.5 8.19-2.68 12.26-4.08.99 2.24 1.91 4.53 2.47 6.92-3.82 2.02-7.93 3.67-12.3 3.76-.88-2.18-1.72-4.36-2.43-6.6zm-48.96 1.96c3.89-1.61 7.92-2.82 11.94-4.05 1.37 2.93 2.58 5.93 3.6 9-3.83 1.47-7.66 3-11.7 3.77-1.35-2.87-2.62-5.78-3.84-8.72zm-32.77 4.21c3.26-2.92 7.37-4.66 11.41-6.21 1.31 2.18 2.57 4.4 3.76 6.65-3.92 1.93-7.68 4.18-11.65 6.03-1.09-2.12-4.25-3.85-3.52-6.47zm67.63-2.07c3.84-1.42 7.77-2.63 11.81-3.28.84 2.25 1.62 4.53 2.13 6.89-3.82 1.65-7.86 2.67-11.87 3.73-1.04-2.34-1.91-4.77-2.07-7.34zm-48.13 3.2c3.63-1.63 7.28-3.26 11.1-4.42 1.37 3 2.73 6 3.91 9.09-3.57 1.47-7.17 2.86-10.76 4.27-1.61-2.88-3.73-5.6-4.25-8.94zm32.29 1.27c4.19-1.32 8.43-2.51 12.73-3.42.87 2.24 1.73 4.49 2.63 6.73-3.97 1.94-8.27 3.08-12.65 3.53-.86-2.3-1.82-4.56-2.71-6.84zm-66.82 8.08c3.36-3.65 7.47-6.49 11.78-8.92 1.69 1.98 3.3 4.03 4.86 6.12-3.51 2.45-6.83 5.15-10.37 7.54-2.98.4-4.3-3.15-6.27-4.74zm20.55-2.08c3.6-2.3 7.28-4.58 11.34-5.98 1.25 2.96 4 5.67 4.11 8.9-3.1 1.85-6.36 3.43-9.53 5.15-2.11-2.58-4.14-5.24-5.92-8.07zm32.38-1.14c3.74-1.73 7.65-3.04 11.55-4.35.93 2.32 1.87 4.65 2.82 6.97-3.54 2.2-7.51 3.68-11.74 3.5-.82-2.07-1.7-4.1-2.63-6.12zm-12.23 4.83c3.12-1.8 6.57-2.89 10.01-3.9.99 2.15 1.95 4.32 2.79 6.55-2.88 2.05-6.23 3.32-9.76 3.63-1.18-2.01-2.25-4.09-3.04-6.28zm-33.05 5.38c3.2-2.86 6.76-5.26 10.25-7.73 2.45 2.33 4.78 4.94 5.89 8.2-3.06 2.15-6.07 4.38-9.25 6.35-2.5-2.06-4.82-4.33-6.89-6.82zm-10.57-4.51c3.17-1.17 4.71 2.55 6.36 4.5-2.65 2.94-5.49 5.71-8.05 8.73-1.86-1.28-3.83-2.46-5.4-4.09-.7-1.1.28-2.36.88-3.26 1.7-2.3 3.73-4.43 6.21-5.88zm31.65 5.04c3.15-1.82 6.32-4.11 10.12-4.13 1.06 2.03 2.18 4.07 2.73 6.32-4.19 2.46-8.98 3.68-13.12 6.25-13.08 7.89-22.03 21.67-25.07 36.53-2.82 13.84-1.19 28.81 5.69 41.27 6.63 12.43 17.54 21.91 29.1 29.64 12.23 8.61 25.44 16.33 35.19 27.91 8.06 7.66 13.02 18.13 15.14 28.95 2.17 11.87 1.08 25.91-8.63 34.33-2.02-.24-4.05-.4-6.07-.54 1.29-2.89 2.8-5.68 4.26-8.48 1.65-.44 3.31-.89 4.96-1.38-1.34-.75-2.7-1.44-4.08-2.08.55-2.84 1.12-5.67 1.34-8.55 1.59-.11 3.19-.2 4.79-.3.08-.71.26-2.12.35-2.83-1.74-.04-3.47-.07-5.2-.08-.07-3.41-.19-6.84-1-10.16.87-1.09 1.75-2.18 2.62-3.27-1.46-.55-3.72-.07-4.21-1.97-1.61-4.21-4.95-8.09-4.28-12.83-1.42-.48-3.16-.5-4.06-1.87-2.69-3.45-6.49-6.44-7.25-10.99-4.54.06-6.67-4.34-10.14-6.47-2.01-1.21-3.54-2.95-3.98-5.3-4.81.9-7.73-4.1-11.86-5.7 0-1.22.01-2.44.03-3.65-1.37.18-2.72.5-4.1.49-2.79-1.63-5.2-3.8-7.74-5.77.05-1.25.11-2.5.18-3.74-1.26.24-2.51.54-3.78.67-2.87-2.02-5.33-4.58-8.04-6.8.75-1.22 1.52-2.42 2.28-3.63-1.7-.01-3.4.03-5.09.04-2.2-3.27-6.3-6.37-4.61-10.79-3.84-.58-5.12-4.61-6.19-7.82-.79-2.06 1.09-3.64 2-5.27-1.37-.11-2.72-.2-4.07-.3-.71-3.04-1.19-6.12-1.74-9.19 1.34-.92 2.64-1.92 3.83-3.04-1.4-.2-2.79-.37-4.18-.52.07-3.02.05-6.04.04-9.05 1.18-.77 2.37-1.53 3.54-2.32-1.23-.53-2.45-1.05-3.67-1.56.14-3.03.28-6.06.41-9.09 1.13-.57 2.28-1.12 3.41-1.68-.8-.97-1.61-1.91-2.43-2.85.72-2.44 1.45-4.87 2.14-7.31 1.52-.38 3.03-.77 4.55-1.16-.66-1.13-1.34-2.24-2-3.36 1.2-2.17 2.43-4.33 3.68-6.47 1.33.04 2.65.09 3.98.14-.3-1.29-.61-2.56-.9-3.83 1.83-1.82 3.53-3.8 5.57-5.39 1.8-.72 3.57.82 5.27 1.31-.24-1.75-.52-3.49-.74-5.23 2.6-1.82 5.22-3.6 7.88-5.32 1.5 1.23 3.06 2.4 4.77 3.35-.5-1.73-1.08-3.42-1.62-5.13zm-28.59 6.11c1.53-1.47 2.81-3.3 4.68-4.35 3.45.07 5.21 3.95 7.72 5.85-2.41 2.75-4.99 5.36-7.83 7.66-2.32-1.59-4.77-3.07-6.68-5.15-.49-1.72 1.18-2.84 2.11-4.01zm-20.22 11.53c1.63-4.53 4.01-8.86 7.66-12.08 2.17 1.32 4.15 2.91 5.92 4.74a97.286 97.286 0 00-6.54 10.26c-2.54-.45-4.83-1.63-7.04-2.92z"/><path class="st1" d="M327.36 373c2.45-19.02 15.16-37.14 33.76-43.25 1.75-.75 3.33.71 4.84 1.38 5.68 3.4 11.32 7.05 17.79 8.77 14.84 4.91 31.15 4.11 45.44 10.82 5.58 2.42 9.86 6.89 13.71 11.46 7.04 8.72 12.91 18.31 19.82 27.13 3.02 3.7 6.42 7.7 11.24 8.95 6.68.62 13.29-1.01 19.92-1.62 11.33-1.21 22.7-2.67 34.13-2.03 8.05.83 16.05 2.61 23.52 5.79 23.4 10.38 39.29 32.59 63.41 41.71 6.2 2.59 12.94 3.24 19.49 4.48-7.43 4.81-16.58 6.98-25.33 5.49-12.05-3.02-20.77-12.96-32.48-16.76-.02.51-.07 1.53-.09 2.05 12.25 5.09 21.96 15.86 35.62 17.49-7.29 7.01-18.85 8.45-27.77 3.84-10.66-5.6-17.21-16.2-26.44-23.59-2.44-1.84-4.94-4.26-8.25-3.84 2.04 2.73 5.26 4.08 7.78 6.28 7.91 6.7 13.99 15.45 22.7 21.24 3.18 2.21 7.13 2.91 10.29 5.16-5.61 1.77-11.6 3.29-17.5 2.21-5.91-1.1-10.93-4.96-14.63-9.55-6.12-7.98-11.75-16.97-20.72-22.05-.68-.01-2.05-.02-2.73-.03 3.68 3.54 8.12 6.24 11.39 10.21 4.23 5.03 8.47 10.11 11.75 15.83-9.25.11-19.81-1.01-26.46-8.18-4.84-7.12-5.8-16.52-12.2-22.66-1.01-1.22-2.63-1.4-4.04-1.84 2.05 3.74 5.65 6.42 7.32 10.42 2.32 5.41 4.49 10.89 6.85 16.29-7.14-1.73-14.47-5.49-17.88-12.32-2.38-5.53-3.08-11.98-7.29-16.57-.8-1.3-2.37-1.31-3.67-1.65 3.21 5.05 7.11 10.11 7.29 16.38-4.81.21-10.01-1.52-12.87-5.58-4.5-6.41-6.47-14.11-9.9-21.07-1.9-3.82-4.78-7.49-8.92-8.98-3.62-.83-7.39-.38-10.98.33.4 5.27 1.1 10.65-.12 15.87-1.76 6.91-4.47 13.52-7.34 20.03-1.62 3.87-2.75 9.23.71 12.45 5.38 4.3 12.56 4.68 18.82 7.02 5.13 1.76 9.57 5 13.68 8.47 1.68 1.55 3.66 3.03 4.35 5.32 4.42 12.66 8.68 25.46 14.93 37.38 2.85 4.74 6.66 10.41 12.74 10.79 5.97.63 7.06-8.34 12.92-7.99 4.09-.07 7.79 2.14 10.95 4.52 4.68 3.74 9.16 7.94 12.31 13.1-6.76 1.82-12.36 6.4-19.15 8.06-8.75 1.12-17.71-.28-25.89-3.5-5.63-2.17-10.05-6.67-13.21-11.7-4.34-6.7-8.31-13.63-12.5-20.42-3.73-6.3-7.66-12.93-14.05-16.88-8.39-5.34-18.56-6.45-28.2-7.63-11.26-1.43-22.8-1.91-33.65-5.55-6.15-2.19-12.02-5.68-16.25-10.71-6.57-9.91-8.59-22.07-8.57-33.77 1.17-12.18 1.75-25.12-3.31-36.58-1.51-3.18-3.23-6.41-6.07-8.59-.27 1.98.39 3.79 1.55 5.39 7.39 11.62 6.98 26.12 5.55 39.3-5.06-4.89-11.26-8.48-18.11-10.17-9.55-2.77-19.54-3.46-29.43-3.9-8.99-11.95-12.89-27.69-10.57-42.45zm-15.44-27.16c.64-4.16 3.59-7.34 5.99-10.6 2.78 1.64 5.36 3.57 7.88 5.59-1.75 3.07-3.54 6.12-5.55 9.03-2.8-1.3-5.59-2.61-8.32-4.02zm-10.93-2.53c2.35.99 4.68 2.02 6.98 3.14-1.24 4.19-2.78 8.28-4.16 12.43-2.6-.45-5.13-1.23-7.5-2.38 1-4.58 2.36-9.09 4.68-13.19zm9.05 4.72c3.12.93 6 2.47 8.87 3.99-.81 3.3-1.85 6.55-2.68 9.85-3.46-.19-6.82-1.1-10-2.4 1.15-3.85 2.38-7.68 3.81-11.44zm-15.49 25.06c-.24-4.63-.04-9.43 1.87-13.72 2.33.68 4.69 1.35 6.99 2.17-.7 4.02-.87 8.1-1.19 12.17-2.52-.24-5.38.59-7.67-.62zm11.09-10.9c3.4.65 6.71 1.64 10.04 2.56-.5 3.6-1.07 7.19-1.32 10.83-3.36-.15-6.67-.73-9.99-1.2.54-4.06 1.13-8.1 1.27-12.19zm-11.17 14.11c2.38.05 4.77.13 7.15.26.07 4.38.49 8.75.64 13.13-2.55.49-5.14.66-7.73.49-.4-4.62-.36-9.26-.06-13.88zm10.76.82c3.14.21 6.29.42 9.38 1.08.09 3.68.1 7.38-.05 11.07-3.06.15-6.12.18-9.18.23-.17-4.12-.23-8.25-.15-12.38zm-111.89 4.13c6.24-.51 11.46 3.47 16.4 6.69-.14 2.13-.7 4.18-1.56 6.14-1.55-2.45-2.75-5.28-5.22-6.97-3.11-2.12-6.61-3.59-9.62-5.86zm14.04 14.26c6.7-1.56 13.56-5.26 20.54-3.15.45 2.58.67 5.2.87 7.82-4.7.06-9.39.08-14.08-.1-.12-.98-.38-2.95-.51-3.94-.99 1.34-1.93 2.74-2.88 4.12-.96-.01-2.89-.05-3.85-.07-.04-1.56-.07-3.12-.09-4.68zm97.98-3.76c3.22.37 7.18-1.28 9.91.84.69 3.21 1.25 6.46 1.68 9.72-3.05 1.01-6.13 1.99-9.28 2.65-1.05-4.35-2.29-8.71-2.31-13.21zm-10.24.82c2.46-.09 4.92-.13 7.38-.17.83 4.48 1.99 8.95 2.13 13.53-2.42.58-4.88.92-7.37.97-1.23-4.68-2.28-9.46-2.14-14.33zm-86.4 9.93c6.1-.79 11.97 1.32 18.06.89-.57 4.22-.07 8.51-.92 12.7-.64 4.17.31 8.54-1.15 12.6-6.13-1.69-12.39-2.8-18.59-4.16 1.86-7.2 2.65-14.61 2.6-22.03zm19.95 3.2l1.73-.12c.06 1.97.11 3.94.15 5.91-.51.03-1.52.08-2.02.1.05-1.97.09-3.93.14-5.89zm79.73 1.87c3.13-.94 6.58-2.95 9.83-2.1 1.29 3.36 2.64 6.71 4.49 9.81-2.97 1.54-5.99 2.95-8.96 4.48-2.44-3.75-4.03-7.95-5.36-12.19zm-9.09 1.97a43.51 43.51 0 016.6-1.5c1.58 4.31 3.63 8.44 5.11 12.79-2.41.93-4.84 1.8-7.28 2.66-1.61-4.61-4.84-8.84-4.43-13.95zm15.63 12.2c2.99-1.47 5.99-3.05 9.29-3.74 2 3.42 4.53 6.49 6.79 9.75-2.69 1.77-5.41 3.47-8.22 5.03-3.31-3.13-5.86-6.97-7.86-11.04zm-8.93 3.59c2.09-1 4.27-1.85 6.55-2.33 2.61 3.71 5.19 7.45 7.9 11.09-1.96 1.39-3.67 3.77-6.3 3.71-4.04-2.98-6.66-7.74-8.15-12.47zm19.16 10.5c.53-3.43 5.08-4.27 7.65-6.03 2.89 2.85 6.02 5.43 8.95 8.22-2.32 2.39-4.76 4.68-7.19 6.96-3.42-2.72-6.73-5.7-9.41-9.15zm-9.15 4.84c1.83-1.9 4.03-3.37 6.39-4.51 3.27 3.52 6.62 6.96 10.21 10.17-1.84 1.68-3.39 4.93-6.32 4.41-3.9-2.79-6.99-6.6-10.28-10.07zm24.98 1.27c1.11-1.46 3.36-2.34 4.82-.81 2.35 1.99 5.19 3.51 7.13 5.94-.6 3.33-3.81 5.3-5.85 7.76-3.29-2.35-6.7-4.6-9.57-7.44-.75-2.53 2.1-3.83 3.47-5.45zm-12.51 11.68c2.03-1.7 3.72-4.87 6.43-5.09 3.58 2.47 7.08 5.14 10.04 8.35-1.43 1.87-2.89 3.72-4.31 5.6-4.44-2.42-7.95-6.12-12.16-8.86zm20.69 2.44c2.12-2.45 4.35-4.79 6.72-6.99 3.56 1.89 7.19 3.85 9.98 6.82-1.85 2.64-4.1 4.98-6.76 6.82-3.45-2-6.81-4.18-9.94-6.65zm15.83 3.93c1.17-.96 2.04-2.82 3.8-2.6 4.06 2.63 7.92 5.72 10.92 9.56-2.51 2.05-5.12 3.94-7.74 5.83-3.08-2.92-6.83-5.04-9.81-8.04-.48-2.12 1.69-3.32 2.83-4.75zm-21.55 4.49c-.99-2.97 2.56-4.54 4.36-6.18 3.25 1.86 6.4 3.91 9.44 6.11-1.18 2.29-3.17 3.95-5.16 5.52-3.1-1.4-6.35-2.84-8.64-5.45zm10.69 7.31a62.97 62.97 0 015.74-5.58c3.4 2.39 6.7 4.94 9.69 7.85-2.41 1.63-4.89 4.35-8.1 3.55-2.72-1.55-4.73-4.09-7.33-5.82zm19.9 2.96c2.7-2.08 5.33-6.19 9.21-5.2 2.84 2.99 5.29 6.33 7.73 9.65-2.83 1.71-5.87 3.01-8.99 4.07a56.78 56.78 0 00-7.95-8.52zm-9.09 5.23c2.26-1.3 4.29-3.23 6.91-3.77 2.86 2.24 6.01 4.67 7.31 8.2-2.64 1.25-5.5 3.05-8.53 2.04-2.26-1.81-3.97-4.17-5.69-6.47zm19.23 4.98c2.87-1.31 5.79-2.55 8.8-3.52 1.71 3.87 4.01 7.55 4.87 11.74-2.75.79-5.55 1.43-8.42 1.52-1.82-3.21-3.72-6.38-5.25-9.74zm-10.24 4.62c2.53-1.4 5.12-2.78 7.96-3.47 1.82 3.12 4.02 6.09 5.08 9.59-2.77.94-5.7 1.07-8.6 1.17-1.47-2.44-3.04-4.82-4.44-7.29zm17.17 7.72c2.67-.65 5.37-1.19 8.04-1.86.58 3.73 1.36 7.46 1.18 11.26-2.53.11-5.06.15-7.6.13-.58-3.17-1.35-6.31-1.62-9.53zM380 499.59c2.75-.63 5.51-1.18 8.31-1.53.95 3.02 1.47 6.16 1.48 9.34-2.65.15-5.29.2-7.94.16-.52-2.69-1.35-5.29-1.85-7.97zm12.74 9.78c2.62-.01 5.25.01 7.87.21-.51 3.08-1.01 6.19-2.12 9.13-2.39-.18-4.78-.33-7.16-.58.11-2.98.87-5.85 1.41-8.76zm-11.07 1.12c2.74-.12 5.48-.17 8.22-.16-.27 2.45-.68 4.9-1.36 7.28-2.41.01-4.82-.03-7.22-.16.06-2.32.23-4.64.36-6.96zm-2.18 10.11c2.5-.5 5.07-.24 7.6-.19-1.16 2.5-2.4 4.96-3.67 7.41-2.15-.15-4.29-.37-6.43-.62.39-2.31.53-5.02 2.5-6.6zm6.57 7.65c1.1-2.66 2.41-5.24 3.76-7.78 2.63.14 5.26.3 7.9.47-1.09 3.02-2.52 5.92-4.4 8.52-2.42-.46-4.84-.85-7.26-1.21zm-11.43 1.39c2.1-.52 4.26.05 6.36.28-1.18 2.44-2.69 4.7-4.29 6.89-1.87-.15-3.74-.35-5.59-.55.63-2.4 1.05-5.38 3.52-6.62zm5 7.78c1.36-2.5 2.48-5.66 5.34-6.79 2.07-.05 4.07.6 6.07 1.04-1.95 2.31-3.93 4.6-5.93 6.87-1.84-.34-3.67-.74-5.48-1.12zm13.87-5.07c1.93.04 3.86.09 5.79.21-1.45 2.46-3.08 4.94-5.48 6.59-1.85.52-3.81 0-5.68-.01 1.77-2.28 3.62-4.49 5.37-6.79zm-27.46 12.31c-.28-4.14 4.02-8.1 7.91-5.26-1.44 2.13-2.93 4.22-4.54 6.23-.85-.24-2.53-.73-3.37-.97zm6.17 1.28c1.53-2.31 3.19-4.53 4.88-6.72 1.93.47 3.83 1.05 5.74 1.63-2.06 2.36-4.19 4.66-6.54 6.74-1.36-.56-2.72-1.11-4.08-1.65zm7.86 1.05c1.56-2 3.28-3.96 5.39-5.39 1.57-.14 3.14 0 4.71.08-1.59 3-3.94 5.46-6.06 8.08-1.39-.85-4.24-.55-4.04-2.77zm-16.91.37c1.36-.02 2.73-.02 4.09 0-.86 2.29-1.98 4.46-3.24 6.56-1.28-.2-2.56-.41-3.83-.61.93-2.02 1.91-4.01 2.98-5.95zm3.06 7.67c1.3-2.18 2.54-4.39 3.78-6.59 1.3.11 2.6.24 3.9.38-.63 3.08-2.84 5.41-4.69 7.82-.75-.4-2.25-1.21-2.99-1.61zm11.11-4.7c1.61.14 3.12.77 4.64 1.32a478.9 478.9 0 00-6.08 6.65c-1.28-.17-2.51-.54-3.69-1.09 1.56-2.39 2.97-4.97 5.13-6.88zm-18.62 5.12c1.01.11 2.02.21 3.04.31-.26 2.95-1.85 5.52-3.18 8.1-1.16-.3-2.96-.17-3.02-1.82.84-2.3 2.06-4.42 3.16-6.59zm2.23 10.18c.81-2.96 2.1-5.77 3.74-8.35.78.38 2.34 1.14 3.11 1.52-1.38 2.29-2.71 4.62-4.02 6.96-.7-.03-2.12-.1-2.83-.13zm9.23-6.24c.72.08 2.18.23 2.91.31-.81 3.84-2.87 7.47-6.53 9.23-1.14-3.7 2.03-6.54 3.62-9.54zm-18.13 14.3c.34-2.92.98-5.91 2.73-8.34l1.92.6c.31 2.73-1.17 5.19-1.97 7.71-.67.01-2.01.02-2.68.03zm4.2 1.8c1.51-2.77 1.28-7.88 5.57-7.41-.33 2.73-1.41 5.28-2.39 7.83l-3.18-.42zm7.58-5.13c.95.05 1.91.09 2.87.14-.82 2.92-1.79 6.06-4.51 7.78-.17-2.76.76-5.36 1.64-7.92zm-13.07 6.18c.81.05 1.63.1 2.45.16-.04 1.95.49 3.8 1.68 5.38.49-1.7.99-3.56 2.72-4.39.13 2.76-.19 5.51-.68 8.23-1.51-1.45-2.62-3.22-3.87-4.88-.35 1.74-1.22 3.23-2.42 4.52-.54-3-.18-6.03.12-9.02zm8.83 10.05c-.31-2.74-.25-5.99 2.97-6.81-.48 2.46-1.04 5.03-2.97 6.81zm-9.28.79c.55.04 1.66.11 2.21.14 0 1.74.01 3.48.03 5.23-.57.02-1.7.05-2.27.07 0-1.82.01-3.63.03-5.44zm5.12-.08c1.36 1.97 1.18 4.43 0 6.44-.26-2.15-.25-4.31 0-6.44z"/></g></svg>